<svg width="33" height="32" viewBox="0 0 33 32" fill="none" xmlns="http://www.w3.org/2000/svg">
<path d="M21.8335 5.33333C23.0735 5.33333 23.6934 5.33333 24.2021 5.46963C25.5825 5.8395 26.6607 6.91769 27.0305 8.29806C27.1668 8.80672 27.1668 9.4267 27.1668 10.6667V22.9333C27.1668 25.1735 27.1668 26.2936 26.7309 27.1493C26.3474 27.9019 25.7354 28.5139 24.9828 28.8974C24.1271 29.3333 23.007 29.3333 20.7668 29.3333H12.2335C9.99329 29.3333 8.87318 29.3333 8.01753 28.8974C7.26489 28.5139 6.65296 27.9019 6.26947 27.1493C5.8335 26.2936 5.8335 25.1735 5.8335 22.9333V10.6667C5.8335 9.4267 5.8335 8.80672 5.96979 8.29806C6.33966 6.91769 7.41785 5.8395 8.79822 5.46963C9.30689 5.33333 9.92687 5.33333 11.1668 5.33333M16.5002 20.6667V14.6667C16.5002 13.5621 17.3956 12.6667 18.5002 12.6667C19.6047 12.6667 20.5002 13.5621 20.5002 14.6667V20.6667C20.5002 22.8758 18.7093 24.6667 16.5002 24.6667C14.291 24.6667 12.5002 22.8758 12.5002 20.6667V15.3333M13.3002 8H19.7002C20.4469 8 20.8203 8 21.1055 7.85467C21.3564 7.72684 21.5603 7.52287 21.6882 7.27199C21.8335 6.98677 21.8335 6.6134 21.8335 5.86666V4.8C21.8335 4.05326 21.8335 3.67989 21.6882 3.39468C21.5603 3.14379 21.3564 2.93982 21.1055 2.81199C20.8203 2.66666 20.4469 2.66666 19.7002 2.66666H13.3002C12.5534 2.66666 12.1801 2.66666 11.8948 2.81199C11.644 2.93982 11.44 3.14379 11.3122 3.39468C11.1668 3.67989 11.1668 4.05326 11.1668 4.8V5.86666C11.1668 6.6134 11.1668 6.98677 11.3122 7.27199C11.44 7.52287 11.644 7.72684 11.8948 7.85467C12.1801 8 12.5534 8 13.3002 8Z" stroke="black" stroke-width="2" stroke-linecap="round" stroke-linejoin="round"/>
</svg>
