<svg width="32" height="32" viewBox="0 0 32 32" fill="none" xmlns="http://www.w3.org/2000/svg">
<path d="M7.99984 7.99935L10.6665 5.33268M10.6665 5.33268L7.99984 2.66602M10.6665 5.33268H7.99984C5.05432 5.33268 2.6665 7.7205 2.6665 10.666M23.9998 23.9993L21.3332 26.666M21.3332 26.666L23.9998 29.3327M21.3332 26.666H23.9998C26.9454 26.666 29.3332 24.2782 29.3332 21.3327M17.8894 17.8889C18.9324 18.3871 20.1002 18.666 21.3332 18.666C25.7515 18.666 29.3332 15.0843 29.3332 10.666C29.3332 6.24774 25.7515 2.66602 21.3332 2.66602C16.9149 2.66602 13.3332 6.24774 13.3332 10.666C13.3332 11.899 13.6121 13.0668 14.1103 14.1098M18.6665 21.3327C18.6665 25.751 15.0848 29.3327 10.6665 29.3327C6.24823 29.3327 2.6665 25.751 2.6665 21.3327C2.6665 16.9144 6.24823 13.3327 10.6665 13.3327C15.0848 13.3327 18.6665 16.9144 18.6665 21.3327Z" stroke="black" stroke-width="2" stroke-linecap="round" stroke-linejoin="round"/>
</svg>
