<svg width="30" height="40" viewBox="0 0 30 40" fill="none" xmlns="http://www.w3.org/2000/svg">
<path d="M0.5 36V4C0.5 2.067 2.067 0.5 4 0.5H17.9C18.7987 0.5 19.663 0.845712 20.3138 1.46552L28.4138 9.1798C29.1074 9.8404 29.5 10.7564 29.5 11.7143V36C29.5 37.933 27.933 39.5 26 39.5H4C2.067 39.5 0.5 37.933 0.5 36Z" fill="white" stroke="#E5E9EB"/>
<path d="M0 17H24C25.1046 17 26 17.8954 26 19V30C26 31.1046 25.1046 32 24 32H0V17Z" fill="#6716CD"/>
<path d="M10.84 26.9V28H4.86996V27.13L8.98996 22.1H4.93996V21H10.71V21.87L6.58996 26.9H10.84ZM12.0308 21H13.3308V28H12.0308V21ZM18.1042 21C18.7108 21 19.2375 21.1 19.6842 21.3C20.1375 21.5 20.4842 21.7867 20.7242 22.16C20.9642 22.5333 21.0842 22.9767 21.0842 23.49C21.0842 23.9967 20.9642 24.44 20.7242 24.82C20.4842 25.1933 20.1375 25.48 19.6842 25.68C19.2375 25.88 18.7108 25.98 18.1042 25.98H16.5242V28H15.2242V21H18.1042ZM18.0442 24.88C18.6108 24.88 19.0408 24.76 19.3342 24.52C19.6275 24.28 19.7742 23.9367 19.7742 23.49C19.7742 23.0433 19.6275 22.7 19.3342 22.46C19.0408 22.22 18.6108 22.1 18.0442 22.1H16.5242V24.88H18.0442Z" fill="white"/>
</svg>
