<svg width="30" height="40" viewBox="0 0 30 40" fill="none" xmlns="http://www.w3.org/2000/svg">
<path d="M0.5 36V4C0.5 2.067 2.067 0.5 4 0.5H17.9C18.7987 0.5 19.663 0.845712 20.3138 1.46552L28.4138 9.1798C29.1074 9.8404 29.5 10.7564 29.5 11.7143V36C29.5 37.933 27.933 39.5 26 39.5H4C2.067 39.5 0.5 37.933 0.5 36Z" fill="white" stroke="#E5E9EB"/>
<path d="M0 17H24C25.1046 17 26 17.8954 26 19V30C26 31.1046 25.1046 32 24 32H0V17Z" fill="#3BCD16"/>
<path d="M9.38711 28L7.48711 25.34L5.60711 28H4.12711L6.72711 24.43L4.26711 21H5.73711L7.52711 23.49L9.29711 21H10.7071L8.25711 24.38L10.8871 28H9.38711ZM11.6763 21H12.9763V26.9H16.6363V28H11.6763V21ZM19.7838 28.1C19.2438 28.1 18.7205 28.0233 18.2138 27.87C17.7138 27.7167 17.3172 27.5133 17.0238 27.26L17.4738 26.25C17.7605 26.4767 18.1105 26.6633 18.5238 26.81C18.9438 26.95 19.3638 27.02 19.7838 27.02C20.3038 27.02 20.6905 26.9367 20.9438 26.77C21.2038 26.6033 21.3338 26.3833 21.3338 26.11C21.3338 25.91 21.2605 25.7467 21.1138 25.62C20.9738 25.4867 20.7938 25.3833 20.5738 25.31C20.3538 25.2367 20.0538 25.1533 19.6738 25.06C19.1405 24.9333 18.7072 24.8067 18.3738 24.68C18.0472 24.5533 17.7638 24.3567 17.5238 24.09C17.2905 23.8167 17.1738 23.45 17.1738 22.99C17.1738 22.6033 17.2772 22.2533 17.4838 21.94C17.6972 21.62 18.0138 21.3667 18.4338 21.18C18.8605 20.9933 19.3805 20.9 19.9938 20.9C20.4205 20.9 20.8405 20.9533 21.2538 21.06C21.6672 21.1667 22.0238 21.32 22.3238 21.52L21.9138 22.53C21.6072 22.35 21.2872 22.2133 20.9538 22.12C20.6205 22.0267 20.2972 21.98 19.9838 21.98C19.4705 21.98 19.0872 22.0667 18.8338 22.24C18.5872 22.4133 18.4638 22.6433 18.4638 22.93C18.4638 23.13 18.5338 23.2933 18.6738 23.42C18.8205 23.5467 19.0038 23.6467 19.2238 23.72C19.4438 23.7933 19.7438 23.8767 20.1238 23.97C20.6438 24.09 21.0705 24.2167 21.4038 24.35C21.7372 24.4767 22.0205 24.6733 22.2538 24.94C22.4938 25.2067 22.6138 25.5667 22.6138 26.02C22.6138 26.4067 22.5072 26.7567 22.2938 27.07C22.0872 27.3833 21.7705 27.6333 21.3438 27.82C20.9172 28.0067 20.3972 28.1 19.7838 28.1Z" fill="white"/>
</svg>
