<svg width="30" height="40" viewBox="0 0 30 40" fill="none" xmlns="http://www.w3.org/2000/svg">
<path d="M0.5 36V4C0.5 2.067 2.067 0.5 4 0.5H17.9C18.7987 0.5 19.663 0.845712 20.3138 1.46552L28.4138 9.1798C29.1074 9.8404 29.5 10.7564 29.5 11.7143V36C29.5 37.933 27.933 39.5 26 39.5H4C2.067 39.5 0.5 37.933 0.5 36Z" fill="white" stroke="#E5E9EB"/>
<path d="M0 17H25C26.1046 17 27 17.8954 27 19V30C27 31.1046 26.1046 32 25 32H0V17Z" fill="#0788F5"/>
<path d="M1.96734 21H5.02734C5.77401 21 6.43734 21.1467 7.01734 21.44C7.59734 21.7267 8.04734 22.1367 8.36734 22.67C8.68734 23.1967 8.84734 23.8067 8.84734 24.5C8.84734 25.1933 8.68734 25.8067 8.36734 26.34C8.04734 26.8667 7.59734 27.2767 7.01734 27.57C6.43734 27.8567 5.77401 28 5.02734 28H1.96734V21ZM4.96734 26.9C5.48068 26.9 5.93068 26.8033 6.31734 26.61C6.71068 26.41 7.01068 26.13 7.21734 25.77C7.43068 25.4033 7.53734 24.98 7.53734 24.5C7.53734 24.02 7.43068 23.6 7.21734 23.24C7.01068 22.8733 6.71068 22.5933 6.31734 22.4C5.93068 22.2 5.48068 22.1 4.96734 22.1H3.26734V26.9H4.96734ZM13.4991 28.1C12.7857 28.1 12.1424 27.9467 11.5691 27.64C10.9957 27.3267 10.5457 26.8967 10.2191 26.35C9.8924 25.7967 9.72906 25.18 9.72906 24.5C9.72906 23.82 9.8924 23.2067 10.2191 22.66C10.5457 22.1067 10.9957 21.6767 11.5691 21.37C12.1424 21.0567 12.7857 20.9 13.4991 20.9C14.2124 20.9 14.8557 21.0567 15.4291 21.37C16.0024 21.6767 16.4524 22.1033 16.7791 22.65C17.1057 23.1967 17.2691 23.8133 17.2691 24.5C17.2691 25.1867 17.1057 25.8033 16.7791 26.35C16.4524 26.8967 16.0024 27.3267 15.4291 27.64C14.8557 27.9467 14.2124 28.1 13.4991 28.1ZM13.4991 26.96C13.9657 26.96 14.3857 26.8567 14.7591 26.65C15.1324 26.4367 15.4257 26.1433 15.6391 25.77C15.8524 25.39 15.9591 24.9667 15.9591 24.5C15.9591 24.0333 15.8524 23.6133 15.6391 23.24C15.4257 22.86 15.1324 22.5667 14.7591 22.36C14.3857 22.1467 13.9657 22.04 13.4991 22.04C13.0324 22.04 12.6124 22.1467 12.2391 22.36C11.8657 22.5667 11.5724 22.86 11.3591 23.24C11.1457 23.6133 11.0391 24.0333 11.0391 24.5C11.0391 24.9667 11.1457 25.39 11.3591 25.77C11.5724 26.1433 11.8657 26.4367 12.2391 26.65C12.6124 26.8567 13.0324 26.96 13.4991 26.96ZM21.887 28.1C21.1804 28.1 20.5404 27.9467 19.967 27.64C19.4004 27.3267 18.9537 26.8967 18.627 26.35C18.307 25.8033 18.147 25.1867 18.147 24.5C18.147 23.8133 18.3104 23.1967 18.637 22.65C18.9637 22.1033 19.4104 21.6767 19.977 21.37C20.5504 21.0567 21.1904 20.9 21.897 20.9C22.4704 20.9 22.9937 21 23.467 21.2C23.9404 21.4 24.3404 21.69 24.667 22.07L23.827 22.86C23.3204 22.3133 22.697 22.04 21.957 22.04C21.477 22.04 21.047 22.1467 20.667 22.36C20.287 22.5667 19.9904 22.8567 19.777 23.23C19.5637 23.6033 19.457 24.0267 19.457 24.5C19.457 24.9733 19.5637 25.3967 19.777 25.77C19.9904 26.1433 20.287 26.4367 20.667 26.65C21.047 26.8567 21.477 26.96 21.957 26.96C22.697 26.96 23.3204 26.6833 23.827 26.13L24.667 26.93C24.3404 27.31 23.937 27.6 23.457 27.8C22.9837 28 22.4604 28.1 21.887 28.1Z" fill="white"/>
</svg>
