<svg width="30" height="40" viewBox="0 0 30 40" fill="none" xmlns="http://www.w3.org/2000/svg">
<path d="M0.5 36V4C0.5 2.067 2.067 0.5 4 0.5H17.9C18.7987 0.5 19.663 0.845712 20.3138 1.46552L28.4138 9.1798C29.1074 9.8404 29.5 10.7564 29.5 11.7143V36C29.5 37.933 27.933 39.5 26 39.5H4C2.067 39.5 0.5 37.933 0.5 36Z" fill="white" stroke="#E5E9EB"/>
<path d="M0 17H24C25.1046 17 26 17.8954 26 19V30C26 31.1046 25.1046 32 24 32H0V17Z" fill="#E0AD16"/>
<path d="M6.82 21C7.42667 21 7.95333 21.1 8.4 21.3C8.85333 21.5 9.2 21.7867 9.44 22.16C9.68 22.5333 9.8 22.9767 9.8 23.49C9.8 23.9967 9.68 24.44 9.44 24.82C9.2 25.1933 8.85333 25.48 8.4 25.68C7.95333 25.88 7.42667 25.98 6.82 25.98H5.24V28H3.94V21H6.82ZM6.76 24.88C7.32667 24.88 7.75667 24.76 8.05 24.52C8.34333 24.28 8.49 23.9367 8.49 23.49C8.49 23.0433 8.34333 22.7 8.05 22.46C7.75667 22.22 7.32667 22.1 6.76 22.1H5.24V24.88H6.76ZM13.9782 21C14.5849 21 15.1115 21.1 15.5582 21.3C16.0115 21.5 16.3582 21.7867 16.5982 22.16C16.8382 22.5333 16.9582 22.9767 16.9582 23.49C16.9582 23.9967 16.8382 24.44 16.5982 24.82C16.3582 25.1933 16.0115 25.48 15.5582 25.68C15.1115 25.88 14.5849 25.98 13.9782 25.98H12.3982V28H11.0982V21H13.9782ZM13.9182 24.88C14.4849 24.88 14.9149 24.76 15.2082 24.52C15.5015 24.28 15.6482 23.9367 15.6482 23.49C15.6482 23.0433 15.5015 22.7 15.2082 22.46C14.9149 22.22 14.4849 22.1 13.9182 22.1H12.3982V24.88H13.9182ZM19.4713 22.1H17.1513V21H23.0913V22.1H20.7713V28H19.4713V22.1Z" fill="white"/>
</svg>
