<svg width="30" height="40" viewBox="0 0 30 40" fill="none" xmlns="http://www.w3.org/2000/svg">
<path d="M0.5 36V4C0.5 2.067 2.067 0.5 4 0.5H17.9C18.7987 0.5 19.663 0.845712 20.3138 1.46552L28.4138 9.1798C29.1074 9.8404 29.5 10.7564 29.5 11.7143V36C29.5 37.933 27.933 39.5 26 39.5H4C2.067 39.5 0.5 37.933 0.5 36Z" fill="white" stroke="#E5E9EB"/>
<path d="M0 17H24C25.1046 17 26 17.8954 26 19V30C26 31.1046 25.1046 32 24 32H0V17Z" fill="#CD1616"/>
<path d="M5.92645 21C6.53311 21 7.05978 21.1 7.50645 21.3C7.95978 21.5 8.30645 21.7867 8.54645 22.16C8.78645 22.5333 8.90645 22.9767 8.90645 23.49C8.90645 23.9967 8.78645 24.44 8.54645 24.82C8.30645 25.1933 7.95978 25.48 7.50645 25.68C7.05978 25.88 6.53311 25.98 5.92645 25.98H4.34645V28H3.04645V21H5.92645ZM5.86645 24.88C6.43311 24.88 6.86311 24.76 7.15645 24.52C7.44978 24.28 7.59645 23.9367 7.59645 23.49C7.59645 23.0433 7.44978 22.7 7.15645 22.46C6.86311 22.22 6.43311 22.1 5.86645 22.1H4.34645V24.88H5.86645ZM10.2046 21H13.2646C14.0113 21 14.6746 21.1467 15.2546 21.44C15.8346 21.7267 16.2846 22.1367 16.6046 22.67C16.9246 23.1967 17.0846 23.8067 17.0846 24.5C17.0846 25.1933 16.9246 25.8067 16.6046 26.34C16.2846 26.8667 15.8346 27.2767 15.2546 27.57C14.6746 27.8567 14.0113 28 13.2646 28H10.2046V21ZM13.2046 26.9C13.718 26.9 14.168 26.8033 14.5546 26.61C14.948 26.41 15.248 26.13 15.4546 25.77C15.668 25.4033 15.7746 24.98 15.7746 24.5C15.7746 24.02 15.668 23.6 15.4546 23.24C15.248 22.8733 14.948 22.5933 14.5546 22.4C14.168 22.2 13.718 22.1 13.2046 22.1H11.5046V26.9H13.2046ZM19.7664 22.09V24.22H23.1464V25.32H19.7664V28H18.4664V21H23.5764V22.09H19.7664Z" fill="white"/>
</svg>
