<svg width="30" height="40" viewBox="0 0 30 40" fill="none" xmlns="http://www.w3.org/2000/svg">
<path d="M0.5 36V4C0.5 2.067 2.067 0.5 4 0.5H17.9C18.7987 0.5 19.663 0.845712 20.3138 1.46552L28.4138 9.1798C29.1074 9.8404 29.5 10.7564 29.5 11.7143V36C29.5 37.933 27.933 39.5 26 39.5H4C2.067 39.5 0.5 37.933 0.5 36Z" fill="white" stroke="#E5E9EB"/>
<path d="M0 17H24C25.1046 17 26 17.8954 26 19V30C26 31.1046 25.1046 32 24 32H0V17Z" fill="#939598"/>
<path d="M4.61695 22.09V24.22H7.99695V25.32H4.61695V28H3.31695V21H8.42695V22.09H4.61695ZM9.68414 21H10.9841V28H9.68414V21ZM12.8775 21H14.1775V26.9H17.8375V28H12.8775V21ZM24.1138 26.91V28H18.8638V21H23.9738V22.09H20.1638V23.91H23.5438V24.98H20.1638V26.91H24.1138Z" fill="white"/>
</svg>
