<?xml version="1.0" standalone="no"?>
<!DOCTYPE svg PUBLIC "-//W3C//DTD SVG 20010904//EN"
 "http://www.w3.org/TR/2001/REC-SVG-20010904/DTD/svg10.dtd">
<svg version="1.0" xmlns="http://www.w3.org/2000/svg"
 width="512.000000pt" height="512.000000pt" viewBox="0 0 512.000000 512.000000"
 preserveAspectRatio="xMidYMid meet">

<g transform="translate(0.000000,512.000000) scale(0.100000,-0.100000)"
fill="#000000" stroke="none">
<path d="M125 5101 c-51 -23 -101 -79 -114 -128 -15 -53 -15 -4343 0 -4396 13
-49 64 -106 114 -128 45 -20 2182 -449 2235 -449 76 0 165 70 189 149 6 21 11
93 11 160 l0 121 558 0 c517 0 560 2 597 19 51 23 101 79 114 128 14 50 15
1354 1 1404 -5 19 -26 54 -45 76 -95 111 -272 92 -345 -37 l-25 -45 -3 -562
-3 -563 -424 0 -425 0 0 1724 c0 1261 -3 1732 -11 1757 -16 48 -55 96 -92 116
-18 9 -198 67 -402 129 l-370 113 863 0 862 1 0 -538 c0 -619 -1 -613 76 -680
88 -78 207 -76 286 5 71 73 68 37 68 790 l0 678 -24 51 c-25 54 -69 94 -125
113 -25 8 -501 11 -1780 11 -1667 0 -1748 -1 -1786 -19z m1135 -731 c443 -133
820 -246 838 -251 l32 -11 0 -1818 0 -1818 -850 172 -850 171 0 1902 c0 1518
3 1901 13 1898 6 -2 374 -113 817 -245z"/>
<path d="M4205 3616 c-70 -20 -129 -83 -144 -157 -9 -44 -9 -64 5 -108 14 -48
32 -70 166 -207 l151 -154 -597 0 c-397 0 -612 -4 -640 -11 -159 -40 -210
-246 -89 -361 62 -59 46 -58 720 -58 l617 0 -161 -162 c-155 -157 -161 -165
-172 -218 -33 -160 110 -292 269 -250 40 11 82 48 393 358 191 191 357 361
368 379 30 47 35 123 14 180 -15 40 -72 102 -354 386 -185 186 -354 349 -376
362 -53 30 -109 37 -170 21z"/>
</g>
</svg>
