<svg width="17" height="16" viewBox="0 0 17 16" fill="none" xmlns="http://www.w3.org/2000/svg">
<path d="M7.85309 0.733267C8.06094 0.317581 8.16487 0.109738 8.30595 0.0433324C8.4287 -0.0144441 8.5713 -0.0144441 8.69405 0.0433324C8.83514 0.109738 8.93906 0.317581 9.14691 0.733267L11.1188 4.67698C11.1802 4.7997 11.2109 4.86106 11.2557 4.9087C11.2954 4.95088 11.343 4.98506 11.3959 5.00934C11.4556 5.03676 11.5242 5.04666 11.6614 5.06645L16.0722 5.70291C16.5367 5.76993 16.7689 5.80344 16.8764 5.91544C16.9699 6.01288 17.0139 6.14677 16.9961 6.27984C16.9757 6.43279 16.8075 6.59446 16.4713 6.91779L13.2807 9.98558C13.1813 10.0812 13.1315 10.129 13.0995 10.1859C13.071 10.2363 13.0528 10.2916 13.0458 10.3489C13.0378 10.4135 13.0496 10.4811 13.073 10.6161L13.8259 14.9493C13.9053 15.4063 13.945 15.6348 13.8704 15.7704C13.8054 15.8884 13.6901 15.9711 13.5563 15.9956C13.4026 16.0237 13.1948 15.9158 12.779 15.7L8.83579 13.6528C8.71293 13.589 8.65149 13.5571 8.58677 13.5446C8.52947 13.5335 8.47053 13.5335 8.41323 13.5446C8.34851 13.5571 8.28708 13.589 8.16421 13.6528L4.22097 15.7C3.80524 15.9158 3.59738 16.0237 3.44368 15.9956C3.30995 15.9711 3.19456 15.8884 3.12965 15.7704C3.05504 15.6348 3.09474 15.4063 3.17414 14.9493L3.92695 10.6161C3.95042 10.4811 3.96216 10.4135 3.95422 10.3489C3.94719 10.2916 3.92896 10.2363 3.90055 10.1859C3.86846 10.129 3.81873 10.0812 3.71927 9.98558L0.528751 6.91779C0.19248 6.59446 0.0243444 6.43279 0.00388445 6.27984C-0.0139168 6.14677 0.0300607 6.01288 0.123573 5.91544C0.231051 5.80344 0.463292 5.76993 0.927774 5.70291L5.33862 5.06645C5.4758 5.04666 5.54438 5.03676 5.60411 5.00934C5.657 4.98506 5.70461 4.95088 5.74431 4.9087C5.78915 4.86106 5.81983 4.7997 5.88119 4.67698L7.85309 0.733267Z" fill="#939598"/>
</svg>
