<svg width="24" height="24" viewBox="0 0 24 24" fill="none" xmlns="http://www.w3.org/2000/svg">
<g clip-path="url(#clip0_4993_205311)">
<path fill-rule="evenodd" clip-rule="evenodd" d="M18.707 7.29279C18.8945 7.48031 18.9998 7.73462 18.9998 7.99979C18.9998 8.26495 18.8945 8.51926 18.707 8.70679L10.707 16.7068C10.5195 16.8943 10.2652 16.9996 10 16.9996C9.73488 16.9996 9.48057 16.8943 9.29304 16.7068L5.29304 12.7068C5.11088 12.5182 5.01009 12.2656 5.01237 12.0034C5.01465 11.7412 5.11981 11.4904 5.30522 11.305C5.49063 11.1196 5.74144 11.0144 6.00364 11.0121C6.26584 11.0098 6.51844 11.1106 6.70704 11.2928L10 14.5858L17.293 7.29279C17.4806 7.10532 17.7349 7 18 7C18.2652 7 18.5195 7.10532 18.707 7.29279Z" fill="#EE2A24"/>
</g>
<rect x="1" y="1" width="22" height="22" rx="11" stroke="#EE2A24" stroke-width="2"/>
<defs>
<clipPath id="clip0_4993_205311">
<rect width="24" height="24" rx="12" fill="white"/>
</clipPath>
</defs>
</svg>
