<svg xmlns="http://www.w3.org/2000/svg" xmlns:xlink="http://www.w3.org/1999/xlink" width="90" height="90" viewBox="0 0 90 90">
    <defs>
        <circle id="a" cx="45" cy="45" r="45"/>
    </defs>
    <g fill="none" fill-rule="evenodd">
        <mask id="b" fill="#fff">
            <use xlink:href="#a"/>
        </mask>
        <use fill="#F2F2F2" xlink:href="#a"/>
        <g fill="#A6A6A6" fill-rule="nonzero" mask="url(#b)">
            <path d="M85.196 106.66c-.996 0-1.804.806-1.804 1.801v16.94a.997.997 0 0 1-.996.995H72.7V90.914a1.803 1.803 0 0 0-3.608 0v35.482H49.567l5.662-6.222c.619-.68.91-1.648.78-2.591a1.436 1.436 0 0 0-.008-.055l-5.393-31.823 1.453-2.185c.803.57 1.422 1.119 2.582 1.119a3.16 3.16 0 0 0 2.827-1.747l5.688-11.387 12.958 5.013c.469.2 7.275 3.262 7.275 11.348v12.187a1.803 1.803 0 1 0 3.608 0V87.866c0-10.653-9.132-14.526-9.52-14.685a.853.853 0 0 0-.035-.014L55.88 64.825v-5.052c3.425-2.661 5.8-6.606 6.396-11.106a7.813 7.813 0 0 0 4.587-1.869 7.632 7.632 0 0 0 2.66-5.795c0-1.852-.67-3.62-1.861-4.998V29.33C67.66 17.018 57.632 7 45.305 7 32.98 7 22.95 17.018 22.95 29.33v6.85c-1.205 1.364-1.86 3.042-1.86 4.822 0 2.232.97 4.345 2.66 5.797a7.808 7.808 0 0 0 4.584 1.868 16.7 16.7 0 0 0 6.762 11.372v4.786l-21.542 8.342a1.986 1.986 0 0 0-.034.013C13.131 73.34 4 77.212 4 87.865v37.536a4.606 4.606 0 0 0 4.604 4.598h17.185a1.803 1.803 0 1 0 0-3.603h-3.88V90.914a1.803 1.803 0 0 0-3.608 0v35.482H8.604a.997.997 0 0 1-.996-.995V87.866c0-8.113 6.853-11.168 7.274-11.348l12.947-5.013 5.688 11.387a3.159 3.159 0 0 0 2.828 1.747c1.154 0 1.767-.54 2.582-1.119l1.453 2.185-5.392 31.823a1.966 1.966 0 0 0-.009.055c-.13.942.162 1.911.78 2.591l5.663 6.222h-7.214a1.803 1.803 0 1 0 0 3.604h48.188A4.606 4.606 0 0 0 87 125.401v-16.94c0-.995-.808-1.801-1.804-1.801zM59.78 70.198l-5.303 10.616-6.378-4.524 6.55-8.076 5.13 1.984zM49.118 81.433L47.742 83.5h-4.498l-1.375-2.067 3.624-2.572 3.625 2.572zM38.704 65.406v-3.372c2.191.882 4.533 1.292 6.82 1.292a16.95 16.95 0 0 0 6.747-1.405v3.5l-6.778 8.356-6.79-8.371zm27.21-24.403c0 1.18-.512 2.297-1.404 3.063a4.203 4.203 0 0 1-2.083.958v-8.042c2.073.336 3.487 2.054 3.487 4.02zm-37.729 4.021c-2.097-.34-3.487-2.071-3.487-4.022 0-1.926 1.598-3.494 3.487-3.93v7.952zm.097-11.623a8.926 8.926 0 0 0-1.724.388V29.33c0-10.326 8.41-18.727 18.748-18.727 10.337 0 18.747 8.4 18.747 18.727v4.334a8.027 8.027 0 0 0-1.626-.314c0-1.739.015-1.403-5.679-7.518a3.212 3.212 0 0 0-4.097-.499c-6.285 4.1-13.95 6.16-21.024 5.653a3.207 3.207 0 0 0-3.345 2.414zm3.51 13.042V34.609c7.787.456 15.95-1.855 22.545-6.073 2.612 2.8 4.026 4.27 4.482 4.828v13.078c0 7.315-5.97 13.28-13.294 13.28-8.224 0-13.732-6.373-13.732-13.28zm4.718 34.371l-5.303-10.616 5.122-1.981 6.551 8.078c-3.332 2.363-6.067 4.305-6.37 4.52zm2.07 37.103L43.8 87.104h3.384l5.221 30.813-6.913 7.597-6.913-7.597z"/>
        </g>
    </g>
</svg>
