<svg xmlns="http://www.w3.org/2000/svg" width="19" height="19" viewBox="0 0 19 19">
    <g fill="#A6A6A6" fill-rule="nonzero">
        <path d="M18.375 5h-3.364L12.684.384a.626.626 0 0 0-1.119.559L13.614 5H5.386L7.434.944a.625.625 0 0 0-1.118-.56L3.99 5H.625C.28 5 0 5.32 0 5.664v2.5C0 8.51.28 9 .625 9h.995l2.149 9.53c.07.279.32.47.606.47h10.25a.622.622 0 0 0 .606-.47L17.613 9h.762c.345 0 .625-.49.625-.836v-2.5C19 5.32 18.72 5 18.375 5zM14.2 18H4.8L2.62 9h13.99l-2.41 9zM18 8H1V6h17v2z"/>
        <path d="M9.5 11c-.276 0-.5.28-.5.625v3.75c0 .345.224.625.5.625s.5-.28.5-.625v-3.75c0-.345-.224-.625-.5-.625zM6.5 11c-.276 0-.5.28-.5.625v3.75c0 .345.224.625.5.625s.5-.28.5-.625v-3.75C7 11.28 6.776 11 6.5 11zM12.5 11c-.276 0-.5.28-.5.625v3.75c0 .345.224.625.5.625s.5-.28.5-.625v-3.75c0-.345-.224-.625-.5-.625z"/>
    </g>
</svg>
