<svg xmlns="http://www.w3.org/2000/svg" width="48" height="48" viewBox="0 0 48 48">
    <g fill="#A6A6A6" fill-rule="nonzero">
        <path d="M47.633 18.42a.936.936 0 0 0-1.324 0l-6.76 6.76a.936.936 0 0 0-.273.662v3.543c0 .403-.034.8-.098 1.194l-6.79-6.79-1.527-1.528a4.903 4.903 0 0 0-7.233.33l-4.649 5.589c-.56.674-1.515.839-2.27.392a1.779 1.779 0 0 1-.724-2.233l3.524-8.137a5.16 5.16 0 0 1 4.738-3.112h4.277a.936.936 0 0 0 .662-.274L42.394 1.608A.936.936 0 0 0 41.071.285L28.137 13.219h-3.89a7.03 7.03 0 0 0-2.134.332 7.36 7.36 0 0 0-4.803-1.767h-.52L5.295.289a.936.936 0 0 0-1.323 1.323l11.769 11.77a.936.936 0 0 0 .662.273h.907c1.046 0 2.048.29 2.915.827a7.026 7.026 0 0 0-2.433 2.976l-3.524 8.138a3.654 3.654 0 0 0 3.351 5.1c1.05 0 2.082-.457 2.8-1.32l4.647-5.588a2.995 2.995 0 0 1 2.19-1.088 2.992 2.992 0 0 1 2.281.884l.646.647.005.005.86.86.017.016 7.814 7.815a1.545 1.545 0 0 1-1.09 2.634c-.413 0-.8-.16-1.092-.452l-3.813-3.813-2.293-2.293a.936.936 0 0 0-1.324 1.323l2.294 2.293 3.813 3.814a1.545 1.545 0 0 1-1.091 2.634c-.412 0-.8-.16-1.091-.452L29.379 34.8l-2.294-2.293a.936.936 0 0 0-1.323 1.323l2.293 2.293 3.814 3.814a1.545 1.545 0 0 1-1.091 2.634c-.294 0-.574-.083-.816-.235a3.472 3.472 0 0 0-.234-.258L27.94 40.29a.934.934 0 0 0-.27-.187l-4.09-4.09a.936.936 0 0 0-1.323 1.324l6.106 6.106c.083.083.17.16.259.234a1.533 1.533 0 0 1-.217 1.907 1.545 1.545 0 0 1-2.182 0l-.959-.959a3.42 3.42 0 0 0-.355-4.41 3.392 3.392 0 0 0-2.414-1l-.095.002a3.404 3.404 0 0 0-.996-2.507 3.392 3.392 0 0 0-2.415-1l-.094.002a3.404 3.404 0 0 0-.997-2.508 3.392 3.392 0 0 0-2.414-1c-.032 0-.063.002-.095.003a3.404 3.404 0 0 0-.996-2.508 3.392 3.392 0 0 0-2.414-1c-.912 0-1.77.356-2.415 1l-.71.71a9.678 9.678 0 0 1-2.401-6.041l4.555-4.555a.936.936 0 0 0-1.324-1.323L5.51 22.665l-3.912-3.912a.936.936 0 0 0-1.323 1.324l4.306 4.306a11.54 11.54 0 0 0 3.034 7.446 3.394 3.394 0 0 0-.437 1.672c0 .912.355 1.77 1 2.414.666.666 1.54.998 2.414.998l.094-.002c-.001.032-.003.063-.003.095 0 .912.356 1.77 1 2.414.666.666 1.54.999 2.415.999l.093-.003-.002.095c0 .912.355 1.77 1 2.415.666.665 1.54.998 2.414.998l.094-.002c-.001.031-.003.063-.003.095 0 .912.355 1.769 1 2.414.666.666 1.54.998 2.415.998.874 0 1.748-.332 2.414-.998l.45-.45.928.927c.665.665 1.54.998 2.414.998.874 0 1.749-.333 2.414-.998.645-.645 1-1.503 1-2.415v-.05h.05c.912 0 1.77-.355 2.414-1 .69-.689 1.02-1.602.996-2.507l.095.002c.912 0 1.77-.355 2.415-1 .689-.69 1.02-1.602.996-2.507l.095.002c.912 0 1.769-.355 2.414-1a3.42 3.42 0 0 0 .496-4.198 9.275 9.275 0 0 0 .448-2.849V26.23l6.486-6.486a.936.936 0 0 0 0-1.323zM9.5 34.592a1.545 1.545 0 0 1 0-2.182l1.387-1.387a1.533 1.533 0 0 1 1.09-.452 1.545 1.545 0 0 1 1.091 2.634l-1.386 1.387a1.545 1.545 0 0 1-2.182 0zm3.505 3.506a1.545 1.545 0 0 1 0-2.182l1.387-1.388a1.533 1.533 0 0 1 1.091-.451 1.545 1.545 0 0 1 1.091 2.634l-1.387 1.387a1.545 1.545 0 0 1-2.182 0zm5.687 3.505a1.545 1.545 0 0 1-2.182 0 1.545 1.545 0 0 1 0-2.182l1.388-1.387a1.533 1.533 0 0 1 1.09-.452 1.545 1.545 0 0 1 1.091 2.634l-1.387 1.387zm4.893 2.118l-1.387 1.387a1.545 1.545 0 0 1-2.182 0 1.545 1.545 0 0 1 0-2.182l1.387-1.387a1.533 1.533 0 0 1 1.09-.452 1.545 1.545 0 0 1 1.091 2.634z"/>
        <path d="M23.954 3.212a.936.936 0 0 0-.936.936V8.47a.936.936 0 0 0 1.871 0V4.15a.936.936 0 0 0-.935-.937zM24.615.275A.942.942 0 0 0 23.954 0c-.246 0-.488.1-.662.274a.943.943 0 0 0-.274.661c0 .247.1.488.274.662a.942.942 0 0 0 .662.274c.246 0 .487-.1.661-.274a.942.942 0 0 0 .274-.662c0-.246-.1-.487-.274-.661zM30.577 6.236a.936.936 0 0 0-1.323 0l-1.782 1.782a.936.936 0 0 0 1.323 1.324l1.782-1.782a.936.936 0 0 0 0-1.324zM20.347 7.93l-1.694-1.694A.936.936 0 0 0 17.33 7.56l1.694 1.694a.933.933 0 0 0 1.323 0 .936.936 0 0 0 0-1.324zM13.387 16.111a.94.94 0 0 0-1.324 0 .939.939 0 0 0 0 1.323.946.946 0 0 0 .663.274c.246 0 .486-.1.66-.274a.942.942 0 0 0 .275-.661.94.94 0 0 0-.274-.662z"/>
    </g>
</svg>
