<svg xmlns="http://www.w3.org/2000/svg" width="42" height="48" viewBox="0 0 42 48">
    <g fill="none" fill-rule="evenodd" stroke="#FF4D35" stroke-width="2">
        <path fill-rule="nonzero" d="M21 1.336l-.368.326A23.581 23.581 0 0 1 4.98 7.583H1v9.813c0 6.07 1.74 11.981 5.034 17.1a31.966 31.966 0 0 0 13.528 11.74l1.438.663 1.438-.663a31.966 31.966 0 0 0 13.528-11.74A31.538 31.538 0 0 0 41 17.395V7.583h-3.98a23.581 23.581 0 0 1-15.652-5.92L21 1.335z"/>
        <path d="M29 20h-5v-5a1 1 0 0 0-1-1h-4a1 1 0 0 0-1 1v5h-5a1 1 0 0 0-1 1v4a1 1 0 0 0 1 1h5v5a1 1 0 0 0 1 1h4a1 1 0 0 0 1-1v-5h5a1 1 0 0 0 1-1v-4a1 1 0 0 0-1-1z"/>
    </g>
</svg>
