<svg xmlns="http://www.w3.org/2000/svg" width="42" height="42" viewBox="0 0 42 42">
    <g fill="none" fill-rule="evenodd">
        <path fill="#FFF" d="M-360-263h1920V817H-360z"/>
        <g stroke="#FF4D35" stroke-width="2">
            <path d="M41 34.797A43.806 43.806 0 0 0 21 30a43.806 43.806 0 0 0-20 4.797V40h40v-5.203z"/>
            <path fill="#FFF" d="M13.068 29.758l4.761 6.348L20 31.764v-1.21l-6.303-3.94-.629 3.144z"/>
            <rect width="20" height="28" x="11" y="2" rx="10"/>
            <path fill="#FFF" d="M28.932 29.758l-4.761 6.348L22 31.764v-1.21l6.303-3.94.629 3.144zM30.845 12.66c-.056-.362.033-.752.307-1.19 2.032-3.252 1.73-5.8-.381-7.732C28.932 2.055 25.783 1 23 1h-4c-2.783 0-5.932 1.055-7.77 2.738-2.112 1.933-2.414 4.48-.382 7.732.274.438.362.828.305 1.19C13.897 12.22 17.178 12 21 12c3.821 0 7.102.22 9.845.66z"/>
            <path d="M20 4h2v1h-2z"/>
            <path fill="#FFF" d="M10.648 9.53A2 2 0 0 0 9 11.497V12a1.712 1.712 0 0 0 1.878 1.704C15.694 13.234 19.06 13 21 13c1.94 0 5.306.235 10.122.704A1.712 1.712 0 0 0 33 12v-.502a2 2 0 0 0-1.648-1.969C26.353 8.635 22.888 8.19 21 8.19s-5.353.446-10.352 1.34z"/>
        </g>
    </g>
</svg>
