<?xml version="1.0" encoding="UTF-8"?>
<svg width="20px" height="20px" viewBox="0 0 20 20" version="1.1" xmlns="http://www.w3.org/2000/svg" xmlns:xlink="http://www.w3.org/1999/xlink">
    <!-- Generator: Sketch 51.1 (57501) - http://www.bohemiancoding.com/sketch -->
    <title>facebook red</title>
    <desc>Created with Sketch.</desc>
    <defs></defs>
    <g id="Page-1" stroke="none" stroke-width="1" fill="none" fill-rule="evenodd">
        <g id="Group-4-Copy" fill="#FF4D35" fill-rule="nonzero">
            <g id="Group-5">
                <path d="M13.6234294,1.0037452 L11.2248841,1 C8.5302007,1 6.78877793,2.73870978 6.78877793,5.42982429 L6.78877793,7.4722699 L4.37714792,7.4722699 C4.16875445,7.4722699 4,7.63668425 4,7.83948691 L4,10.7987578 C4,11.0015605 4.16894687,11.1657876 4.37714792,11.1657876 L6.78877793,11.1657876 L6.78877793,18.6329703 C6.78877793,18.8357729 6.95753238,19 7.16592584,19 L10.312417,19 C10.5208105,19 10.6895649,18.8355857 10.6895649,18.6329703 L10.6895649,11.1657876 L13.5093229,11.1657876 C13.7177163,11.1657876 13.8864708,11.0015605 13.8864708,10.7987578 L13.8876253,7.83948691 C13.8876253,7.74211167 13.8477939,7.64885615 13.7771749,7.57994445 C13.7065558,7.51103274 13.6103446,7.4722699 13.510285,7.4722699 L10.6895649,7.4722699 L10.6895649,5.74086327 C10.6895649,4.9086795 10.8933403,4.48622078 12.0072736,4.48622078 L13.6230445,4.485659 C13.8312456,4.485659 14,4.32124466 14,4.11862926 L14,1.37077494 C14,1.16834681 13.831438,1.00411972 13.6234294,1.0037452 Z" id="Shape-Copy"></path>
            </g>
        </g>
    </g>
</svg>