<svg xmlns="http://www.w3.org/2000/svg" width="20" height="20" viewBox="0 0 20 20">
    <g fill="none" fill-rule="evenodd">
        <path fill="#FFF" d="M-21-31h320v568H-21z"/>
        <path fill="#12A454" d="M-21-31h230v568H-21z"/>
        <g fill-rule="nonzero">
            <path stroke="#FFF" d="M15.486 18.878a.684.684 0 0 0 .006-.005l-.186-3.373h1.192c1.167 0 2.002-.733 2.002-1.785V5.534c0-1.116-.904-2.034-2.002-2.034H3.502C2.404 3.5 1.5 4.418 1.5 5.534v8.181c0 1.052.835 1.785 2.002 1.785h8.277l.143.13 3.564 3.248z"/>
            <path fill="#FFF" d="M14.708 10H5.292C5.131 10 5 9.776 5 9.5s.13-.5.292-.5h9.416c.161 0 .292.224.292.5s-.13.5-.292.5zM14.708 12H5.292C5.131 12 5 11.776 5 11.5s.13-.5.292-.5h9.416c.161 0 .292.224.292.5s-.13.5-.292.5zM14.708 8H5.292C5.131 8 5 7.776 5 7.5s.13-.5.292-.5h9.416c.161 0 .292.224.292.5s-.13.5-.292.5z"/>
        </g>
    </g>
</svg>
