<svg xmlns="http://www.w3.org/2000/svg" width="20" height="20" viewBox="0 0 20 20">
    <g fill="none" fill-rule="nonzero">
        <path stroke="#A6A6A6" d="M14.866 12.499l-.007-.007c-.278-.29-.594-.435-.923-.435-.329 0-.652.146-.945.44l-1.463 1.458-.327-.177-.28-.144-.207-.106a3.366 3.366 0 0 1-.213-.12c-1.172-.745-2.233-1.712-3.25-2.96-.496-.628-.837-1.168-1.088-1.723l-.15-.33.268-.245a14.526 14.526 0 0 0 .65-.633l.215-.217a23.254 23.254 0 0 0 .319-.323c.602-.602.602-1.318 0-1.92L6.428 4.02l-.12-.12a11.777 11.777 0 0 1-.239-.247 17.25 17.25 0 0 0-.706-.699c-.278-.275-.594-.413-.92-.413-.33 0-.656.14-.938.412l-1.299 1.31c-.403.403-.629.886-.679 1.453-.069.836.103 1.65.457 2.603.596 1.609 1.488 3.098 2.82 4.698a17.366 17.366 0 0 0 5.78 4.529c1.19.564 2.139.875 3.152.94.106.005.162.007.215.007.74 0 1.343-.259 1.806-.76a6.85 6.85 0 0 1 .527-.563l.193-.187c.185-.177.337-.326.479-.475.288-.3.433-.634.433-.967 0-.334-.145-.66-.439-.95L14.866 12.5z"/>
        <path fill="#A6A6A6" d="M10.724 5.28a4.816 4.816 0 0 1 2.62 1.36 4.84 4.84 0 0 1 1.36 2.62.51.51 0 0 0 .504.425c.03 0 .057-.004.088-.008a.513.513 0 0 0 .421-.592 5.857 5.857 0 0 0-1.644-3.17 5.857 5.857 0 0 0-3.17-1.645.515.515 0 0 0-.593.418.507.507 0 0 0 .414.592zM18.972 8.937a9.636 9.636 0 0 0-2.708-5.222 9.636 9.636 0 0 0-5.221-2.707.51.51 0 1 0-.167 1.01c1.77.3 3.383 1.14 4.667 2.419a8.603 8.603 0 0 1 2.419 4.667.51.51 0 0 0 .505.425.503.503 0 0 0 .505-.592z"/>
    </g>
</svg>
