<svg xmlns="http://www.w3.org/2000/svg" width="20" height="20" viewBox="0 0 20 20">
    <g fill="none" fill-rule="evenodd">
        <path fill="#FFF" d="M-21-298h826V869H-21z"/>
        <path fill="#12A454" d="M-21-298h230v687H-21z"/>
        <g fill-rule="nonzero">
            <path stroke="#FFF" d="M16.78 3.528H3.198c-.934 0-1.698.78-1.698 1.743v9.47c0 .963.764 1.742 1.698 1.742h13.578c.934 0 1.698-.78 1.698-1.742V5.273c.003-.963-.761-1.745-1.694-1.745z"/>
            <path fill="#FFF" d="M12.109 9.874l3.813-3.193a.39.39 0 0 0 .032-.575.46.46 0 0 0-.616-.03l-5.259 4.406-1.026-.855a.49.49 0 0 0-.077-.067L4.8 6.073a.457.457 0 0 0-.616.033.387.387 0 0 0 .035.575l3.859 3.22-3.843 3.357a.39.39 0 0 0-.02.576.461.461 0 0 0 .617.02l3.9-3.405 1.059.882a.454.454 0 0 0 .58-.003l1.088-.91 3.878 3.44a.45.45 0 0 0 .3.111.45.45 0 0 0 .316-.126.39.39 0 0 0-.016-.575l-3.83-3.394z"/>
        </g>
    </g>
</svg>
