<svg xmlns="http://www.w3.org/2000/svg" width="20" height="20" viewBox="0 0 20 20">
    <path fill="none" fill-rule="nonzero" stroke="#BFBFBF" stroke-width="2" d="M10.205 16.07l.036.033a.323.323 0 0 0-.036-.033zm-.387-.026a.013.013 0 0 0-.004.004l.004-.004zm.18-.164l5.973-5.47c1.372-1.464 1.372-3.873 0-5.338C15.317 4.377 14.465 4 13.556 4c-.872 0-1.615.348-2.27 1.046L10 6.522l-.754-.865-.509-.585C8.057 4.348 7.315 4 6.443 4c-.908 0-1.762.377-2.414 1.072-1.372 1.465-1.372 3.874-.053 5.285l6.022 5.523z"/>
</svg>
