<svg xmlns="http://www.w3.org/2000/svg" width="20" height="20" viewBox="0 0 20 20">
    <g fill="#BFBFBF" fill-rule="evenodd">
        <path d="M9.918.196c2.743.007 4.946 2.252 4.932 5.027-.014 2.71-2.253 4.907-4.992 4.898-2.712-.01-4.935-2.258-4.92-4.974a4.97 4.97 0 0 1 4.98-4.95zM9.91 7.587a2.41 2.41 0 0 0 2.412-2.433 2.417 2.417 0 0 0-2.425-2.423 2.421 2.421 0 0 0-2.43 2.452A2.416 2.416 0 0 0 9.91 7.587z"/>
        <path d="M15.475 12.07c-.607.623-1.337 1.073-2.148 1.388-.767.297-1.607.447-2.44.547.127.137.186.203.264.282 1.129 1.135 2.263 2.265 3.388 3.403.383.387.464.868.253 1.319-.231.494-.748.817-1.255.783-.321-.023-.571-.183-.793-.406-.853-.858-1.721-1.7-2.556-2.572-.242-.255-.36-.207-.574.014-.857.883-1.728 1.752-2.604 2.616-.394.388-.862.457-1.319.236-.485-.235-.793-.73-.77-1.228.017-.337.183-.594.414-.825 1.117-1.115 2.231-2.234 3.346-3.351.074-.074.143-.153.25-.268-1.52-.159-2.89-.533-4.064-1.45-.145-.115-.296-.225-.43-.353-.512-.493-.564-1.058-.158-1.64.348-.498.932-.632 1.538-.346.118.055.23.125.337.199 2.187 1.503 5.19 1.544 7.386.068.217-.166.45-.303.72-.371.524-.135 1.012.057 1.293.516.322.522.318 1.033-.078 1.439z"/>
    </g>
</svg>
