<svg xmlns="http://www.w3.org/2000/svg" width="20" height="20" viewBox="0 0 20 20">
    <g fill="none" fill-rule="evenodd">
        <path fill="#FFF" d="M-607-499h1920V581H-607z"/>
        <g transform="translate(-247 -11)">
            <rect width="277" height="41" x=".5" y=".5" stroke="#D9D9D9" rx="5"/>
            <g fill="#A6A6A6" fill-rule="nonzero">
                <path d="M264.838 20.543C264.695 20.357 261.308 16 257 16c-4.306 0-7.695 4.357-7.838 4.543l-.162.213.162.213c.143.185 3.532 5.031 7.838 5.031 4.307 0 7.695-4.846 7.838-5.031l.162-.213-.162-.213zM257 25.266c-3.383 0-6.292-3.65-7.02-4.51.728-.86 3.637-4.021 7.02-4.021 3.383 0 6.292 3.163 7.02 4.02-.728.86-3.63 4.51-7.02 4.511z"/>
                <path d="M257 18c-1.654 0-3 1.347-3 3a3 3 0 0 0 6 0c0-1.653-1.346-3-3-3zm0 5.258a2.256 2.256 0 0 1-2.248-2.259A2.254 2.254 0 0 1 257 18.743a2.255 2.255 0 0 1 2.248 2.258A2.254 2.254 0 0 1 257 23.258z"/>
            </g>
        </g>
    </g>
</svg>
