<?xml version="1.0" encoding="UTF-8"?>
<svg width="50px" height="50px" viewBox="0 0 50 50" version="1.1" xmlns="http://www.w3.org/2000/svg" xmlns:xlink="http://www.w3.org/1999/xlink">
    <!-- Generator: Sketch 51.1 (57501) - http://www.bohemiancoding.com/sketch -->
    <title>white</title>
    <desc>Created with Sketch.</desc>
    <defs></defs>
    <g id="Page-1" stroke="none" stroke-width="1" fill="none" fill-rule="evenodd">
        <g id="Artboard-Copy-2" transform="translate(-1934.000000, -463.000000)">
            <g id="Group-5-Copy" transform="translate(1934.000000, 463.000000)">
                <g id="Group-22" transform="translate(8.000000, 3.000000)">
                    <path d="M16.3863289,33.079198 L15.7244091,33.5229379 C14.8069286,34.1380015 13.5645561,33.8928441 12.9494925,32.9753635 C12.9483621,32.9736773 12.9472342,32.9719893 12.9461089,32.9702996 L12.5043867,32.3070317 C12.0547678,31.6319065 11.241905,31.2952077 10.4465908,31.4546647 L9.66524477,31.6113212 C8.58222862,31.8284613 7.52824378,31.12653 7.31110373,30.0435138 C7.31070465,30.0415234 7.31030859,30.0395323 7.30991557,30.0375406 L7.15563912,29.2557211 C6.99860466,28.4599251 6.37646638,27.8377868 5.58067031,27.6807523 L4.79885088,27.5264759 C3.71517852,27.3126348 3.01004097,26.2607923 3.22388206,25.1771199 C3.22427508,25.1751283 3.22467114,25.1731372 3.22507022,25.1711467 L3.38172671,24.3898007 C3.54118376,23.5944865 3.20448494,22.7816236 2.52935973,22.3320047 L1.8660918,21.8902825 C0.946742539,21.2780157 0.697803071,20.0363955 1.31006994,19.1170462 C1.31119523,19.1153565 1.31232309,19.1136686 1.31345353,19.1119823 L1.75719343,18.4500626 C2.20886609,17.7763096 2.20886609,16.8964732 1.75719343,16.2227203 L1.31345353,15.5608006 C0.698389946,14.64332 0.943547345,13.4009475 1.8610279,12.7858839 C1.86271415,12.7847535 1.86440212,12.7836256 1.8660918,12.7825003 L2.52935973,12.3407781 C3.20448494,11.8911593 3.54118376,11.0782964 3.38172671,10.2829822 L3.22507022,9.50163621 C3.00793018,8.41862006 3.70986145,7.36463521 4.7928776,7.14749517 C4.79486809,7.14709609 4.79685918,7.14670003 4.79885088,7.14630701 L5.58067031,6.99203056 C6.37646638,6.8349961 6.99860466,6.21285781 7.15563912,5.41706175 L7.30991557,4.63524231 C7.52375667,3.55156996 8.57559914,2.84643241 9.65927149,3.0602735 C9.66126319,3.06066652 9.66325428,3.06106258 9.66524477,3.06146166 L10.4465908,3.21811815 C11.241905,3.3775752 12.0547678,3.04087638 12.5043867,2.36575117 L12.9461089,1.70248324 C13.5583758,0.783133977 14.799996,0.53419451 15.7193452,1.14646138 C15.7210349,1.14758667 15.7227229,1.14871453 15.7244091,1.14984496 L16.3863289,1.59358486 C17.0600818,2.04525753 17.9399182,2.04525753 18.6136711,1.59358486 L19.2755909,1.14984496 C20.1930714,0.534781385 21.4354439,0.779938783 22.0505075,1.69741934 C22.0516379,1.69910559 22.0527658,1.70079356 22.0538911,1.70248324 L22.4956133,2.36575117 C22.9452322,3.04087638 23.758095,3.3775752 24.5534092,3.21811815 L25.3347552,3.06146166 C26.4177714,2.84432162 27.4717562,3.54625289 27.6888963,4.62926904 C27.6892954,4.63125953 27.6896914,4.63325062 27.6900844,4.63524231 L27.8443609,5.41706175 C28.0013953,6.21285781 28.6235336,6.8349961 29.4193297,6.99203056 L30.2011491,7.14630701 C31.2848215,7.36014811 31.989959,8.41199058 31.7761179,9.49566293 C31.7757249,9.49765463 31.7753289,9.49964572 31.7749298,9.50163621 L31.6182733,10.2829822 C31.4588162,11.0782964 31.7955151,11.8911593 32.4706403,12.3407781 L33.1339082,12.7825003 C34.0532575,13.3947672 34.3021969,14.6363874 33.6899301,15.5557367 C33.6888048,15.5574263 33.6876769,15.5591143 33.6865465,15.5608006 L33.2428066,16.2227203 C32.7911339,16.8964732 32.7911339,17.7763096 33.2428066,18.4500626 L33.6865465,19.1119823 C34.3016101,20.0294629 34.0564527,21.2718354 33.1389721,21.8868989 C33.1372859,21.8880294 33.1355979,21.8891572 33.1339082,21.8902825 L32.4706403,22.3320047 C31.7955151,22.7816236 31.4588162,23.5944865 31.6182733,24.3898007 L31.7749298,25.1711467 C31.9920698,26.2541628 31.2901385,27.3081477 30.2071224,27.5252877 C30.2051319,27.5256868 30.2031408,27.5260828 30.2011491,27.5264759 L29.4193297,27.6807523 C28.6235336,27.8377868 28.0013953,28.4599251 27.8443609,29.2557211 L27.6900844,30.0375406 C27.4762433,31.1212129 26.4244009,31.8263505 25.3407285,31.6125094 C25.3387368,31.6121164 25.3367457,31.6117203 25.3347552,31.6113212 L24.5534092,31.4546647 C23.758095,31.2952077 22.9452322,31.6319065 22.4956133,32.3070317 L22.0538911,32.9702996 C21.4416242,33.8896489 20.200004,34.1385884 19.2806548,33.5263215 C19.2789651,33.5251962 19.2772771,33.5240683 19.2755909,33.5229379 L18.6136711,33.079198 C17.9399182,32.6275253 17.0600818,32.6275253 16.3863289,33.079198 Z" id="Star" stroke="#FFFFFF" stroke-width="2" fill-rule="nonzero"></path>
                    <text id="2" font-family="Roboto-Bold, Roboto" font-size="18" font-weight="bold" fill="#FFFFFF">
                        <tspan x="12" y="22.8363914">2</tspan>
                    </text>
                    <polyline id="Path-2" stroke="#FFFFFF" stroke-width="2" stroke-linejoin="round" points="6.44433594 28.567749 1.32885742 37.1888428 7.20422363 37.1888428 9.97692871 42.2664795 15.0883789 33.5546875"></polyline>
                    <polyline id="Path-4" stroke="#FFFFFF" stroke-width="2" stroke-linejoin="round" points="19.741333 33.4976807 24.8538818 42.1074219 27.8266602 37.1158447 33.5180664 37.2751465 28.5478516 28.4537354"></polyline>
                </g>
            </g>
        </g>
    </g>
</svg>