<svg xmlns="http://www.w3.org/2000/svg" width="47" height="48" viewBox="0 0 47 48">
    <g fill="none" fill-rule="evenodd">
        <rect width="5" height="18" x="1" y="29" stroke="#A6A6A6" stroke-width="2" rx="2"/>
        <path stroke="#A6A6A6" stroke-width="2" d="M8 9a3 3 0 0 0-3 3v4a1 1 0 0 0 1 1h36a1 1 0 0 0 1-1v-4a3 3 0 0 0-3-3H8z"/>
        <rect width="6" height="34" x="21" y="9" fill="#FFF" stroke="#A6A6A6" stroke-width="2" rx="2"/>
        <path fill="#A6A6A6" d="M8 18h2v18H8z"/>
        <path stroke="#A6A6A6" stroke-width="2" d="M16.45 1.378A3.32 3.32 0 0 0 12 4.5 4.5 4.5 0 0 0 16.5 9H22a1 1 0 0 0 1-1V6.524a1 1 0 0 0-.157-.538c-.65-1.018-1.78-2.075-3.398-3.154-.806-.537-1.804-1.023-2.995-1.454zM31.55 1.378A3.32 3.32 0 0 1 36 4.5 4.5 4.5 0 0 1 31.5 9H26a1 1 0 0 1-1-1V6.524a1 1 0 0 1 .157-.538c.65-1.018 1.78-2.075 3.398-3.154.806-.537 1.804-1.023 2.995-1.454z"/>
        <path fill="#A6A6A6" d="M38 18h2v18h-2z"/>
        <path fill="#FFF" stroke="#A6A6A6" stroke-width="2" d="M24.155 38H30c1.095 0 1.928-.262 2.432-.8l9.06-9.419c1.492-1.6 4.177-.568 4.177 1.622 0 .508-.157.996-.455 1.407l-.035.046-9.59 11.73c-1.537 2.047-3.928 3.252-6.448 3.252h-12.53c-3.294 0-7.002-.48-9.882-1.29L6 44.343V32.39l.34-.298.977-.86c3.047-2.682 8.638-2.682 11.685 0C20.153 32.245 21.812 33 23 33h6.141c1.33 0 2.403 1.175 2.403 2.5S30.471 38 29.141 38h-4.986z"/>
    </g>
</svg>
