<?xml version="1.0" encoding="UTF-8"?>
<svg width="20px" height="20px" viewBox="0 0 20 20" version="1.1" xmlns="http://www.w3.org/2000/svg" xmlns:xlink="http://www.w3.org/1999/xlink">
    <!-- Generator: Sketch 51.2 (57519) - http://www.bohemiancoding.com/sketch -->
    <title>signin</title>
    <desc>Created with Sketch.</desc>
    <defs></defs>
    <g id="Symbols" stroke="none" stroke-width="1" fill="none" fill-rule="evenodd">
        <g id="Header-logout" transform="translate(-976.000000, -10.000000)" fill="#A6A6A6">
            <g id="Group-7" transform="translate(976.000000, 8.000000)">
                <g id="Group-12" transform="translate(0.000000, 2.000000)">
                    <path d="M9.5,18 C4.80557963,18 1,14.1944204 1,9.5 C1,4.80557963 4.80557963,1 9.5,1 C14.1944204,1 18,4.80557963 18,9.5 C18,14.1944204 14.1944204,18 9.5,18 Z M9.5,17 C13.6421356,17 17,13.6421356 17,9.5 C17,5.35786438 13.6421356,2 9.5,2 C5.35786438,2 2,5.35786438 2,9.5 C2,13.6421356 5.35786438,17 9.5,17 Z M5,9 L12.5853882,9 L10.2838135,6.66339111 L11,6 L14,9 L14,10 L11,13 L10.2838135,12.3024292 L12.5853882,10 L5,10 L5,9 Z" id="Combined-Shape"></path>
                </g>
            </g>
        </g>
    </g>
</svg>