<svg xmlns="http://www.w3.org/2000/svg" width="50" height="50" viewBox="0 0 50 50">
    <g fill="none" fill-rule="evenodd">
        <path fill="#FFF" fill-rule="nonzero" stroke="#979797" stroke-width="2" d="M16.932 27.202L9.366 40.307l4.666-.301a2 2 0 0 1 1.922 1.11l2.072 4.19 7.566-13.104-8.66-5z"/>
        <path fill="#FFF" fill-rule="nonzero" stroke="#979797" stroke-width="2" d="M25.366 32.202l7.566 13.105 2.072-4.192a2 2 0 0 1 1.922-1.11l4.666.302-7.566-13.105-8.66 5z"/>
        <path fill="#FFF" fill-rule="nonzero" stroke="#979797" stroke-width="2" d="M24.386 36.08l-.662.443a2 2 0 0 1-2.778-.553l-.442-.663a2 2 0 0 0-2.057-.852l-.782.156a2 2 0 0 1-2.355-1.573l-.154-.782a2 2 0 0 0-1.575-1.575l-.782-.155a2 2 0 0 1-1.574-2.355l.157-.781a2 2 0 0 0-.853-2.058l-.663-.442a2 2 0 0 1-.553-2.778l.444-.662a2 2 0 0 0 0-2.227l-.444-.662a2 2 0 0 1 .553-2.778l.663-.442a2 2 0 0 0 .853-2.058l-.157-.781a2 2 0 0 1 1.574-2.356l.782-.154a2 2 0 0 0 1.575-1.575l.154-.782a2 2 0 0 1 2.355-1.574l.782.157a2 2 0 0 0 2.057-.852l.442-.664a2 2 0 0 1 2.778-.552l.662.444a2 2 0 0 0 2.228 0l.662-.444a2 2 0 0 1 2.778.552l.442.664a2 2 0 0 0 2.057.852l.782-.157a2 2 0 0 1 2.355 1.574l.154.782a2 2 0 0 0 1.575 1.575l.782.154a2 2 0 0 1 1.574 2.356l-.157.781a2 2 0 0 0 .853 2.058l.663.442a2 2 0 0 1 .553 2.778l-.444.662a2 2 0 0 0 0 2.227l.444.662a2 2 0 0 1-.553 2.778l-.663.442a2 2 0 0 0-.853 2.058l.157.781a2 2 0 0 1-1.574 2.355l-.782.155a2 2 0 0 0-1.575 1.575l-.154.782a2 2 0 0 1-2.355 1.573l-.782-.156a2 2 0 0 0-2.057.852l-.442.663a2 2 0 0 1-2.778.553l-.662-.444a2 2 0 0 0-2.228 0z"/>
        <text fill="#979797" font-family="Roboto-Bold, Roboto" font-size="18" font-weight="bold" transform="translate(8 3)">
            <tspan x="12" y="22.836">2</tspan>
        </text>
    </g>
</svg>
