<svg xmlns="http://www.w3.org/2000/svg" width="50" height="50" viewBox="0 0 50 50">
    <g fill="none" fill-rule="evenodd">
        <path fill="#FF4D35" fill-rule="nonzero" d="M43.288 7.08a3.344 3.344 0 0 0-2.515-1.124h-3.182v-.961c0-1.19-1.002-2.159-2.234-2.159h-21.58c-1.231 0-2.233.969-2.233 2.158v.962H8.362c-.97 0-1.887.41-2.515 1.123a3.07 3.07 0 0 0-.737 2.546c.836 4.967 4.072 9.356 8.664 11.763.42.974.895 1.897 1.424 2.757 1.69 2.748 3.791 4.647 6.104 5.566.235 2.29-1.342 4.459-3.717 4.976-.477.11-.823.512-.823.993v4.672h-1.955c-1.744 0-3.162 1.37-3.162 3.055v2.41c0 .563.471 1.02 1.054 1.02h23.838c.582 0 1.054-.457 1.054-1.02v-2.41c0-1.685-1.418-3.055-3.162-3.055h-1.956V35.68c0-.482-.346-.884-.811-.99-2.406-.524-3.986-2.715-3.727-5.022 2.273-.933 4.337-2.815 6.003-5.522.529-.86 1.004-1.784 1.424-2.759 4.592-2.407 7.827-6.795 8.663-11.762a3.07 3.07 0 0 0-.737-2.546zM7.19 9.297a1.072 1.072 0 0 1 .262-.9c.227-.257.558-.405.908-.405h3.183v1.873c0 2.938.388 5.784 1.124 8.386-2.891-2.206-4.881-5.412-5.477-8.954zm27.238 33.09c.581 0 1.054.457 1.054 1.019V44.8h-21.73v-1.393c0-.562.473-1.018 1.054-1.018h19.622zm-4.064-5.69v3.654H18.87v-3.654h11.494zm-8.73-2.036c.26-.277.499-.578.712-.9a6.464 6.464 0 0 0 1.088-3.495c.374.05.752.076 1.133.076.415 0 .826-.03 1.232-.089a6.582 6.582 0 0 0 1.81 4.408h-5.975zM35.483 9.866c0 5.017-1.193 9.719-3.358 13.239-2.063 3.354-4.747 5.201-7.557 5.201-2.81 0-5.495-1.847-7.558-5.2-2.165-3.521-3.358-8.223-3.358-13.24V4.995c0-.067.057-.121.126-.121h21.58c.069 0 .125.055.125.121v4.872zm6.461-.568c-.596 3.542-2.586 6.747-5.476 8.954.735-2.602 1.123-5.448 1.123-8.386V7.993h3.182c.35 0 .682.148.909.406.224.254.317.574.262.9z"/>
        <text fill="#FF4E36" font-family="Roboto-Bold, Roboto" font-size="18" font-weight="bold" transform="translate(5 2)">
            <tspan x="15" y="19.836">1</tspan>
        </text>
    </g>
</svg>
