<svg xmlns="http://www.w3.org/2000/svg" xmlns:xlink="http://www.w3.org/1999/xlink" width="50" height="50" viewBox="0 0 50 50">
    <defs>
        <rect id="b" width="450" height="222" rx="10"/>
        <filter id="a" width="110%" height="120.3%" x="-5%" y="-8.8%" filterUnits="objectBoundingBox">
            <feOffset dy="3" in="SourceAlpha" result="shadowOffsetOuter1"/>
            <feGaussianBlur in="shadowOffsetOuter1" result="shadowBlurOuter1" stdDeviation="7"/>
            <feColorMatrix in="shadowBlurOuter1" values="0 0 0 0 0 0 0 0 0 0 0 0 0 0 0 0 0 0 0.1 0"/>
        </filter>
    </defs>
    <g fill="none" fill-rule="evenodd">
        <path fill="#FFF" d="M-406-338h1920v1437H-406z"/>
        <g transform="translate(-46 -24)">
            <use fill="#000" filter="url(#a)" xlink:href="#b"/>
            <use fill="#FFF" xlink:href="#b"/>
        </g>
        <g fill="#A6A6A6">
            <path fill-rule="nonzero" d="M49 8.213c0-2.805-2.205-4.978-5.186-5.17L15.29 3.027c-2.853 0-5.187 2.334-5.187 5.186L10 34H0v6c0 2.852 2.04 5.714 5.152 5.973h28.29c4.512 0 6.558-3.65 6.558-7.02V16.857h9V8.213zM2 40.787V36h26v4.787c0 1.37 1.157 2.56 2 3.457C19.305 44.081 11.305 44 6 44c-2.074-.173-4-1.312-4-3.213zm31.528 3.457c-2.074-.173-3.544-1.556-3.544-3.457V34H12l-.167-25.787a3.468 3.468 0 0 1 3.457-3.457h23.845c-.113.118-.22.242-.32.37-.608.757-.748 1.717-.806 2.792a5.284 5.284 0 0 0-.009.295v31.71c0 2.42-2.138 4.321-4.472 4.321zM40 15.128v-7.27c0-.07.002-.138.006-.205 0-.014.002-.026.003-.04a3.66 3.66 0 0 1 .013-.16l.005-.035c.007-.054.014-.107.023-.16l.006-.03c.01-.053.02-.106.032-.158l.007-.03.04-.15.011-.036.046-.137.017-.046.046-.116.03-.065a3.251 3.251 0 0 1 .184-.349c.536-.855.93-1.03 1.882-1.266a4.569 4.569 0 0 1 1.03-.119c1.902 0 3.89 1.21 3.89 3.457v6.915H40z"/>
            <text font-family="Roboto-Bold, Roboto" font-size="18" font-weight="bold" transform="translate(-.403 3)">
                <tspan x="20.403" y="23.836">3</tspan>
            </text>
        </g>
        <g transform="translate(35 2)">
            <circle cx="8" cy="8" r="8" fill="#12A454"/>
            <path fill="#FFF" fill-rule="nonzero" d="M12.82 5.104l-.878-.915A.585.585 0 0 0 11.503 4a.585.585 0 0 0-.438.189L6.832 8.613 4.935 6.626a.585.585 0 0 0-.438-.188.585.585 0 0 0-.439.188l-.877.916A.638.638 0 0 0 3 8c0 .18.06.332.18.458l2.336 2.438.878.915c.12.126.266.189.438.189a.585.585 0 0 0 .439-.189l.877-.915L12.82 6.02A.638.638 0 0 0 13 5.562c0-.18-.06-.332-.18-.458z"/>
        </g>
    </g>
</svg>
