<?xml version="1.0" encoding="UTF-8"?>
<svg width="20px" height="20px" viewBox="0 0 20 20" version="1.1" xmlns="http://www.w3.org/2000/svg" xmlns:xlink="http://www.w3.org/1999/xlink">
    <!-- Generator: Sketch 51.1 (57501) - http://www.bohemiancoding.com/sketch -->
    <title>twitter red</title>
    <desc>Created with Sketch.</desc>
    <defs></defs>
    <g id="Page-1" stroke="none" stroke-width="1" fill="none" fill-rule="evenodd">
        <g id="Group-4-Copy" transform="translate(-35.000000, 0.000000)" fill="#FF4D35" fill-rule="nonzero">
            <g id="Group-15" transform="translate(35.000000, 0.000000)">
                <path d="M19.4058832,3.90579655 C19.378025,3.87260153 19.332059,3.86133535 19.2928586,3.87944172 C18.7120152,4.13997234 18.1009257,4.32727273 17.4715295,4.4379228 C18.1397282,3.92973721 18.637594,3.22600277 18.8928944,2.41906199 C18.9052317,2.38043506 18.8924965,2.33818685 18.8612555,2.3130391 C18.8298155,2.28789136 18.7862374,2.28467245 18.7518126,2.30539419 C17.9992433,2.75664529 17.1841921,3.07471394 16.3281495,3.25115051 C15.5696106,2.45527474 14.5104021,2 13.4141821,2 C11.1847304,2 9.37116182,3.83357224 9.37116182,6.08741355 C9.37116182,6.36001509 9.39722913,6.63000126 9.44896578,6.89214133 C6.36108367,6.69940903 3.47378058,5.20060355 1.51057366,2.76610084 C1.49047596,2.74115428 1.46003093,2.72727273 1.42819299,2.73049164 C1.39655404,2.73290582 1.36829787,2.7510122 1.3523789,2.77857412 C0.994202087,3.39982397 0.804965337,4.11059977 0.804965337,4.83364768 C0.804965337,6.08681001 1.36809888,7.25849365 2.32701781,8.03163586 C1.83333077,7.97168364 1.35118498,7.81456054 0.916398124,7.57052685 C0.887147017,7.55382874 0.850732374,7.55402993 0.821481268,7.57113039 C0.792230161,7.58802967 0.773724359,7.61941406 0.772928411,7.65361499 L0.772530437,7.70592229 C0.772530437,9.50569596 1.9455595,11.0859801 3.61446447,11.6106626 C3.17490192,11.6822834 2.71882345,11.677455 2.27050547,11.5909468 C2.23747361,11.5847102 2.20284985,11.5961775 2.18016532,11.6219288 C2.15767977,11.6476801 2.15011826,11.6836917 2.16046559,11.7162832 C2.6609182,13.2955614 4.05144018,14.403068 5.67000141,14.5410788 C4.31987381,15.5411543 2.72399711,16.0680498 1.03778027,16.0680498 C0.727161373,16.0680498 0.414353622,16.0493399 0.107913459,16.0129259 C0.0641362931,16.0078964 0.0207571012,16.0342512 0.00563408017,16.0767006 C-0.00948894088,16.1195524 0.00662901576,16.1674337 0.0444365684,16.1917767 C1.86914845,17.3749277 3.97900887,18 6.14617758,18 C13.2350937,18 17.4711315,12.1781969 17.4711315,6.54993084 C17.4711315,6.39321011 17.4681467,6.2372941 17.4619781,6.08178046 C18.2266856,5.51625802 18.8831441,4.82399095 19.4124498,4.02268326 C19.4361293,3.98687288 19.4335425,3.93919276 19.4058832,3.90579655 Z" id="Shape-Copy-3"></path>
            </g>
        </g>
    </g>
</svg>