<svg xmlns="http://www.w3.org/2000/svg" width="21" height="21" viewBox="0 0 21 21">
    <g fill="none" fill-rule="evenodd">
        <rect width="21" height="21" fill="#7D3DAF" rx="5"/>
        <g fill="#FFF" fill-rule="nonzero">
            <path d="M17.19 6.895l-.004-.016c-.322-1.317-1.776-2.73-3.11-3.023l-.015-.003a17.113 17.113 0 0 0-6.506 0l-.015.003C6.205 4.15 4.752 5.562 4.43 6.88l-.004.016a12.99 12.99 0 0 0 0 5.54l.003.017c.31 1.26 1.654 2.608 2.94 2.978v1.47c0 .532.64.793 1.006.41l1.474-1.548a16.996 16.996 0 0 0 4.212-.284l.015-.003c1.334-.294 2.788-1.707 3.11-3.023l.004-.016a12.99 12.99 0 0 0 0-5.541zm-1.166 5.274c-.216.86-1.32 1.927-2.196 2.124-1.148.22-2.304.315-3.46.282a.082.082 0 0 0-.061.025L9.23 15.716l-1.145 1.187a.134.134 0 0 1-.23-.094v-2.434a.084.084 0 0 0-.069-.082c-.877-.197-1.98-1.265-2.195-2.124a11.788 11.788 0 0 1 0-5.008c.215-.858 1.318-1.926 2.195-2.123a15.938 15.938 0 0 1 6.041 0c.877.197 1.98 1.265 2.196 2.123.359 1.662.359 3.347 0 5.008z"/>
            <path d="M12.715 13.293c-.135-.041-.263-.07-.382-.12-1.237-.517-2.374-1.186-3.275-2.21-.513-.583-.914-1.24-1.253-1.936-.16-.33-.296-.674-.434-1.014-.126-.311.06-.632.255-.866.183-.22.419-.388.674-.512.2-.097.396-.041.542.13.314.369.603.756.838 1.184.144.263.104.585-.157.764-.063.043-.121.094-.18.144a.594.594 0 0 0-.136.145.4.4 0 0 0-.026.348c.321.893.864 1.588 1.754 1.962.142.06.285.13.449.11.275-.032.364-.337.556-.496a.52.52 0 0 1 .632-.028c.202.13.399.269.594.41.192.138.383.273.56.43.17.151.229.35.133.555-.176.376-.43.69-.799.889-.104.056-.228.074-.345.11-.135-.04.117-.036 0 0zM10.811 6.205c1.617.046 2.945 1.13 3.23 2.744.048.275.065.557.087.836.01.117-.057.229-.182.23-.13.002-.188-.108-.197-.225-.016-.232-.028-.466-.06-.696-.167-1.217-1.127-2.224-2.326-2.44-.18-.032-.365-.04-.548-.06-.115-.012-.267-.02-.292-.164-.022-.122.08-.219.194-.225.032-.002.063 0 .094 0 1.617.046-.031 0 0 0z"/>
            <path d="M13.268 9.422c-.002.02-.004.069-.016.114-.042.164-.289.184-.345.019a.498.498 0 0 1-.02-.158c0-.346-.075-.691-.247-.992a1.836 1.836 0 0 0-.767-.727 2.19 2.19 0 0 0-.611-.19c-.092-.015-.186-.024-.278-.037-.112-.016-.172-.088-.167-.2a.175.175 0 0 1 .194-.174c.37.022.73.103 1.059.28.67.358 1.054.924 1.166 1.68.005.035.013.069.016.103.006.085.01.17.016.282-.002.02-.006-.112 0 0z"/>
            <path d="M12.263 9.383c-.136.002-.208-.073-.222-.199-.01-.087-.017-.176-.038-.26a.735.735 0 0 0-.268-.426.697.697 0 0 0-.218-.106c-.1-.029-.203-.021-.302-.046-.107-.026-.167-.114-.15-.216a.195.195 0 0 1 .205-.158c.627.046 1.075.373 1.139 1.119.004.052.01.108-.002.158-.02.086-.083.13-.144.134-.136.002.061-.004 0 0z"/>
        </g>
    </g>
</svg>
