<?xml version="1.0" encoding="UTF-8"?>
<svg width="25px" height="20px" viewBox="0 0 25 20" version="1.1" xmlns="http://www.w3.org/2000/svg" xmlns:xlink="http://www.w3.org/1999/xlink">
    <!-- Generator: Sketch 51.1 (57501) - http://www.bohemiancoding.com/sketch -->
    <title>vk red</title>
    <desc>Created with Sketch.</desc>
    <defs></defs>
    <g id="Page-1" stroke="none" stroke-width="1" fill="none" fill-rule="evenodd">
        <g id="Group-4-Copy" transform="translate(-70.000000, 0.000000)" fill="#FF4D35" fill-rule="nonzero">
            <g id="Group-16" transform="translate(70.000000, 0.000000)">
                <path d="M24.4030522,15.6435366 C24.3733454,15.5795022 24.3456518,15.5263863 24.3199267,15.483831 C23.8942778,14.7170736 23.080874,13.7759332 21.8802076,12.6601413 L21.8548404,12.6345902 L21.8421345,12.6220607 L21.8292944,12.6092181 L21.8164095,12.6092181 C21.2714858,12.0896488 20.9264122,11.740301 20.7819045,11.5614431 C20.5174957,11.2207317 20.458261,10.8758587 20.6027686,10.5264214 C20.7048635,10.2624081 21.0883681,9.70484772 21.7523876,8.85297963 C22.1016667,8.40151684 22.3782893,8.03968434 22.5825686,7.76707939 C24.0558758,5.80801101 24.6946177,4.55614036 24.4986599,4.01097521 L24.4225585,3.8835776 C24.3714216,3.80687949 24.2394409,3.73671459 24.0267954,3.67272492 C23.8136577,3.60886949 23.5412406,3.59830896 23.2090519,3.64086433 L19.5304143,3.6662812 C19.4708216,3.64516014 19.3857276,3.64712905 19.2748639,3.67272492 C19.1641343,3.69832079 19.1087471,3.71116347 19.1087471,3.71116347 L19.0447253,3.7431583 L18.9939016,3.78159686 C18.9513098,3.80701373 18.9044679,3.85171701 18.8533309,3.91561718 C18.8024624,3.97929361 18.7599154,4.05402281 18.7259136,4.1391783 C18.3254081,5.16976998 17.8700524,6.12795936 17.3589962,7.0137017 C17.0438979,7.5418626 16.7545247,7.99959011 16.4902501,8.38715273 C16.2263334,8.7745811 16.004919,9.06002873 15.8262306,9.24300339 C15.6472737,9.42615704 15.4857651,9.5728858 15.3407206,9.68372665 C15.1958997,9.79461225 15.0853491,9.84146343 15.0088003,9.82432494 C14.9320725,9.80718644 14.8598187,9.7901822 14.7914124,9.77317795 C14.6722719,9.69647984 14.5764405,9.5921722 14.5041866,9.46016554 C14.4316196,9.32815887 14.3827644,9.16200947 14.3572183,8.96185157 C14.3318064,8.76155942 14.316774,8.58927954 14.3124791,8.4444302 C14.3084973,8.29975984 14.3103316,8.09512714 14.3189663,7.83111381 C14.3278246,7.56696624 14.3318064,7.38824264 14.3318064,7.29454029 C14.3318064,6.9708331 14.3381146,6.61951638 14.3507758,6.24050064 C14.3636607,5.8614849 14.374085,5.56118092 14.3828091,5.33994671 C14.3914885,5.11848875 14.3955151,4.88418811 14.3955151,4.63717903 C14.3955151,4.39016995 14.3804827,4.19645576 14.3507758,4.05585748 C14.3214269,3.91543819 14.2763745,3.77913571 14.2170056,3.64699481 C14.1572787,3.51498814 14.0698583,3.41287316 13.9551469,3.34038136 C13.8402119,3.26797906 13.6973148,3.2105226 13.527261,3.16783299 C13.075887,3.06567326 12.5011223,3.01040945 11.8026983,3.00181783 C10.2188852,2.98481358 9.20120217,3.08710756 8.74987292,3.30856552 C8.57105026,3.40213363 8.4092285,3.52997873 8.26454186,3.69169808 C8.11122055,3.87914754 8.08983521,3.98144152 8.20052004,3.99826678 C8.71153141,4.07483064 9.07329274,4.25798429 9.28620668,4.54754874 L9.36293445,4.70098971 C9.42261657,4.81169631 9.48220921,5.00769265 9.54184659,5.28871022 C9.60139449,5.5697278 9.63982548,5.8805923 9.6567369,6.22112475 C9.69923916,6.842988 9.69923916,7.37531047 9.6567369,7.81813689 C9.61410043,8.2611423 9.57383513,8.6060153 9.53540414,8.85302438 C9.49697315,9.10003346 9.43952799,9.30019136 9.36293445,9.45345333 C9.28620668,9.60676006 9.23515923,9.70046241 9.2095684,9.73447091 C9.18402231,9.7684794 9.16272644,9.78991371 9.14581501,9.79832634 C9.03513018,9.84074746 8.92001617,9.86236075 8.80087563,9.86236075 C8.68155613,9.86236075 8.53686949,9.80266689 8.36659202,9.68336867 C8.19635929,9.56407044 8.01968411,9.40020319 7.83656648,9.19149842 C7.65344886,8.98274889 7.44693262,8.69103654 7.21692829,8.31631661 C6.98710292,7.94159668 6.74864288,7.49872551 6.50168238,6.9877031 L6.29735837,6.61709999 C6.16962789,6.37868253 5.99514494,6.03152738 5.77373054,5.57594777 C5.55218192,5.12018917 5.35635835,4.67933166 5.18612562,4.25346474 C5.11807727,4.0746069 5.01584815,3.93843867 4.87961723,3.84473631 L4.81568488,3.80629776 C4.77318262,3.77228927 4.70495531,3.73617761 4.61136087,3.69769431 C4.5176322,3.65925576 4.41983227,3.63169098 4.31755841,3.61473148 L0.817653982,3.64014836 C0.460008658,3.64014836 0.21734313,3.72118703 0.0895679181,3.88304062 L0.0384309898,3.95960449 C0.0128848953,4.00224935 0,4.07035584 0,4.16410294 C0,4.2578053 0.0255460945,4.37280772 0.0766830228,4.50897595 C0.587604913,5.71001284 1.14322128,6.86831538 1.74353214,7.98406255 C2.34384299,9.09980972 2.86550229,9.99857373 3.30819687,10.6795491 C3.75098093,11.3610167 4.20231018,12.0041801 4.66218462,12.6087258 C5.12205906,13.2134953 5.42646471,13.601058 5.57540157,13.7713242 C5.72451739,13.9419036 5.84164467,14.0694355 5.92678341,14.154591 L6.2461767,14.4611597 C6.45054545,14.6656134 6.75065614,14.9104746 7.14664297,15.1957432 C7.54271929,15.4811908 7.98120838,15.7622084 8.46233395,16.0392434 C8.943549,16.3158309 9.50337086,16.5415399 10.1421127,16.716102 C10.7807651,16.890843 11.4023718,16.9609632 12.0070223,16.9271336 L13.4759899,16.9271336 C13.7739083,16.9014035 13.9996177,16.8077012 14.1530285,16.6459818 L14.2038522,16.5819474 C14.238033,16.5311137 14.2700216,16.4521334 14.2995494,16.3458568 C14.3294352,16.2394013 14.3442887,16.1221167 14.3442887,15.9945401 C14.3355645,15.6283671 14.363437,15.2983504 14.4271457,15.0045349 C14.4908096,14.7108089 14.5633766,14.4893509 14.6445336,14.3402058 C14.7256458,14.1911949 14.8171822,14.0654529 14.9190534,13.9635169 C15.0211483,13.8613572 15.0938943,13.7994707 15.1365755,13.7781706 C15.1789883,13.7567363 15.2128559,13.7421932 15.238402,13.7334673 C15.4427707,13.6653609 15.6832888,13.7313194 15.960314,13.9316563 C16.2371156,14.1318142 16.4967373,14.3789576 16.7395818,14.6726836 C16.982292,14.9666781 17.2739023,15.2965157 17.6144572,15.6626888 C17.9552358,16.0289961 18.253199,16.3012878 18.5085705,16.4804141 L18.763942,16.6337209 C18.9344879,16.7360148 19.1559023,16.8297172 19.4284536,16.9148727 C19.7005128,16.9999834 19.9388834,17.0212835 20.1435653,16.9787281 L23.4134207,16.9277154 C23.7368405,16.9277154 23.9884986,16.874152 24.1670081,16.7678754 C24.3458755,16.6614199 24.4521311,16.5441353 24.4864014,16.4165587 C24.5205821,16.2888479 24.5224164,16.1439538 24.4928885,15.9819659 C24.4626001,15.8203808 24.432759,15.7073921 24.4030522,15.6435366 Z" id="Shape"></path>
            </g>
        </g>
    </g>
</svg>