<svg width="1440" height="280" viewBox="0 0 1440 280" fill="none" xmlns="http://www.w3.org/2000/svg">
<g clip-path="url(#clip0_5069_223081)">
<rect width="1440" height="280" fill="#E6E7E8"/>
<path d="M1281 689.5L1684.5 -428H1073L676 689.5H1281Z" fill="white"/>
<path opacity="0.2" d="M1293.41 523L1465 48H1027.4L822 523H1293.41Z" fill="url(#paint0_linear_5069_223081)"/>
<path d="M891.956 148L1068 -340H801.208L628 148H891.956Z" fill="white"/>
<path d="M411.956 684L588 196H321.208L148 684H411.956Z" fill="white"/>
<path d="M1342 131H1269.93L1187 361H1259.63L1342 131Z" fill="#EE2A24"/>
<path d="M645 -87H543.532L470 117H571.968L645 -87Z" fill="#EE2A24"/>
<path d="M562.799 -15.9403L524 -122H611.298L650.097 -15.9403L611.298 87H524L562.799 -15.9403Z" fill="url(#paint1_linear_5069_223081)"/>
<path d="M662.3 -20.6194L626.63 -122H635.704L672 -20.6194L635.704 87H626.63L662.3 -20.6194Z" fill="url(#paint2_linear_5069_223081)"/>
</g>
<defs>
<linearGradient id="paint0_linear_5069_223081" x1="1191.98" y1="47.7875" x2="1013.1" y2="510.945" gradientUnits="userSpaceOnUse">
<stop stop-color="#CFCFCF"/>
<stop offset="1"/>
</linearGradient>
<linearGradient id="paint1_linear_5069_223081" x1="672" y1="-37.5962" x2="524" y2="-37.5962" gradientUnits="userSpaceOnUse">
<stop stop-color="#969696"/>
<stop offset="1" stop-color="#E6E7E8"/>
</linearGradient>
<linearGradient id="paint2_linear_5069_223081" x1="672" y1="-37.5962" x2="524" y2="-37.5962" gradientUnits="userSpaceOnUse">
<stop stop-color="#969696"/>
<stop offset="1" stop-color="#E6E7E8"/>
</linearGradient>
<clipPath id="clip0_5069_223081">
<rect width="1440" height="280" fill="white"/>
</clipPath>
</defs>
</svg>
