<svg width="122" height="28" viewBox="0 0 122 28" fill="none" xmlns="http://www.w3.org/2000/svg">
<path d="M118.132 28H5.21875L6.28031 25.3237H119.212L118.132 28Z" fill="#EE2A24"/>
<path d="M116.044 20.9233C115.522 20.9233 115.702 20.3305 115.702 20.3305L117.412 16.3284H112.41L111.492 18.4658H114.047L112.985 20.9265H101.958C101.4 20.9445 101.526 20.4955 101.526 20.4955L103.049 16.3284H100.68L99.0067 20.8367C98.9522 20.9599 98.8544 21.059 98.7318 21.1153C98.6092 21.1715 98.4702 21.181 98.341 21.1421C97.9092 21.0131 98.1414 20.4105 98.1414 20.4105L99.5089 16.3284H97.1355L95.5881 20.9265H85.9621C86.5738 18.7532 84.8286 17.8911 84.8286 17.8911C90.7481 12.1582 85.8901 7.67436 85.8901 7.67436L80.2421 20.9282H69.4285C68.4209 20.9282 68.7448 20.4073 68.9378 20.2456C69.7835 19.4733 73.274 16.3268 73.274 16.3268H70.2382L67.0715 19.003L70.8499 10.1498H67.9057L63.8328 20.9004H51.9594C51.8642 20.9018 51.7711 20.873 51.6935 20.8181C51.6158 20.7632 51.5577 20.6851 51.5275 20.5951C51.458 20.381 51.4318 20.1553 51.4503 19.9311C51.4688 19.7069 51.5318 19.4885 51.6355 19.2888C52.0133 18.5164 52.805 18.1458 53.4347 18.4446C53.6107 18.5367 53.7596 18.6728 53.8668 18.8397C53.9741 19.0066 54.036 19.1985 54.0465 19.3965H56.0093C56.0273 18.0903 55.4515 16.8999 54.39 16.3791C52.7886 15.6067 50.7195 16.5766 49.7659 18.5703C49.4066 19.2939 49.2452 20.0994 49.2981 20.9053H40.9659C41.6496 18.9834 41.0558 17.0257 39.5085 16.3431C37.8728 15.6426 35.802 16.6697 34.9285 18.6781C34.6131 19.3753 34.4631 20.1358 34.4902 20.9004H26.5734C25.188 20.8106 25.6378 19.4308 25.6378 19.4308L30.6038 7.885H26.9513L23.2988 16.9179C22.1293 19.3067 21.0677 19.9533 20.8452 20.0432C19.046 20.7616 19.3878 18.5736 19.3878 18.5736C28.8045 9.12433 22.6151 0 22.6151 0L16.0837 18.0674C6.85518 22.0548 2.429 16.7611 2.429 16.7611L0 21.6237C8.2586 26.4913 15.6519 21.1927 15.6519 21.1927C16.2457 22.9708 17.0553 23.7432 17.919 23.9408C20.4559 24.4077 22.2552 21.7136 22.2552 21.7136C22.813 23.4199 24.2524 23.5815 24.4503 23.5815H32.0252C33.9324 23.5815 34.7781 22.3961 34.814 22.3961C35.0811 22.9411 35.5332 23.3739 36.0899 23.6174C37.3674 24.1742 38.9687 23.6354 40.0303 22.414C40.4261 23.5276 41.3977 23.5815 41.3977 23.5815H47.4072C48.5228 23.5815 49.5843 22.4679 49.6383 22.414C49.9082 22.917 50.358 23.5456 51.1104 23.5815H60.9687C61.9223 23.5815 63.2358 22.3961 63.2358 22.3961L62.7451 23.5815H65.0481L65.8578 21.6776C66.4156 23.348 67.747 23.5815 67.909 23.5815H78.0225C79.4799 23.5995 80.4515 22.3961 80.4515 22.3961C80.9912 23.4019 81.585 23.7432 82.2327 23.815C83.8864 23.9946 84.9839 22.7553 84.9839 22.7553C85.035 22.976 85.1548 23.1748 85.3261 23.3233C85.4975 23.4717 85.7115 23.5621 85.9376 23.5815H93.1526C94.0571 23.5012 94.9013 23.0949 95.5276 22.4385C95.8695 23.5162 96.6726 23.7677 97.2369 23.8395C98.8023 23.9473 99.6119 22.4206 99.6119 22.4206C100.152 23.4623 101.051 23.606 101.267 23.606H110.918C111.307 23.5732 111.683 23.4486 112.014 23.2425C112.346 23.0364 112.624 22.7547 112.825 22.4206C113.131 23.4003 113.707 23.606 113.995 23.606H119.968L121.102 20.9477H116.031L116.044 20.9233ZM22.9389 8.17238C22.9389 8.17238 23.7486 11.2438 20.3218 14.8883L22.9389 8.17238ZM38.9147 20.3126C38.5729 21.0849 37.7452 21.4801 37.1335 21.2106C36.5217 20.9412 36.3156 20.115 36.6656 19.3427C37.0157 18.5703 37.7812 18.1997 38.4109 18.4626C39.0407 18.7254 39.2566 19.5582 38.9147 20.3126ZM86.106 11.9965C86.106 11.9965 85.9981 15.3487 83.785 17.2592L86.106 11.9965ZM84.4703 20.6718C84.2904 21.3004 83.6967 21.6776 83.1618 21.5339C82.6269 21.3902 82.3178 20.7436 82.4977 20.115C82.6776 19.4864 83.2697 19.1092 83.8063 19.2529C84.3428 19.3965 84.6486 20.0432 84.4687 20.6718H84.4703Z" fill="#EE2A24"/>
</svg>
