<svg width="143" height="119" viewBox="0 0 143 119" fill="none" xmlns="http://www.w3.org/2000/svg">
<path opacity="0.1" fill-rule="evenodd" clip-rule="evenodd" d="M85.9843 -46.8599C109.39 -48.8475 126.455 -29.264 141.905 -15.3632C154.533 -4.00234 162.509 9.77983 165.473 24.657C168.089 37.7909 160.262 49.9395 157.527 63.0585C154.106 79.4689 164.757 101.424 147.456 111.077C130.112 120.754 107.249 102.009 85.9843 102.975C62.373 104.048 39.9195 125.687 19.0975 116.91C-1.02983 108.425 0.030244 84.6201 0.00293705 66.7297C-0.0187781 52.5029 12.0901 40.9981 18.9615 27.8265C25.1584 15.948 28.8145 3.94043 38.2369 -6.55946C52.0277 -21.9271 62.1277 -44.8339 85.9843 -46.8599Z" fill="#FF90BF"/>
</svg>
