<svg width="94" height="88" viewBox="0 0 94 88" fill="none" xmlns="http://www.w3.org/2000/svg">
<g filter="url(#filter0_d)">
<circle cx="48" cy="40" r="24" fill="#1D4F9B"/>
</g>
<g clip-path="url(#clip0)">
<path d="M37.9844 39.5615C37.9844 45.3085 42.6601 50.0105 48.4149 50.0105C54.1697 50.0105 58.8454 45.3411 58.8454 39.5615C58.8454 37.5044 58.2569 35.5125 57.1124 33.7819L56.3277 33.7493L56.295 33.8146C57.5375 35.4799 58.1588 37.4717 58.1588 39.5615C58.1588 44.9166 53.81 49.2921 48.4476 49.2921C43.0525 49.2921 38.7037 44.9166 38.7037 39.5615C38.7037 34.2064 43.0852 29.8309 48.4476 29.8309C50.5402 29.8309 52.5021 30.484 54.2024 31.7248L54.2678 31.6595L54.2351 30.8758C52.5348 29.7329 50.5402 29.1452 48.4803 29.1452C42.6928 29.1125 37.9844 33.8146 37.9844 39.5615Z" fill="white"/>
<path d="M42.0391 39.5615C42.0391 43.088 44.9164 45.9615 48.4478 45.9615C51.9791 45.9615 54.8565 43.088 54.8565 39.5615C54.8565 38.386 54.5295 37.2431 53.9083 36.2309L53.3851 36.7533C53.8756 37.6023 54.1372 38.5819 54.1372 39.5942C54.1372 42.7288 51.5867 45.3084 48.4478 45.3084C45.3088 45.3084 42.7584 42.7615 42.7584 39.5942C42.7584 36.4268 45.3088 33.8799 48.4478 33.8799C49.4287 33.8799 50.4096 34.1411 51.2598 34.6309L51.7829 34.1084C50.7693 33.488 49.6249 33.1615 48.4478 33.1615C44.9164 33.1615 42.0391 36.035 42.0391 39.5615Z" fill="white"/>
<path d="M55.0532 30.5166L55.1186 31.9206L49.7889 37.2431C49.3965 37.0145 48.906 36.8839 48.4156 36.8839C46.9442 36.8839 45.7344 38.0921 45.7344 39.5615C45.7344 41.0308 46.9442 42.239 48.4156 42.239C49.887 42.239 51.0968 41.0308 51.0968 39.5615C51.0968 39.0717 50.966 38.5819 50.7371 38.19L56.0341 32.9002L57.4401 32.9655L61.9851 28.4268L59.6635 28.3288L59.5654 25.9778L55.0532 30.5166Z" fill="white"/>
</g>
<path fill-rule="evenodd" clip-rule="evenodd" d="M13.0152 21.5L13.0142 21.5L13.0113 21.5L13.0064 21.5002L12.9996 21.5004L12.9908 21.5008L12.9801 21.5014L12.9675 21.5022L12.953 21.5033L12.9366 21.5047L12.9182 21.5064L12.898 21.5086L12.8759 21.5111L12.852 21.5141L12.8262 21.5176L12.7986 21.5217L12.7692 21.5263L12.738 21.5315L12.7051 21.5373L12.6704 21.5438L12.634 21.5509L12.596 21.5589L12.5562 21.5675L12.5149 21.577L12.4719 21.5873L12.4274 21.5984L12.3813 21.6104L12.3337 21.6233L12.2846 21.6372L12.2341 21.652L12.1821 21.6677L12.1288 21.6845L12.0742 21.7023L12.0182 21.7211L11.961 21.7411L11.9025 21.762L11.8429 21.7841L11.7821 21.8073L11.7202 21.8317L11.6572 21.8572L11.5932 21.8838L11.5282 21.9117L11.4623 21.9407L11.3955 21.9709L11.3279 22.0023L11.2594 22.0349L11.1902 22.0687L11.1202 22.1038L11.0496 22.14L10.9784 22.1775L10.9066 22.2162L10.8342 22.2562L10.7614 22.2974L10.6881 22.3398L10.6144 22.3834L10.5404 22.4282L10.466 22.4742L10.3914 22.5214L10.3166 22.5698L10.2417 22.6194L10.1666 22.6701L10.0914 22.722L10.0162 22.775L9.94107 22.8291L9.86596 22.8844L9.79096 22.9407L9.71611 22.9981L9.64146 23.0565L9.56704 23.116L9.49291 23.1764L9.41909 23.2378L9.34564 23.3002L9.27259 23.3635L9.19999 23.4277L9.12787 23.4927L9.05627 23.5586L8.98523 23.6253L8.91479 23.6928L8.84498 23.761L8.77584 23.8299L8.7074 23.8995L8.6397 23.9697L8.57278 24.0405L8.50665 24.1119L8.44135 24.1838L8.37692 24.2562L8.31338 24.3291L8.25076 24.4024L8.18908 24.476L8.12837 24.55L8.06866 24.6242L8.00997 24.6987L7.95232 24.7734L7.89572 24.8482L7.84021 24.9232L7.7858 24.9982L7.73251 25.0733L7.68035 25.1483L7.62934 25.2233L7.57949 25.2981L7.53081 25.3728L7.48332 25.4473L7.43702 25.5216L7.39193 25.5955L7.34805 25.6691L7.30538 25.7423L7.26393 25.8151L7.22371 25.8874L7.18471 25.9592L7.14694 26.0304L7.1104 26.101L7.07508 26.1709L7.04098 26.2401L7.00811 26.3085L6.97644 26.3762L6.94597 26.443L6.91671 26.5089L6.88863 26.5739L6.86172 26.6379L6.83598 26.7009L6.8114 26.7628L6.78795 26.8236L6.76562 26.8833L6.7444 26.9418L6.72426 26.9991L6.7052 27.0551L6.68718 27.1098L6.6702 27.1632L6.65422 27.2152L6.63922 27.2658L6.62519 27.315L6.61208 27.3627L6.59989 27.4088L6.58858 27.4535L6.57813 27.4965L6.5685 27.538L6.55966 27.5778L6.5516 27.616L6.54427 27.6525L6.53764 27.6873L6.53168 27.7204L6.52636 27.7517L6.52165 27.7812L6.51751 27.8089L6.5139 27.8349L6.5108 27.8589L6.50815 27.8812L6.50594 27.9015L6.50412 27.92L6.50265 27.9366L6.5015 27.9513L6.50062 27.964L6.49999 27.9749L6.49955 27.9838L6.49929 27.9908L6.49914 27.9958L6.49909 27.9989L6.49907 28L6.49907 27.9992L6.49904 27.9964L6.49893 27.9917L6.49872 27.985L6.49836 27.9764L6.49781 27.9659L6.49704 27.9534L6.49601 27.9391L6.49467 27.9228L6.493 27.9046L6.49095 27.8845L6.48848 27.8626L6.48557 27.8388L6.48217 27.8132L6.47825 27.7858L6.47378 27.7565L6.46871 27.7255L6.46302 27.6927L6.45668 27.6582L6.44964 27.622L6.44188 27.584L6.43337 27.5445L6.42407 27.5033L6.41396 27.4604L6.40301 27.416L6.39118 27.3701L6.37846 27.3227L6.36482 27.2737L6.35023 27.2234L6.33466 27.1716L6.3181 27.1184L6.30052 27.0639L6.2819 27.0081L6.26222 26.951L6.24146 26.8927L6.2196 26.8332L6.19664 26.7725L6.17254 26.7108L6.14729 26.648L6.12089 26.5841L6.09332 26.5193L6.06457 26.4535L6.03462 26.3869L6.00348 26.3194L5.97114 26.251L5.93757 26.182L5.9028 26.1121L5.8668 26.0417L5.82958 25.9706L5.79113 25.8989L5.75146 25.8267L5.71057 25.754L5.66846 25.6808L5.62513 25.6073L5.58059 25.5334L5.53485 25.4592L5.48792 25.3847L5.4398 25.3101L5.39051 25.2352L5.34005 25.1603L5.28844 25.0852L5.2357 25.0102L5.18184 24.9352L5.12687 24.8602L5.07083 24.7853L5.01371 24.7106L4.95555 24.6361L4.89637 24.5618L4.83618 24.4878L4.77502 24.4141L4.71291 24.3407L4.64988 24.2678L4.58594 24.1953L4.52114 24.1233L4.45549 24.0519L4.38904 23.9809L4.32181 23.9106L4.25384 23.8409L4.18515 23.7719L4.11578 23.7036L4.04577 23.636L3.97516 23.5692L3.90397 23.5032L3.83225 23.438L3.76004 23.3736L3.68738 23.3102L3.61429 23.2477L3.54084 23.1861L3.46705 23.1255L3.39297 23.0659L3.31864 23.0073L3.24411 22.9498L3.16941 22.8933L3.09459 22.8379L3.0197 22.7836L2.94478 22.7304L2.86987 22.6783L2.79503 22.6274L2.72028 22.5776L2.64569 22.529L2.5713 22.4816L2.49715 22.4354L2.42329 22.3904L2.34977 22.3466L2.27662 22.304L2.20391 22.2627L2.13167 22.2225L2.05995 22.1836L1.9888 22.1459L1.91826 22.1095L1.84838 22.0742L1.77921 22.0402L1.71078 22.0074L1.64315 21.9758L1.57635 21.9454L1.51044 21.9162L1.44545 21.8882L1.38144 21.8613L1.31843 21.8357L1.25648 21.8111L1.19563 21.7878L1.13591 21.7655L1.07736 21.7443L1.02004 21.7242L0.963964 21.7052L0.909185 21.6873L0.855736 21.6703L0.803653 21.6544L0.752973 21.6395L0.70373 21.6255L0.655957 21.6124L0.609687 21.6003L0.564953 21.589L0.521784 21.5786L0.480212 21.569L0.440264 21.5602L0.401968 21.5522L0.365351 21.5449L0.330439 21.5383L0.297255 21.5323L0.265822 21.527L0.236163 21.5224L0.208299 21.5182L0.182248 21.5147L0.158029 21.5116L0.135659 21.509L0.115153 21.5068L0.096527 21.5049L0.0797928 21.5035L0.0649624 21.5024L0.0520463 21.5015L0.0410538 21.5009L0.0319925 21.5004L0.0248689 21.5002L0.0196881 21.5L0.0164538 21.5L0.0151684 21.5L0.0158328 21.5L0.0184467 21.4999L0.0230084 21.4998L0.0295147 21.4996L0.0379612 21.4992L0.0483421 21.4987L0.0606503 21.4979L0.0748771 21.4969L0.0910128 21.4955L0.109046 21.4938L0.128965 21.4917L0.150755 21.4893L0.174401 21.4863L0.199887 21.4829L0.227196 21.479L0.256308 21.4745L0.287203 21.4694L0.31986 21.4636L0.354256 21.4573L0.390367 21.4502L0.42817 21.4424L0.467637 21.4339L0.508741 21.4245L0.551454 21.4144L0.595748 21.4034L0.64159 21.3915L0.688951 21.3787L0.737798 21.3651L0.788096 21.3504L0.839813 21.3348L0.892913 21.3182L0.94736 21.3006L1.00312 21.2819L1.06015 21.2621L1.11841 21.2413L1.17787 21.2194L1.23848 21.1964L1.3002 21.1722L1.363 21.1469L1.42683 21.1204L1.49165 21.0928L1.55742 21.064L1.62408 21.034L1.69161 21.0028L1.75995 20.9703L1.82906 20.9367L1.89889 20.9019L1.9694 20.8658L2.04055 20.8285L2.11228 20.79L2.18456 20.7502L2.25733 20.7092L2.33055 20.667L2.40417 20.6236L2.47815 20.579L2.55244 20.5332L2.62699 20.4861L2.70176 20.4379L2.7767 20.3885L2.85177 20.338L2.92692 20.2863L3.0021 20.2335L3.07728 20.1795L3.1524 20.1244L3.22741 20.0683L3.30229 20.0111L3.37698 19.9528L3.45143 19.8935L3.52562 19.8332L3.59949 19.772L3.673 19.7097L3.74611 19.6466L3.81879 19.5826L3.89099 19.5176L3.96268 19.4519L4.03381 19.3853L4.10435 19.318L4.17426 19.2499L4.24351 19.1811L4.31206 19.1116L4.37988 19.0415L4.44693 18.9707L4.51319 18.8994L4.57862 18.8276L4.64319 18.7553L4.70687 18.6825L4.76964 18.6093L4.83147 18.5357L4.89234 18.4618L4.95221 18.3876L5.01107 18.3131L5.06889 18.2385L5.12565 18.1636L5.18133 18.0887L5.23592 18.0137L5.28939 17.9386L5.34173 17.8636L5.39293 17.7886L5.44296 17.7137L5.49183 17.639L5.53951 17.5645L5.586 17.4902L5.63128 17.4162L5.67536 17.3425L5.71822 17.2692L5.75986 17.1964L5.80028 17.124L5.83947 17.0521L5.87744 16.9809L5.91417 16.9102L5.94969 16.8402L5.98398 16.7708L6.01705 16.7023L6.04891 16.6345L6.07957 16.5676L6.10902 16.5015L6.13729 16.4364L6.16438 16.3722L6.19031 16.3091L6.21508 16.247L6.2387 16.186L6.26121 16.1261L6.28261 16.0674L6.30291 16.0099L6.32215 15.9537L6.34033 15.8988L6.35748 15.8452L6.37361 15.7929L6.38877 15.7421L6.40295 15.6927L6.4162 15.6448L6.42854 15.5984L6.43999 15.5535L6.45058 15.5102L6.46034 15.4684L6.46929 15.4283L6.47748 15.3899L6.48493 15.3531L6.49166 15.3181L6.49772 15.2847L6.50314 15.2531L6.50795 15.2233L6.51218 15.1953L6.51587 15.1691L6.51905 15.1447L6.52177 15.1222L6.52405 15.1015L6.52593 15.0828L6.52745 15.0659L6.52865 15.0509L6.52957 15.0378L6.53024 15.0267L6.5307 15.0174L6.53099 15.0102L6.53115 15.0048L6.53122 15.0014L6.53124 15L6.53124 15.0005L6.53127 15.003L6.53136 15.0074L6.53155 15.0137L6.53188 15.022L6.5324 15.0322L6.53313 15.0444L6.53412 15.0585L6.53541 15.0744L6.53703 15.0923L6.53901 15.1121L6.54141 15.1337L6.54425 15.1572L6.54756 15.1826L6.5514 15.2097L6.55578 15.2387L6.56075 15.2694L6.56634 15.3019L6.57258 15.3362L6.5795 15.3721L6.58715 15.4098L6.59554 15.4491L6.60471 15.49L6.61469 15.5326L6.6255 15.5767L6.63719 15.6224L6.64976 15.6696L6.66326 15.7183L6.6777 15.7685L6.69311 15.82L6.70951 15.873L6.72692 15.9273L6.74538 15.9829L6.76489 16.0398L6.78547 16.0979L6.80715 16.1572L6.82994 16.2177L6.85386 16.2792L6.87892 16.3419L6.90514 16.4056L6.93252 16.4703L6.96109 16.5359L6.99084 16.6024L7.02179 16.6698L7.05394 16.738L7.08731 16.8069L7.12189 16.8766L7.1577 16.947L7.19473 17.018L7.23298 17.0896L7.27245 17.1617L7.31315 17.2344L7.35507 17.3075L7.3982 17.3809L7.44254 17.4548L7.48809 17.5289L7.53484 17.6034L7.58277 17.678L7.63187 17.7528L7.68215 17.8277L7.73357 17.9028L7.78613 17.9778L7.83982 18.0528L7.89461 18.1278L7.95049 18.2027L8.00744 18.2775L8.06543 18.352L8.12445 18.4264L8.18448 18.5004L8.24548 18.5742L8.30745 18.6476L8.37034 18.7205L8.43413 18.7931L8.4988 18.8652L8.56431 18.9367L8.63063 19.0078L8.69774 19.0782L8.7656 19.148L8.83418 19.2171L8.90344 19.2855L8.97335 19.3532L9.04387 19.4202L9.11497 19.4863L9.1866 19.5517L9.25874 19.6161L9.33133 19.6797L9.40435 19.7424L9.47775 19.8041L9.55149 19.8648L9.62552 19.9246L9.69982 19.9834L9.77432 20.0411L9.849 20.0977L9.9238 20.1533L9.99868 20.2078L10.0736 20.2612L10.1485 20.3134L10.2234 20.3645L10.2981 20.4145L10.3728 20.4633L10.4472 20.5108L10.5214 20.5572L10.5953 20.6024L10.6689 20.6464L10.7421 20.6892L10.8149 20.7308L10.8872 20.7711L10.959 20.8102L11.0302 20.8481L11.1009 20.8848L11.1708 20.9202L11.2401 20.9544L11.3087 20.9874L11.3764 21.0192L11.4434 21.0498L11.5094 21.0792L11.5746 21.1074L11.6387 21.1344L11.7019 21.1603L11.764 21.185L11.8251 21.2085L11.885 21.231L11.9437 21.2523L12.0012 21.2726L12.0575 21.2918L12.1125 21.3099L12.1662 21.327L12.2185 21.3431L12.2694 21.3582L12.3188 21.3723L12.3668 21.3855L12.4134 21.3978L12.4583 21.4092L12.5018 21.4198L12.5436 21.4295L12.5838 21.4384L12.6224 21.4466L12.6592 21.454L12.6944 21.4607L12.7279 21.4667L12.7596 21.4721L12.7895 21.4769L12.8177 21.4811L12.844 21.4848L12.8685 21.4879L12.8912 21.4906L12.912 21.4929L12.9309 21.4947L12.948 21.4962L12.9631 21.4974L12.9763 21.4983L12.9876 21.499L12.997 21.4995L13.0044 21.4997L13.0099 21.4999L13.0135 21.5L13.0151 21.5L13.0152 21.5Z" fill="#FF48A6"/>
<path fill-rule="evenodd" clip-rule="evenodd" d="M84.0152 65.5L84.0142 65.5L84.0113 65.5L84.0064 65.5002L83.9996 65.5004L83.9908 65.5008L83.9801 65.5014L83.9675 65.5022L83.953 65.5033L83.9366 65.5047L83.9182 65.5064L83.898 65.5086L83.8759 65.5111L83.852 65.5141L83.8262 65.5176L83.7986 65.5217L83.7692 65.5263L83.738 65.5315L83.7051 65.5373L83.6704 65.5438L83.634 65.5509L83.596 65.5589L83.5562 65.5675L83.5149 65.577L83.4719 65.5873L83.4274 65.5984L83.3813 65.6104L83.3337 65.6233L83.2846 65.6372L83.2341 65.652L83.1821 65.6677L83.1288 65.6845L83.0742 65.7023L83.0182 65.7211L82.961 65.7411L82.9025 65.762L82.8429 65.7841L82.7821 65.8073L82.7202 65.8317L82.6572 65.8572L82.5932 65.8838L82.5282 65.9117L82.4623 65.9407L82.3955 65.9709L82.3279 66.0023L82.2594 66.0349L82.1902 66.0687L82.1202 66.1038L82.0496 66.14L81.9784 66.1775L81.9066 66.2162L81.8342 66.2562L81.7614 66.2974L81.6881 66.3398L81.6144 66.3834L81.5404 66.4282L81.466 66.4742L81.3914 66.5214L81.3166 66.5698L81.2417 66.6194L81.1666 66.6701L81.0914 66.722L81.0162 66.775L80.9411 66.8291L80.866 66.8844L80.791 66.9407L80.7161 66.9981L80.6415 67.0565L80.567 67.116L80.4929 67.1764L80.4191 67.2378L80.3456 67.3002L80.2726 67.3635L80.2 67.4277L80.1279 67.4927L80.0563 67.5586L79.9852 67.6253L79.9148 67.6928L79.845 67.761L79.7758 67.8299L79.7074 67.8995L79.6397 67.9697L79.5728 68.0405L79.5066 68.1119L79.4414 68.1838L79.3769 68.2562L79.3134 68.3291L79.2508 68.4024L79.1891 68.476L79.1284 68.55L79.0687 68.6242L79.01 68.6987L78.9523 68.7734L78.8957 68.8482L78.8402 68.9232L78.7858 68.9982L78.7325 69.0733L78.6804 69.1483L78.6293 69.2233L78.5795 69.2981L78.5308 69.3728L78.4833 69.4473L78.437 69.5216L78.3919 69.5955L78.348 69.6691L78.3054 69.7423L78.2639 69.8151L78.2237 69.8874L78.1847 69.9592L78.1469 70.0304L78.1104 70.101L78.0751 70.1709L78.041 70.2401L78.0081 70.3085L77.9764 70.3762L77.946 70.443L77.9167 70.5089L77.8886 70.5739L77.8617 70.6379L77.836 70.7009L77.8114 70.7628L77.7879 70.8236L77.7656 70.8833L77.7444 70.9418L77.7243 70.9991L77.7052 71.0551L77.6872 71.1098L77.6702 71.1632L77.6542 71.2152L77.6392 71.2658L77.6252 71.315L77.6121 71.3627L77.5999 71.4088L77.5886 71.4535L77.5781 71.4965L77.5685 71.538L77.5597 71.5778L77.5516 71.616L77.5443 71.6525L77.5376 71.6873L77.5317 71.7204L77.5264 71.7517L77.5217 71.7812L77.5175 71.8089L77.5139 71.8349L77.5108 71.8589L77.5082 71.8812L77.5059 71.9015L77.5041 71.92L77.5026 71.9366L77.5015 71.9513L77.5006 71.964L77.5 71.9749L77.4996 71.9838L77.4993 71.9908L77.4991 71.9958L77.4991 71.9989L77.4991 72L77.4991 71.9992L77.499 71.9964L77.4989 71.9917L77.4987 71.985L77.4984 71.9764L77.4978 71.9659L77.497 71.9534L77.496 71.9391L77.4947 71.9228L77.493 71.9046L77.4909 71.8845L77.4885 71.8626L77.4856 71.8388L77.4822 71.8132L77.4783 71.7858L77.4738 71.7565L77.4687 71.7255L77.463 71.6927L77.4567 71.6582L77.4496 71.622L77.4419 71.584L77.4334 71.5445L77.4241 71.5033L77.414 71.4604L77.403 71.416L77.3912 71.3701L77.3785 71.3227L77.3648 71.2737L77.3502 71.2234L77.3347 71.1716L77.3181 71.1184L77.3005 71.0639L77.2819 71.0081L77.2622 70.951L77.2415 70.8927L77.2196 70.8332L77.1966 70.7725L77.1725 70.7108L77.1473 70.648L77.1209 70.5841L77.0933 70.5193L77.0646 70.4535L77.0346 70.3869L77.0035 70.3194L76.9711 70.251L76.9376 70.182L76.9028 70.1121L76.8668 70.0417L76.8296 69.9706L76.7911 69.8989L76.7515 69.8267L76.7106 69.754L76.6685 69.6808L76.6251 69.6073L76.5806 69.5334L76.5349 69.4592L76.4879 69.3847L76.4398 69.3101L76.3905 69.2352L76.3401 69.1603L76.2884 69.0852L76.2357 69.0102L76.1818 68.9352L76.1269 68.8602L76.0708 68.7853L76.0137 68.7106L75.9556 68.6361L75.8964 68.5618L75.8362 68.4878L75.775 68.4141L75.7129 68.3407L75.6499 68.2678L75.5859 68.1953L75.5211 68.1233L75.4555 68.0519L75.389 67.9809L75.3218 67.9106L75.2538 67.8409L75.1851 67.7719L75.1158 67.7036L75.0458 67.636L74.9752 67.5692L74.904 67.5032L74.8323 67.438L74.76 67.3736L74.6874 67.3102L74.6143 67.2477L74.5408 67.1861L74.4671 67.1255L74.393 67.0659L74.3186 67.0073L74.2441 66.9498L74.1694 66.8933L74.0946 66.8379L74.0197 66.7836L73.9448 66.7304L73.8699 66.6783L73.795 66.6274L73.7203 66.5776L73.6457 66.529L73.5713 66.4816L73.4972 66.4354L73.4233 66.3904L73.3498 66.3466L73.2766 66.304L73.2039 66.2627L73.1317 66.2225L73.06 66.1836L72.9888 66.1459L72.9183 66.1095L72.8484 66.0742L72.7792 66.0402L72.7108 66.0074L72.6431 65.9758L72.5764 65.9454L72.5104 65.9162L72.4455 65.8882L72.3814 65.8613L72.3184 65.8357L72.2565 65.8111L72.1956 65.7878L72.1359 65.7655L72.0774 65.7443L72.02 65.7242L71.964 65.7052L71.9092 65.6873L71.8557 65.6703L71.8037 65.6544L71.753 65.6395L71.7037 65.6255L71.656 65.6124L71.6097 65.6003L71.565 65.589L71.5218 65.5786L71.4802 65.569L71.4403 65.5602L71.402 65.5522L71.3654 65.5449L71.3304 65.5383L71.2973 65.5323L71.2658 65.527L71.2362 65.5224L71.2083 65.5182L71.1822 65.5147L71.158 65.5116L71.1357 65.509L71.1152 65.5068L71.0965 65.5049L71.0798 65.5035L71.065 65.5024L71.052 65.5015L71.0411 65.5009L71.032 65.5004L71.0249 65.5002L71.0197 65.5L71.0165 65.5L71.0152 65.5L71.0158 65.5L71.0184 65.4999L71.023 65.4998L71.0295 65.4996L71.038 65.4992L71.0483 65.4987L71.0607 65.4979L71.0749 65.4969L71.091 65.4955L71.109 65.4938L71.129 65.4917L71.1508 65.4893L71.1744 65.4863L71.1999 65.4829L71.2272 65.479L71.2563 65.4745L71.2872 65.4694L71.3199 65.4636L71.3543 65.4573L71.3904 65.4502L71.4282 65.4424L71.4676 65.4339L71.5087 65.4245L71.5515 65.4144L71.5957 65.4034L71.6416 65.3915L71.689 65.3787L71.7378 65.3651L71.7881 65.3504L71.8398 65.3348L71.8929 65.3182L71.9474 65.3006L72.0031 65.2819L72.0601 65.2621L72.1184 65.2413L72.1779 65.2194L72.2385 65.1964L72.3002 65.1722L72.363 65.1469L72.4268 65.1204L72.4917 65.0928L72.5574 65.064L72.6241 65.034L72.6916 65.0028L72.7599 64.9703L72.8291 64.9367L72.8989 64.9019L72.9694 64.8658L73.0405 64.8285L73.1123 64.79L73.1846 64.7502L73.2573 64.7092L73.3305 64.667L73.4042 64.6236L73.4781 64.579L73.5524 64.5332L73.627 64.4861L73.7018 64.4379L73.7767 64.3885L73.8518 64.338L73.9269 64.2863L74.0021 64.2335L74.0773 64.1795L74.1524 64.1244L74.2274 64.0683L74.3023 64.0111L74.377 63.9528L74.4514 63.8935L74.5256 63.8332L74.5995 63.772L74.673 63.7097L74.7461 63.6466L74.8188 63.5826L74.891 63.5176L74.9627 63.4519L75.0338 63.3853L75.1043 63.318L75.1743 63.2499L75.2435 63.1811L75.3121 63.1116L75.3799 63.0415L75.4469 62.9707L75.5132 62.8994L75.5786 62.8276L75.6432 62.7553L75.7069 62.6825L75.7696 62.6093L75.8315 62.5357L75.8923 62.4618L75.9522 62.3876L76.0111 62.3131L76.0689 62.2385L76.1256 62.1636L76.1813 62.0887L76.2359 62.0137L76.2894 61.9386L76.3417 61.8636L76.3929 61.7886L76.443 61.7137L76.4918 61.639L76.5395 61.5645L76.586 61.4902L76.6313 61.4162L76.6754 61.3425L76.7182 61.2692L76.7599 61.1964L76.8003 61.124L76.8395 61.0521L76.8774 60.9809L76.9142 60.9102L76.9497 60.8402L76.984 60.7708L77.0171 60.7023L77.0489 60.6345L77.0796 60.5676L77.109 60.5015L77.1373 60.4364L77.1644 60.3722L77.1903 60.3091L77.2151 60.247L77.2387 60.186L77.2612 60.1261L77.2826 60.0674L77.3029 60.0099L77.3221 59.9537L77.3403 59.8988L77.3575 59.8452L77.3736 59.7929L77.3888 59.7421L77.403 59.6927L77.4162 59.6448L77.4285 59.5984L77.44 59.5535L77.4506 59.5102L77.4603 59.4684L77.4693 59.4283L77.4775 59.3899L77.4849 59.3531L77.4917 59.3181L77.4977 59.2847L77.5031 59.2531L77.5079 59.2233L77.5122 59.1953L77.5159 59.1691L77.5191 59.1447L77.5218 59.1222L77.524 59.1015L77.5259 59.0828L77.5275 59.0659L77.5287 59.0509L77.5296 59.0378L77.5302 59.0267L77.5307 59.0174L77.531 59.0102L77.5312 59.0048L77.5312 59.0014L77.5312 59L77.5312 59.0005L77.5313 59.003L77.5314 59.0074L77.5315 59.0137L77.5319 59.022L77.5324 59.0322L77.5331 59.0444L77.5341 59.0585L77.5354 59.0744L77.537 59.0923L77.539 59.1121L77.5414 59.1337L77.5442 59.1572L77.5476 59.1826L77.5514 59.2097L77.5558 59.2387L77.5608 59.2694L77.5663 59.3019L77.5726 59.3362L77.5795 59.3721L77.5871 59.4098L77.5955 59.4491L77.6047 59.49L77.6147 59.5326L77.6255 59.5767L77.6372 59.6224L77.6498 59.6696L77.6633 59.7183L77.6777 59.7685L77.6931 59.82L77.7095 59.873L77.7269 59.9273L77.7454 59.9829L77.7649 60.0398L77.7855 60.0979L77.8072 60.1572L77.8299 60.2177L77.8539 60.2792L77.8789 60.3419L77.9051 60.4056L77.9325 60.4703L77.9611 60.5359L77.9908 60.6024L78.0218 60.6698L78.0539 60.738L78.0873 60.8069L78.1219 60.8766L78.1577 60.947L78.1947 61.018L78.233 61.0896L78.2725 61.1617L78.3131 61.2344L78.3551 61.3075L78.3982 61.3809L78.4425 61.4548L78.4881 61.5289L78.5348 61.6034L78.5828 61.678L78.6319 61.7528L78.6821 61.8277L78.7336 61.9028L78.7861 61.9778L78.8398 62.0528L78.8946 62.1278L78.9505 62.2027L79.0074 62.2775L79.0654 62.352L79.1245 62.4264L79.1845 62.5004L79.2455 62.5742L79.3074 62.6476L79.3703 62.7205L79.4341 62.7931L79.4988 62.8652L79.5643 62.9367L79.6306 63.0078L79.6977 63.0782L79.7656 63.148L79.8342 63.2171L79.9034 63.2855L79.9733 63.3532L80.0439 63.4202L80.115 63.4863L80.1866 63.5517L80.2587 63.6161L80.3313 63.6797L80.4044 63.7424L80.4777 63.8041L80.5515 63.8648L80.6255 63.9246L80.6998 63.9834L80.7743 64.0411L80.849 64.0977L80.9238 64.1533L80.9987 64.2078L81.0736 64.2612L81.1485 64.3134L81.2234 64.3645L81.2981 64.4145L81.3728 64.4633L81.4472 64.5108L81.5214 64.5572L81.5953 64.6024L81.6689 64.6464L81.7421 64.6892L81.8149 64.7308L81.8872 64.7711L81.959 64.8102L82.0302 64.8481L82.1009 64.8848L82.1708 64.9202L82.2401 64.9544L82.3087 64.9874L82.3764 65.0192L82.4434 65.0498L82.5094 65.0792L82.5746 65.1074L82.6387 65.1344L82.7019 65.1603L82.764 65.185L82.8251 65.2085L82.885 65.231L82.9437 65.2523L83.0012 65.2726L83.0575 65.2918L83.1125 65.3099L83.1662 65.327L83.2185 65.3431L83.2694 65.3582L83.3188 65.3723L83.3668 65.3855L83.4134 65.3978L83.4583 65.4092L83.5018 65.4198L83.5436 65.4295L83.5838 65.4384L83.6224 65.4466L83.6592 65.454L83.6944 65.4607L83.7279 65.4667L83.7596 65.4721L83.7895 65.4769L83.8177 65.4811L83.844 65.4848L83.8685 65.4879L83.8912 65.4906L83.912 65.4929L83.9309 65.4947L83.948 65.4962L83.9631 65.4974L83.9763 65.4983L83.9876 65.499L83.997 65.4995L84.0044 65.4997L84.0099 65.4999L84.0135 65.5L84.0151 65.5L84.0152 65.5Z" fill="#FF48A6"/>
<path fill-rule="evenodd" clip-rule="evenodd" d="M16.0201 44.5L16.0194 44.5L16.0174 44.5L16.014 44.5001L16.0093 44.5003L16.0033 44.5005L15.9959 44.501L15.9871 44.5015L15.9771 44.5023L15.9657 44.5032L15.953 44.5045L15.939 44.5059L15.9237 44.5077L15.9071 44.5098L15.8893 44.5122L15.8702 44.515L15.8498 44.5182L15.8282 44.5218L15.8054 44.5258L15.7814 44.5303L15.7563 44.5353L15.7299 44.5407L15.7024 44.5468L15.6738 44.5533L15.644 44.5604L15.6132 44.5681L15.5813 44.5764L15.5483 44.5854L15.5143 44.595L15.4794 44.6052L15.4434 44.6161L15.4065 44.6277L15.3686 44.6401L15.3299 44.6531L15.2903 44.6669L15.2498 44.6814L15.2085 44.6967L15.1664 44.7128L15.1236 44.7296L15.08 44.7473L15.0357 44.7657L14.9907 44.785L14.9451 44.8051L14.8988 44.826L14.852 44.8477L14.8046 44.8703L14.7567 44.8937L14.7082 44.918L14.6594 44.9431L14.61 44.9691L14.5603 44.9959L14.5102 45.0235L14.4598 45.052L14.409 45.0814L14.358 45.1116L14.3068 45.1426L14.2553 45.1744L14.2037 45.2071L14.1519 45.2406L14.1 45.275L14.048 45.3101L13.996 45.346L13.9439 45.3827L13.8919 45.4202L13.8399 45.4584L13.788 45.4974L13.7362 45.5371L13.6845 45.5776L13.633 45.6187L13.5816 45.6606L13.5305 45.7031L13.4797 45.7463L13.4291 45.7901L13.3788 45.8345L13.3289 45.8796L13.2793 45.9252L13.2302 45.9714L13.1814 46.0181L13.1331 46.0653L13.0852 46.113L13.0378 46.1612L12.9909 46.2098L12.9446 46.2588L12.8988 46.3082L12.8536 46.358L12.809 46.4082L12.765 46.4586L12.7217 46.5093L12.679 46.5603L12.6369 46.6115L12.5956 46.6629L12.555 46.7145L12.5151 46.7662L12.4759 46.818L12.4375 46.8699L12.3998 46.9219L12.3629 46.9738L12.3268 47.0258L12.2915 47.0777L12.257 47.1295L12.2233 47.1812L12.1904 47.2328L12.1583 47.2842L12.1271 47.3354L12.0967 47.3863L12.0672 47.437L12.0385 47.4874L12.0106 47.5374L11.9836 47.5871L11.9575 47.6364L11.9322 47.6853L11.9077 47.7337L11.8841 47.7816L11.8614 47.829L11.8395 47.8758L11.8184 47.9221L11.7981 47.9677L11.7787 48.0127L11.76 48.057L11.7422 48.1006L11.7252 48.1435L11.709 48.1856L11.6935 48.2269L11.6788 48.2674L11.6649 48.307L11.6517 48.3458L11.6392 48.3837L11.6274 48.4207L11.6164 48.4567L11.606 48.4917L11.5963 48.5257L11.5872 48.5588L11.5788 48.5907L11.5709 48.6216L11.5637 48.6515L11.557 48.6802L11.5509 48.7077L11.5453 48.7342L11.5403 48.7594L11.5357 48.7835L11.5315 48.8064L11.5279 48.8281L11.5246 48.8485L11.5217 48.8677L11.5192 48.8857L11.5171 48.9023L11.5153 48.9177L11.5137 48.9318L11.5125 48.9446L11.5114 48.9561L11.5107 48.9663L11.51 48.9751L11.5096 48.9826L11.5093 48.9888L11.5091 48.9936L11.509 48.9971L11.509 48.9992L11.509 49L11.509 48.9994L11.5089 48.9975L11.5089 48.9943L11.5087 48.9896L11.5085 48.9837L11.5081 48.9764L11.5076 48.9678L11.5068 48.9578L11.5059 48.9465L11.5048 48.934L11.5033 48.9201L11.5016 48.9049L11.4996 48.8884L11.4973 48.8707L11.4946 48.8517L11.4915 48.8314L11.488 48.81L11.484 48.7873L11.4796 48.7634L11.4747 48.7383L11.4694 48.712L11.4635 48.6846L11.457 48.6561L11.45 48.6265L11.4425 48.5957L11.4343 48.5639L11.4255 48.5311L11.416 48.4972L11.4059 48.4623L11.3952 48.4265L11.3837 48.3897L11.3715 48.3519L11.3586 48.3133L11.345 48.2738L11.3306 48.2334L11.3155 48.1922L11.2996 48.1502L11.2829 48.1075L11.2654 48.064L11.2472 48.0198L11.2281 47.9749L11.2082 47.9294L11.1874 47.8832L11.1659 47.8365L11.1435 47.7892L11.1202 47.7414L11.0962 47.693L11.0712 47.6442L11.0455 47.595L11.0189 47.5454L10.9914 47.4954L10.9631 47.4451L10.9339 47.3944L10.9039 47.3435L10.8731 47.2923L10.8414 47.241L10.8089 47.1894L10.7756 47.1377L10.7415 47.0859L10.7066 47.034L10.6708 46.9821L10.6343 46.9301L10.597 46.8782L10.559 46.8263L10.5202 46.7744L10.4806 46.7227L10.4404 46.6711L10.3994 46.6197L10.3577 46.5685L10.3154 46.5174L10.2724 46.4667L10.2288 46.4162L10.1845 46.366L10.1396 46.3162L10.0942 46.2667L10.0482 46.2176L10.0016 46.1689L9.95458 46.1206L9.90703 46.0729L9.859 46.0256L9.81053 45.9788L9.76165 45.9325L9.71236 45.8868L9.66271 45.8417L9.61272 45.7971L9.56241 45.7532L9.51182 45.7099L9.46097 45.6673L9.40988 45.6254L9.3586 45.5841L9.30714 45.5435L9.25554 45.5037L9.20382 45.4646L9.15203 45.4262L9.10018 45.3886L9.04831 45.3518L8.99645 45.3157L8.94463 45.2805L8.89289 45.246L8.84125 45.2124L8.78975 45.1796L8.73841 45.1476L8.68728 45.1164L8.63638 45.0861L8.58574 45.0566L8.5354 45.028L8.48539 45.0002L8.43574 44.9733L8.38648 44.9472L8.33764 44.9219L8.28927 44.8975L8.24137 44.874L8.194 44.8513L8.14718 44.8294L8.10094 44.8083L8.05531 44.7881L8.01031 44.7687L7.966 44.7502L7.92238 44.7324L7.87949 44.7154L7.83736 44.6992L7.79601 44.6838L7.75548 44.6691L7.71579 44.6552L7.67698 44.6421L7.63905 44.6296L7.60205 44.6179L7.56599 44.6069L7.5309 44.5965L7.49681 44.5869L7.46374 44.5778L7.43171 44.5694L7.40074 44.5616L7.37085 44.5544L7.34207 44.5478L7.31441 44.5417L7.2879 44.5361L7.26255 44.5311L7.23838 44.5265L7.21541 44.5224L7.19365 44.5187L7.17311 44.5155L7.15382 44.5126L7.13579 44.5101L7.11902 44.508L7.10353 44.5062L7.08934 44.5047L7.07644 44.5034L7.06486 44.5024L7.05459 44.5016L7.04565 44.501L7.03804 44.5006L7.03176 44.5003L7.02683 44.5001L7.02325 44.5L7.02101 44.5L7.02012 44.5L7.02058 44.5L7.02239 44.5L7.02554 44.4999L7.03005 44.4997L7.0359 44.4995L7.04308 44.4991L7.0516 44.4985L7.06145 44.4978L7.07262 44.4969L7.08511 44.4957L7.0989 44.4943L7.11398 44.4926L7.13035 44.4905L7.148 44.4882L7.1669 44.4854L7.18706 44.4823L7.20845 44.4788L7.23106 44.4748L7.25487 44.4704L7.27987 44.4655L7.30604 44.4601L7.33336 44.4542L7.36182 44.4477L7.39139 44.4407L7.42206 44.4331L7.45379 44.4249L7.48658 44.4161L7.5204 44.4066L7.55522 44.3964L7.59102 44.3856L7.62779 44.3741L7.66548 44.3619L7.70408 44.349L7.74356 44.3353L7.7839 44.3209L7.82506 44.3057L7.86702 44.2898L7.90976 44.2731L7.95323 44.2556L7.99742 44.2372L8.0423 44.2181L8.08783 44.1981L8.13398 44.1774L8.18073 44.1558L8.22804 44.1333L8.27589 44.11L8.32423 44.0859L8.37305 44.0609L8.4223 44.0351L8.47196 44.0084L8.522 43.9809L8.57238 43.9525L8.62307 43.9233L8.67404 43.8933L8.72526 43.8624L8.77669 43.8307L8.8283 43.7981L8.88006 43.7647L8.93195 43.7305L8.98392 43.6955L9.03595 43.6597L9.088 43.6232L9.14004 43.5858L9.19204 43.5477L9.24398 43.5088L9.29582 43.4692L9.34752 43.4289L9.39907 43.3878L9.45043 43.3461L9.50157 43.3037L9.55246 43.2606L9.60308 43.2169L9.65339 43.1725L9.70338 43.1276L9.75301 43.0821L9.80225 43.036L9.85109 42.9894L9.89949 42.9422L9.94743 42.8946L9.99489 42.8465L10.0418 42.7979L10.0883 42.749L10.1341 42.6996L10.1794 42.6499L10.2241 42.5998L10.2682 42.5494L10.3117 42.4987L10.3545 42.4478L10.3966 42.3966L10.4381 42.3452L10.4788 42.2937L10.5188 42.242L10.5581 42.1902L10.5967 42.1383L10.6345 42.0864L10.6715 42.0344L10.7077 41.9825L10.7432 41.9306L10.7778 41.8787L10.8116 41.827L10.8447 41.7754L10.8768 41.724L10.9082 41.6727L10.9387 41.6217L10.9684 41.571L10.9972 41.5206L11.0252 41.4705L11.0523 41.4207L11.0786 41.3714L11.104 41.3224L11.1286 41.274L11.1524 41.226L11.1753 41.1785L11.1973 41.1316L11.2185 41.0852L11.2389 41.0395L11.2585 40.9944L11.2773 40.95L11.2952 40.9063L11.3124 40.8633L11.3287 40.821L11.3443 40.7796L11.3591 40.739L11.3732 40.6992L11.3865 40.6603L11.3991 40.6222L11.4109 40.5851L11.4221 40.549L11.4326 40.5138L11.4424 40.4796L11.4516 40.4464L11.4601 40.4143L11.4681 40.3832L11.4754 40.3532L11.4822 40.3243L11.4884 40.2965L11.494 40.2699L11.4992 40.2445L11.5038 40.2202L11.508 40.1971L11.5118 40.1752L11.5151 40.1546L11.518 40.1352L11.5206 40.1171L11.5228 40.1002L11.5247 40.0846L11.5263 40.0703L11.5276 40.0573L11.5286 40.0456L11.5295 40.0352L11.5301 40.0262L11.5305 40.0185L11.5309 40.0121L11.5311 40.007L11.5312 40.0033L11.5312 40.001L11.5312 40L11.5312 40.0004L11.5313 40.0021L11.5313 40.0051L11.5315 40.0095L11.5317 40.0152L11.532 40.0223L11.5326 40.0307L11.5332 40.0405L11.5341 40.0515L11.5352 40.0639L11.5366 40.0776L11.5383 40.0926L11.5402 40.1088L11.5425 40.1264L11.5452 40.1452L11.5482 40.1652L11.5517 40.1865L11.5555 40.209L11.5599 40.2327L11.5647 40.2576L11.5699 40.2837L11.5758 40.3109L11.5821 40.3392L11.589 40.3687L11.5965 40.3993L11.6046 40.4309L11.6133 40.4636L11.6226 40.4973L11.6326 40.532L11.6433 40.5677L11.6547 40.6044L11.6667 40.642L11.6795 40.6805L11.693 40.7198L11.7072 40.7601L11.7223 40.8011L11.738 40.843L11.7546 40.8856L11.7719 40.929L11.7901 40.9731L11.8091 41.0179L11.8288 41.0633L11.8494 41.1094L11.8709 41.156L11.8931 41.2032L11.9162 41.251L11.9402 41.2992L11.9649 41.3479L11.9906 41.3971L12.0171 41.4467L12.0444 41.4966L12.0726 41.5469L12.1016 41.5975L12.1314 41.6483L12.1621 41.6995L12.1937 41.7508L12.226 41.8023L12.2592 41.854L12.2932 41.9058L12.328 41.9577L12.3636 42.0096L12.4 42.0616L12.4372 42.1135L12.4751 42.1654L12.5138 42.2173L12.5532 42.269L12.5934 42.3206L12.6342 42.3721L12.6758 42.4234L12.718 42.4744L12.7609 42.5252L12.8045 42.5758L12.8486 42.626L12.8934 42.6759L12.9388 42.7254L12.9847 42.7746L13.0311 42.8234L13.0781 42.8717L13.1256 42.9195L13.1735 42.9669L13.2219 43.0138L13.2708 43.0601L13.32 43.1059L13.3696 43.1511L13.4195 43.1958L13.4698 43.2398L13.5203 43.2832L13.5711 43.3259L13.6222 43.368L13.6734 43.4093L13.7249 43.45L13.7765 43.49L13.8282 43.5292L13.8799 43.5677L13.9318 43.6054L13.9836 43.6424L14.0355 43.6785L14.0873 43.7139L14.1391 43.7485L14.1908 43.7823L14.2423 43.8152L14.2936 43.8473L14.3448 43.8786L14.3957 43.9091L14.4464 43.9387L14.4968 43.9675L14.5469 43.9954L14.5966 44.0225L14.6459 44.0487L14.6948 44.0741L14.7433 44.0986L14.7912 44.1223L14.8387 44.1451L14.8856 44.1671L14.932 44.1883L14.9777 44.2087L15.0228 44.2282L15.0672 44.2469L15.1109 44.2648L15.1539 44.2819L15.1962 44.2982L15.2377 44.3138L15.2783 44.3285L15.3182 44.3426L15.3571 44.3558L15.3952 44.3684L15.4323 44.3802L15.4685 44.3914L15.5038 44.4018L15.538 44.4116L15.5713 44.4207L15.6035 44.4293L15.6346 44.4372L15.6647 44.4445L15.6936 44.4512L15.7215 44.4574L15.7482 44.463L15.7737 44.4681L15.7981 44.4728L15.8212 44.477L15.8432 44.4807L15.8639 44.484L15.8834 44.4869L15.9016 44.4894L15.9186 44.4916L15.9343 44.4935L15.9487 44.4951L15.9618 44.4964L15.9736 44.4974L15.9841 44.4982L15.9932 44.4989L16.0011 44.4993L16.0075 44.4996L16.0127 44.4998L16.0165 44.4999L16.0189 44.5L16.02 44.5L16.0201 44.5Z" fill="#6C03A8"/>
<path fill-rule="evenodd" clip-rule="evenodd" d="M32.0238 7.99998L32.0234 7.99998L32.022 8L32.0198 8.00006L32.0166 8.00017L32.0126 8.00035L32.0077 8.00063L32.0018 8.00101L31.9951 8.00151L31.9875 8.00216L31.9791 8.00296L31.9698 8.00395L31.9596 8.00513L31.9485 8.00651L31.9366 8.00813L31.9239 8.00999L31.9103 8.01211L31.8959 8.01451L31.8807 8.01719L31.8647 8.02019L31.8479 8.0235L31.8304 8.02716L31.812 8.03116L31.7929 8.03553L31.7731 8.04027L31.7525 8.04541L31.7313 8.05095L31.7093 8.05691L31.6866 8.0633L31.6633 8.07013L31.6394 8.0774L31.6147 8.08515L31.5895 8.09336L31.5637 8.10206L31.5373 8.11124L31.5103 8.12093L31.4828 8.13113L31.4547 8.14184L31.4261 8.15308L31.3971 8.16484L31.3675 8.17714L31.3376 8.18998L31.3071 8.20337L31.2763 8.21731L31.2451 8.23181L31.2135 8.24686L31.1815 8.26247L31.1492 8.27865L31.1167 8.29539L31.0838 8.31269L31.0506 8.33057L31.0172 8.349L30.9836 8.368L30.9498 8.38757L30.9158 8.40769L30.8816 8.42838L30.8473 8.44962L30.8129 8.47141L30.7783 8.49374L30.7437 8.51662L30.7091 8.54004L30.6744 8.56399L30.6397 8.58846L30.605 8.61344L30.5703 8.63894L30.5357 8.66493L30.5012 8.69142L30.4667 8.71838L30.4324 8.74582L30.3982 8.77372L30.3641 8.80206L30.3302 8.83085L30.2965 8.86006L30.263 8.88968L30.2297 8.9197L30.1966 8.95011L30.1639 8.98089L30.1313 9.01203L30.0991 9.04351L30.0672 9.07532L30.0356 9.10744L30.0044 9.13985L29.9735 9.17254L29.943 9.20549L29.9128 9.23868L29.8831 9.2721L29.8538 9.30573L29.8249 9.33954L29.7964 9.37353L29.7684 9.40766L29.7408 9.44193L29.7137 9.47631L29.6871 9.51079L29.661 9.54533L29.6354 9.57993L29.6103 9.61456L29.5857 9.6492L29.5616 9.68383L29.5381 9.71843L29.5151 9.75298L29.4926 9.78745L29.4707 9.82183L29.4493 9.8561L29.4285 9.89023L29.4082 9.9242L29.3885 9.95799L29.3694 9.99158L29.3508 10.0249L29.3328 10.0581L29.3154 10.0909L29.2986 10.1235L29.2822 10.1558L29.2665 10.1877L29.2513 10.2193L29.2367 10.2505L29.2227 10.2814L29.2092 10.3118L29.1962 10.3418L29.1838 10.3713L29.1719 10.4004L29.1605 10.429L29.1497 10.457L29.1394 10.4846L29.1296 10.5116L29.1203 10.538L29.1115 10.5639L29.1032 10.5891L29.0954 10.6138L29.088 10.6378L29.0811 10.6611L29.0746 10.6838L29.0686 10.7058L29.0629 10.7271L29.0577 10.7477L29.0529 10.7676L29.0484 10.7868L29.0444 10.8051L29.0406 10.8228L29.0373 10.8396L29.0342 10.8557L29.0314 10.8709L29.029 10.8854L29.0268 10.899L29.0249 10.9118L29.0232 10.9238L29.0218 10.9349L29.0206 10.9451L29.0196 10.9545L29.0187 10.9631L29.018 10.9707L29.0175 10.9775L29.0171 10.9834L29.0168 10.9884L29.0166 10.9925L29.0165 10.9957L29.0164 10.998L29.0164 10.9995L29.0164 11L29.0164 10.9996L29.0164 10.9983L29.0163 10.9961L29.0162 10.9931L29.0161 10.9891L29.0158 10.9842L29.0155 10.9785L29.015 10.9719L29.0144 10.9643L29.0136 10.956L29.0126 10.9467L29.0115 10.9366L29.0102 10.9256L29.0086 10.9138L29.0068 10.9011L29.0047 10.8876L29.0024 10.8733L28.9998 10.8582L28.9968 10.8422L28.9936 10.8255L28.99 10.808L28.9861 10.7897L28.9818 10.7707L28.9771 10.751L28.9721 10.7305L28.9666 10.7093L28.9607 10.6874L28.9544 10.6648L28.9477 10.6415L28.9405 10.6176L28.9329 10.5931L28.9248 10.5679L28.9162 10.5422L28.9071 10.5158L28.8975 10.4889L28.8874 10.4615L28.8768 10.4335L28.8657 10.405L28.854 10.376L28.8419 10.3465L28.8291 10.3166L28.8159 10.2862L28.802 10.2555L28.7877 10.2243L28.7727 10.1928L28.7572 10.1609L28.7412 10.1287L28.7246 10.0961L28.7074 10.0633L28.6897 10.0302L28.6713 9.99691L28.6525 9.96335L28.633 9.92959L28.613 9.89565L28.5925 9.86154L28.5714 9.8273L28.5497 9.79293L28.5275 9.75847L28.5048 9.72394L28.4815 9.68934L28.4576 9.65472L28.4333 9.62008L28.4084 9.58544L28.3831 9.55084L28.3572 9.51628L28.3308 9.4818L28.304 9.4474L28.2767 9.41311L28.2489 9.37895L28.2207 9.34494L28.192 9.3111L28.1629 9.27744L28.1334 9.24399L28.1035 9.21076L28.0732 9.17777L28.0425 9.14504L28.0115 9.11258L27.9801 9.08041L27.9484 9.04856L27.9164 9.01702L27.8841 8.98583L27.8515 8.95499L27.8187 8.92452L27.7856 8.89444L27.7522 8.86475L27.7187 8.83547L27.685 8.80662L27.6511 8.7782L27.617 8.75023L27.5828 8.72272L27.5485 8.69568L27.5141 8.66912L27.4796 8.64304L27.4451 8.61747L27.4105 8.5924L27.376 8.56785L27.3414 8.54382L27.3068 8.52032L27.2723 8.49735L27.2379 8.47493L27.2036 8.45305L27.1694 8.43172L27.1353 8.41095L27.1013 8.39074L27.0676 8.37108L27.034 8.35199L27.0007 8.33346L26.9676 8.3155L26.9347 8.29811L26.9022 8.28128L26.8699 8.26501L26.838 8.24931L26.8064 8.23417L26.7752 8.21958L26.7444 8.20556L26.714 8.19208L26.684 8.17915L26.6544 8.16676L26.6253 8.15491L26.5967 8.14359L26.5687 8.1328L26.5411 8.12252L26.5141 8.11275L26.4876 8.10349L26.4617 8.09471L26.4365 8.08642L26.4118 8.07861L26.3877 8.07125L26.3644 8.06436L26.3416 8.0579L26.3196 8.05187L26.2982 8.04626L26.2776 8.04106L26.2577 8.03626L26.2385 8.03183L26.22 8.02777L26.2024 8.02406L26.1855 8.02069L26.1693 8.01765L26.154 8.01492L26.1395 8.01247L26.1258 8.01031L26.113 8.00841L26.1009 8.00676L26.0898 8.00533L26.0794 8.00412L26.07 8.00311L26.0614 8.00227L26.0537 8.0016L26.0468 8.00108L26.0408 8.00068L26.0358 8.00039L26.0316 8.0002L26.0283 8.00007L26.0259 8.00001L26.0244 7.99998L26.0238 7.99998L26.0241 7.99998L26.0253 7.99996L26.0274 7.99991L26.0304 7.99981L26.0343 7.99964L26.0391 7.99938L26.0448 7.99902L26.0514 7.99854L26.0588 7.99791L26.0672 7.99713L26.0763 7.99618L26.0864 7.99503L26.0973 7.99368L26.1091 7.9921L26.1217 7.99028L26.1351 7.9882L26.1494 7.98585L26.1645 7.98321L26.1803 7.98027L26.197 7.97701L26.2144 7.97341L26.2327 7.96946L26.2516 7.96515L26.2713 7.96047L26.2918 7.95539L26.3129 7.94992L26.3348 7.94403L26.3573 7.93771L26.3806 7.93095L26.4044 7.92374L26.4289 7.91608L26.4541 7.90794L26.4798 7.89932L26.5061 7.89021L26.533 7.8806L26.5605 7.87049L26.5884 7.85986L26.6169 7.84871L26.6459 7.83703L26.6754 7.82481L26.7053 7.81206L26.7356 7.79876L26.7664 7.7849L26.7976 7.7705L26.8291 7.75553L26.861 7.74001L26.8932 7.72392L26.9258 7.70727L26.9586 7.69006L26.9917 7.67228L27.0251 7.65393L27.0587 7.63502L27.0925 7.61554L27.1264 7.59551L27.1606 7.57491L27.1949 7.55376L27.2293 7.53206L27.2638 7.50981L27.2984 7.48701L27.333 7.46368L27.3677 7.43982L27.4024 7.41543L27.4371 7.39053L27.4718 7.36512L27.5064 7.3392L27.541 7.31279L27.5754 7.2859L27.6098 7.25854L27.644 7.23072L27.6781 7.20244L27.7121 7.17372L27.7458 7.14458L27.7793 7.11502L27.8127 7.08506L27.8458 7.05471L27.8786 7.02399L27.9111 6.99291L27.9434 6.96148L27.9754 6.92973L28.007 6.89766L28.0383 6.86529L28.0693 6.83265L28.0998 6.79974L28.13 6.76658L28.1598 6.7332L28.1892 6.6996L28.2182 6.66581L28.2467 6.63186L28.2748 6.59774L28.3025 6.56349L28.3296 6.52913L28.3563 6.49467L28.3825 6.46013L28.4082 6.42554L28.4334 6.39092L28.4581 6.35628L28.4822 6.32164L28.5059 6.28704L28.529 6.25248L28.5515 6.21799L28.5735 6.18359L28.595 6.14931L28.6159 6.11516L28.6362 6.08116L28.656 6.04734L28.6752 6.01371L28.6939 5.98031L28.712 5.94714L28.7295 5.91424L28.7464 5.88162L28.7628 5.8493L28.7787 5.81731L28.7939 5.78566L28.8086 5.75438L28.8228 5.72348L28.8364 5.693L28.8494 5.66294L28.8619 5.63332L28.8739 5.60418L28.8853 5.57552L28.8962 5.54736L28.9066 5.51973L28.9165 5.49264L28.9259 5.46611L28.9347 5.44017L28.9431 5.41482L28.951 5.39008L28.9585 5.36597L28.9655 5.34251L28.972 5.31971L28.9782 5.29759L28.9838 5.27617L28.9891 5.25545L28.994 5.23546L28.9985 5.2162L29.0027 5.19769L29.0064 5.17995L29.0099 5.16298L29.013 5.14679L29.0158 5.13141L29.0183 5.11683L29.0205 5.10307L29.0224 5.09014L29.0242 5.07804L29.0256 5.06679L29.0269 5.0564L29.0279 5.04686L29.0288 5.03819L29.0295 5.0304L29.0301 5.02348L29.0305 5.01745L29.0308 5.01231L29.031 5.00805L29.0311 5.00469L29.0312 5.00223L29.0312 5.00066L29.0312 5L29.0312 5.00023L29.0313 5.00137L29.0313 5.0034L29.0314 5.00633L29.0315 5.01016L29.0318 5.01488L29.0321 5.02049L29.0326 5.02698L29.0332 5.03436L29.0339 5.04261L29.0348 5.05173L29.0359 5.06172L29.0372 5.07256L29.0388 5.08425L29.0405 5.09679L29.0426 5.11015L29.0449 5.12434L29.0474 5.13934L29.0503 5.15515L29.0535 5.17174L29.057 5.18912L29.0609 5.20726L29.0652 5.22616L29.0698 5.24581L29.0748 5.26618L29.0801 5.28727L29.0859 5.30906L29.0922 5.33153L29.0988 5.35468L29.106 5.37848L29.1135 5.40292L29.1216 5.42798L29.1301 5.45364L29.1391 5.4799L29.1486 5.50672L29.1586 5.53409L29.1691 5.562L29.1801 5.59042L29.1917 5.61934L29.2038 5.64873L29.2165 5.67858L29.2296 5.70887L29.2434 5.73957L29.2577 5.77067L29.2725 5.80214L29.2879 5.83397L29.3039 5.86614L29.3204 5.89862L29.3375 5.93139L29.3551 5.96443L29.3733 5.99772L29.3921 6.03125L29.4115 6.06498L29.4314 6.09889L29.4518 6.13297L29.4729 6.1672L29.4944 6.20154L29.5166 6.23599L29.5392 6.27052L29.5624 6.3051L29.5862 6.33973L29.6104 6.37437L29.6352 6.409L29.6605 6.44361L29.6863 6.47818L29.7126 6.51267L29.7393 6.54709L29.7666 6.58139L29.7943 6.61557L29.8224 6.64961L29.851 6.68348L29.8801 6.71717L29.9095 6.75066L29.9393 6.78392L29.9696 6.81695L30.0002 6.84973L30.0312 6.88223L30.0625 6.91444L30.0941 6.94635L30.1261 6.97794L30.1584 7.00918L30.1909 7.04008L30.2237 7.07061L30.2568 7.10076L30.2901 7.13051L30.3236 7.15985L30.3573 7.18877L30.3912 7.21726L30.4252 7.2453L30.4594 7.27289L30.4937 7.30001L30.5281 7.32665L30.5625 7.3528L30.597 7.37845L30.6316 7.4036L30.6662 7.42823L30.7008 7.45235L30.7353 7.47593L30.7698 7.49898L30.8043 7.5215L30.8386 7.54346L30.8728 7.56488L30.907 7.58574L30.9409 7.60604L30.9747 7.62578L31.0083 7.64496L31.0417 7.66358L31.0748 7.68163L31.1077 7.69912L31.1403 7.71604L31.1726 7.73239L31.2046 7.74819L31.2362 7.76342L31.2675 7.77809L31.2984 7.79221L31.3289 7.80577L31.3589 7.81879L31.3886 7.83126L31.4177 7.84319L31.4464 7.8546L31.4746 7.86547L31.5022 7.87583L31.5293 7.88568L31.5559 7.89503L31.5818 7.90388L31.6072 7.91225L31.632 7.92014L31.6561 7.92756L31.6796 7.93454L31.7024 7.94106L31.7246 7.94716L31.7461 7.95283L31.7668 7.95809L31.7869 7.96296L31.8062 7.96745L31.8247 7.97157L31.8425 7.97533L31.8596 7.97875L31.8758 7.98185L31.8912 7.98463L31.9059 7.98712L31.9197 7.98932L31.9327 7.99126L31.9448 7.99295L31.9562 7.99441L31.9666 7.99566L31.9762 7.9967L31.985 7.99756L31.9928 7.99826L31.9998 7.99881L32.0059 7.99922L32.0111 7.99953L32.0154 7.99974L32.0189 7.99987L32.0214 7.99994L32.023 7.99997L32.0238 7.99998L32.0238 7.99998Z" fill="#6C03A8"/>
<path fill-rule="evenodd" clip-rule="evenodd" d="M93.0238 47L93.0234 47L93.022 47L93.0198 47.0001L93.0166 47.0002L93.0126 47.0004L93.0077 47.0006L93.0018 47.001L92.9951 47.0015L92.9875 47.0022L92.9791 47.003L92.9698 47.0039L92.9596 47.0051L92.9485 47.0065L92.9366 47.0081L92.9239 47.01L92.9103 47.0121L92.8959 47.0145L92.8807 47.0172L92.8647 47.0202L92.8479 47.0235L92.8304 47.0272L92.812 47.0312L92.7929 47.0355L92.7731 47.0403L92.7525 47.0454L92.7313 47.051L92.7093 47.0569L92.6866 47.0633L92.6633 47.0701L92.6394 47.0774L92.6147 47.0851L92.5895 47.0934L92.5637 47.1021L92.5373 47.1112L92.5103 47.1209L92.4828 47.1311L92.4547 47.1418L92.4261 47.1531L92.3971 47.1648L92.3675 47.1771L92.3376 47.19L92.3071 47.2034L92.2763 47.2173L92.2451 47.2318L92.2135 47.2469L92.1815 47.2625L92.1492 47.2786L92.1167 47.2954L92.0838 47.3127L92.0506 47.3306L92.0172 47.349L91.9836 47.368L91.9498 47.3876L91.9158 47.4077L91.8816 47.4284L91.8473 47.4496L91.8129 47.4714L91.7783 47.4937L91.7437 47.5166L91.7091 47.54L91.6744 47.564L91.6397 47.5885L91.605 47.6134L91.5703 47.6389L91.5357 47.6649L91.5012 47.6914L91.4667 47.7184L91.4324 47.7458L91.3982 47.7737L91.3641 47.8021L91.3302 47.8308L91.2965 47.8601L91.263 47.8897L91.2297 47.9197L91.1966 47.9501L91.1639 47.9809L91.1313 48.012L91.0991 48.0435L91.0672 48.0753L91.0356 48.1074L91.0044 48.1398L90.9735 48.1725L90.943 48.2055L90.9128 48.2387L90.8831 48.2721L90.8538 48.3057L90.8249 48.3395L90.7964 48.3735L90.7684 48.4077L90.7408 48.4419L90.7137 48.4763L90.6871 48.5108L90.661 48.5453L90.6354 48.5799L90.6103 48.6146L90.5857 48.6492L90.5616 48.6838L90.5381 48.7184L90.5151 48.753L90.4926 48.7875L90.4707 48.8218L90.4493 48.8561L90.4285 48.8902L90.4082 48.9242L90.3885 48.958L90.3694 48.9916L90.3508 49.0249L90.3328 49.0581L90.3154 49.0909L90.2986 49.1235L90.2822 49.1558L90.2665 49.1877L90.2513 49.2193L90.2367 49.2505L90.2227 49.2814L90.2092 49.3118L90.1962 49.3418L90.1838 49.3713L90.1719 49.4004L90.1605 49.429L90.1497 49.457L90.1394 49.4846L90.1296 49.5116L90.1203 49.538L90.1115 49.5639L90.1032 49.5891L90.0954 49.6138L90.088 49.6378L90.0811 49.6611L90.0746 49.6838L90.0686 49.7058L90.0629 49.7271L90.0577 49.7477L90.0529 49.7676L90.0484 49.7868L90.0444 49.8051L90.0406 49.8228L90.0373 49.8396L90.0342 49.8557L90.0314 49.8709L90.029 49.8854L90.0268 49.899L90.0249 49.9118L90.0232 49.9238L90.0218 49.9349L90.0206 49.9451L90.0196 49.9545L90.0187 49.9631L90.018 49.9707L90.0175 49.9775L90.0171 49.9834L90.0168 49.9884L90.0166 49.9925L90.0165 49.9957L90.0164 49.998L90.0164 49.9995L90.0164 50L90.0164 49.9996L90.0164 49.9983L90.0163 49.9961L90.0162 49.9931L90.0161 49.9891L90.0158 49.9842L90.0155 49.9785L90.015 49.9719L90.0144 49.9643L90.0136 49.956L90.0126 49.9467L90.0115 49.9366L90.0102 49.9256L90.0086 49.9138L90.0068 49.9011L90.0047 49.8876L90.0024 49.8733L89.9998 49.8582L89.9968 49.8422L89.9936 49.8255L89.99 49.808L89.9861 49.7897L89.9818 49.7707L89.9771 49.751L89.9721 49.7305L89.9666 49.7093L89.9607 49.6874L89.9544 49.6648L89.9477 49.6415L89.9405 49.6176L89.9329 49.5931L89.9248 49.5679L89.9162 49.5422L89.9071 49.5158L89.8975 49.4889L89.8874 49.4615L89.8768 49.4335L89.8657 49.405L89.854 49.376L89.8419 49.3465L89.8291 49.3166L89.8159 49.2862L89.802 49.2555L89.7877 49.2243L89.7727 49.1928L89.7572 49.1609L89.7412 49.1287L89.7246 49.0961L89.7074 49.0633L89.6897 49.0302L89.6713 48.9969L89.6525 48.9634L89.633 48.9296L89.613 48.8956L89.5925 48.8615L89.5714 48.8273L89.5497 48.7929L89.5275 48.7585L89.5048 48.7239L89.4815 48.6893L89.4576 48.6547L89.4333 48.6201L89.4084 48.5854L89.3831 48.5508L89.3572 48.5163L89.3308 48.4818L89.304 48.4474L89.2767 48.4131L89.2489 48.379L89.2207 48.3449L89.192 48.3111L89.1629 48.2774L89.1334 48.244L89.1035 48.2108L89.0732 48.1778L89.0425 48.145L89.0115 48.1126L88.9801 48.0804L88.9484 48.0486L88.9164 48.017L88.8841 47.9858L88.8515 47.955L88.8187 47.9245L88.7856 47.8944L88.7522 47.8647L88.7187 47.8355L88.685 47.8066L88.6511 47.7782L88.617 47.7502L88.5828 47.7227L88.5485 47.6957L88.5141 47.6691L88.4796 47.643L88.4451 47.6175L88.4105 47.5924L88.376 47.5678L88.3414 47.5438L88.3068 47.5203L88.2723 47.4974L88.2379 47.4749L88.2036 47.4531L88.1694 47.4317L88.1353 47.411L88.1013 47.3907L88.0676 47.3711L88.034 47.352L88.0007 47.3335L87.9676 47.3155L87.9347 47.2981L87.9022 47.2813L87.8699 47.265L87.838 47.2493L87.8064 47.2342L87.7752 47.2196L87.7444 47.2056L87.714 47.1921L87.684 47.1792L87.6544 47.1668L87.6253 47.1549L87.5967 47.1436L87.5687 47.1328L87.5411 47.1225L87.5141 47.1128L87.4876 47.1035L87.4617 47.0947L87.4365 47.0864L87.4118 47.0786L87.3877 47.0713L87.3644 47.0644L87.3416 47.0579L87.3196 47.0519L87.2982 47.0463L87.2776 47.0411L87.2577 47.0363L87.2385 47.0318L87.22 47.0278L87.2024 47.0241L87.1855 47.0207L87.1693 47.0177L87.154 47.0149L87.1395 47.0125L87.1258 47.0103L87.113 47.0084L87.1009 47.0068L87.0898 47.0053L87.0794 47.0041L87.07 47.0031L87.0614 47.0023L87.0537 47.0016L87.0468 47.0011L87.0408 47.0007L87.0358 47.0004L87.0316 47.0002L87.0283 47.0001L87.0259 47L87.0244 47L87.0238 47L87.0241 47L87.0253 47L87.0274 46.9999L87.0304 46.9998L87.0343 46.9996L87.0391 46.9994L87.0448 46.999L87.0514 46.9985L87.0588 46.9979L87.0672 46.9971L87.0763 46.9962L87.0864 46.995L87.0973 46.9937L87.1091 46.9921L87.1217 46.9903L87.1351 46.9882L87.1494 46.9859L87.1645 46.9832L87.1803 46.9803L87.197 46.977L87.2144 46.9734L87.2327 46.9695L87.2516 46.9652L87.2713 46.9605L87.2918 46.9554L87.3129 46.9499L87.3348 46.944L87.3573 46.9377L87.3806 46.931L87.4044 46.9237L87.4289 46.9161L87.4541 46.9079L87.4798 46.8993L87.5061 46.8902L87.533 46.8806L87.5605 46.8705L87.5884 46.8599L87.6169 46.8487L87.6459 46.837L87.6754 46.8248L87.7053 46.8121L87.7356 46.7988L87.7664 46.7849L87.7976 46.7705L87.8291 46.7555L87.861 46.74L87.8932 46.7239L87.9258 46.7073L87.9586 46.6901L87.9917 46.6723L88.0251 46.6539L88.0587 46.635L88.0925 46.6155L88.1264 46.5955L88.1606 46.5749L88.1949 46.5538L88.2293 46.5321L88.2638 46.5098L88.2984 46.487L88.333 46.4637L88.3677 46.4398L88.4024 46.4154L88.4371 46.3905L88.4718 46.3651L88.5064 46.3392L88.541 46.3128L88.5754 46.2859L88.6098 46.2585L88.644 46.2307L88.6781 46.2024L88.7121 46.1737L88.7458 46.1446L88.7793 46.115L88.8127 46.0851L88.8458 46.0547L88.8786 46.024L88.9111 45.9929L88.9434 45.9615L88.9754 45.9297L89.007 45.8977L89.0383 45.8653L89.0693 45.8326L89.0998 45.7997L89.13 45.7666L89.1598 45.7332L89.1892 45.6996L89.2182 45.6658L89.2467 45.6319L89.2748 45.5977L89.3025 45.5635L89.3296 45.5291L89.3563 45.4947L89.3825 45.4601L89.4082 45.4255L89.4334 45.3909L89.4581 45.3563L89.4822 45.3216L89.5059 45.287L89.529 45.2525L89.5515 45.218L89.5735 45.1836L89.595 45.1493L89.6159 45.1152L89.6362 45.0812L89.656 45.0473L89.6752 45.0137L89.6939 44.9803L89.712 44.9471L89.7295 44.9142L89.7464 44.8816L89.7628 44.8493L89.7787 44.8173L89.7939 44.7857L89.8086 44.7544L89.8228 44.7235L89.8364 44.693L89.8494 44.6629L89.8619 44.6333L89.8739 44.6042L89.8853 44.5755L89.8962 44.5474L89.9066 44.5197L89.9165 44.4926L89.9259 44.4661L89.9347 44.4402L89.9431 44.4148L89.951 44.3901L89.9585 44.366L89.9655 44.3425L89.972 44.3197L89.9782 44.2976L89.9838 44.2762L89.9891 44.2555L89.994 44.2355L89.9985 44.2162L90.0027 44.1977L90.0064 44.1799L90.0099 44.163L90.013 44.1468L90.0158 44.1314L90.0183 44.1168L90.0205 44.1031L90.0224 44.0901L90.0242 44.078L90.0256 44.0668L90.0269 44.0564L90.0279 44.0469L90.0288 44.0382L90.0295 44.0304L90.0301 44.0235L90.0305 44.0175L90.0308 44.0123L90.031 44.0081L90.0311 44.0047L90.0312 44.0022L90.0312 44.0007L90.0312 44L90.0312 44.0002L90.0313 44.0014L90.0313 44.0034L90.0314 44.0063L90.0315 44.0102L90.0318 44.0149L90.0321 44.0205L90.0326 44.027L90.0332 44.0344L90.0339 44.0426L90.0348 44.0517L90.0359 44.0617L90.0372 44.0726L90.0388 44.0843L90.0405 44.0968L90.0426 44.1102L90.0449 44.1243L90.0474 44.1393L90.0503 44.1551L90.0535 44.1717L90.057 44.1891L90.0609 44.2073L90.0652 44.2262L90.0698 44.2458L90.0748 44.2662L90.0801 44.2873L90.0859 44.3091L90.0922 44.3315L90.0988 44.3547L90.106 44.3785L90.1135 44.4029L90.1216 44.428L90.1301 44.4536L90.1391 44.4799L90.1486 44.5067L90.1586 44.5341L90.1691 44.562L90.1801 44.5904L90.1917 44.6193L90.2038 44.6487L90.2165 44.6786L90.2296 44.7089L90.2434 44.7396L90.2577 44.7707L90.2725 44.8021L90.2879 44.834L90.3039 44.8661L90.3204 44.8986L90.3375 44.9314L90.3551 44.9644L90.3733 44.9977L90.3921 45.0312L90.4115 45.065L90.4314 45.0989L90.4518 45.133L90.4729 45.1672L90.4944 45.2015L90.5166 45.236L90.5392 45.2705L90.5624 45.3051L90.5862 45.3397L90.6104 45.3744L90.6352 45.409L90.6605 45.4436L90.6863 45.4782L90.7126 45.5127L90.7393 45.5471L90.7666 45.5814L90.7943 45.6156L90.8224 45.6496L90.851 45.6835L90.8801 45.7172L90.9095 45.7507L90.9393 45.7839L90.9696 45.817L91.0002 45.8497L91.0312 45.8822L91.0625 45.9144L91.0941 45.9464L91.1261 45.9779L91.1584 46.0092L91.1909 46.0401L91.2237 46.0706L91.2568 46.1008L91.2901 46.1305L91.3236 46.1599L91.3573 46.1888L91.3912 46.2173L91.4252 46.2453L91.4594 46.2729L91.4937 46.3L91.5281 46.3266L91.5625 46.3528L91.597 46.3785L91.6316 46.4036L91.6662 46.4282L91.7008 46.4523L91.7353 46.4759L91.7698 46.499L91.8043 46.5215L91.8386 46.5435L91.8728 46.5649L91.907 46.5857L91.9409 46.606L91.9747 46.6258L92.0083 46.645L92.0417 46.6636L92.0748 46.6816L92.1077 46.6991L92.1403 46.716L92.1726 46.7324L92.2046 46.7482L92.2362 46.7634L92.2675 46.7781L92.2984 46.7922L92.3289 46.8058L92.3589 46.8188L92.3886 46.8313L92.4177 46.8432L92.4464 46.8546L92.4746 46.8655L92.5022 46.8758L92.5293 46.8857L92.5559 46.895L92.5818 46.9039L92.6072 46.9122L92.632 46.9201L92.6561 46.9276L92.6796 46.9345L92.7024 46.9411L92.7246 46.9472L92.7461 46.9528L92.7668 46.9581L92.7869 46.963L92.8062 46.9674L92.8247 46.9716L92.8425 46.9753L92.8596 46.9788L92.8758 46.9818L92.8912 46.9846L92.9059 46.9871L92.9197 46.9893L92.9327 46.9913L92.9448 46.993L92.9562 46.9944L92.9666 46.9957L92.9762 46.9967L92.985 46.9976L92.9928 46.9983L92.9998 46.9988L93.0059 46.9992L93.0111 46.9995L93.0154 46.9997L93.0189 46.9999L93.0214 46.9999L93.023 47L93.0238 47L93.0238 47Z" fill="#6C03A8"/>
<path fill-rule="evenodd" clip-rule="evenodd" d="M87.0201 21.5L87.0194 21.5L87.0174 21.5L87.014 21.5001L87.0093 21.5003L87.0033 21.5005L86.9959 21.501L86.9871 21.5015L86.9771 21.5023L86.9657 21.5032L86.953 21.5045L86.939 21.5059L86.9237 21.5077L86.9071 21.5098L86.8893 21.5122L86.8702 21.515L86.8498 21.5182L86.8282 21.5218L86.8054 21.5258L86.7814 21.5303L86.7563 21.5353L86.7299 21.5407L86.7024 21.5468L86.6738 21.5533L86.644 21.5604L86.6132 21.5681L86.5813 21.5764L86.5483 21.5854L86.5143 21.595L86.4794 21.6052L86.4434 21.6161L86.4065 21.6277L86.3686 21.6401L86.3299 21.6531L86.2903 21.6669L86.2498 21.6814L86.2085 21.6967L86.1664 21.7128L86.1236 21.7296L86.08 21.7473L86.0357 21.7657L85.9907 21.785L85.9451 21.8051L85.8988 21.826L85.852 21.8477L85.8046 21.8703L85.7567 21.8937L85.7082 21.918L85.6594 21.9431L85.61 21.9691L85.5603 21.9959L85.5102 22.0235L85.4598 22.052L85.409 22.0814L85.358 22.1116L85.3068 22.1426L85.2553 22.1744L85.2037 22.2071L85.1519 22.2406L85.1 22.275L85.048 22.3101L84.996 22.346L84.9439 22.3827L84.8919 22.4202L84.8399 22.4584L84.788 22.4974L84.7362 22.5371L84.6845 22.5776L84.633 22.6187L84.5816 22.6606L84.5305 22.7031L84.4797 22.7463L84.4291 22.7901L84.3788 22.8345L84.3289 22.8796L84.2793 22.9252L84.2302 22.9714L84.1814 23.0181L84.1331 23.0653L84.0852 23.113L84.0378 23.1612L83.9909 23.2098L83.9446 23.2588L83.8988 23.3082L83.8536 23.358L83.809 23.4082L83.765 23.4586L83.7217 23.5093L83.679 23.5603L83.6369 23.6115L83.5956 23.6629L83.555 23.7145L83.5151 23.7662L83.4759 23.818L83.4375 23.8699L83.3998 23.9219L83.3629 23.9738L83.3268 24.0258L83.2915 24.0777L83.257 24.1295L83.2233 24.1812L83.1904 24.2328L83.1583 24.2842L83.1271 24.3354L83.0967 24.3863L83.0672 24.437L83.0385 24.4874L83.0106 24.5374L82.9836 24.5871L82.9575 24.6364L82.9322 24.6853L82.9077 24.7337L82.8841 24.7816L82.8614 24.829L82.8395 24.8758L82.8184 24.9221L82.7981 24.9677L82.7787 25.0127L82.76 25.057L82.7422 25.1006L82.7252 25.1435L82.709 25.1856L82.6935 25.2269L82.6788 25.2674L82.6649 25.307L82.6517 25.3458L82.6392 25.3837L82.6274 25.4207L82.6164 25.4567L82.606 25.4917L82.5963 25.5257L82.5872 25.5588L82.5788 25.5907L82.5709 25.6216L82.5637 25.6515L82.557 25.6802L82.5509 25.7077L82.5453 25.7342L82.5403 25.7594L82.5357 25.7835L82.5315 25.8064L82.5279 25.8281L82.5246 25.8485L82.5217 25.8677L82.5192 25.8857L82.5171 25.9023L82.5153 25.9177L82.5137 25.9318L82.5125 25.9446L82.5114 25.9561L82.5107 25.9663L82.51 25.9751L82.5096 25.9826L82.5093 25.9888L82.5091 25.9936L82.509 25.9971L82.509 25.9992L82.509 26L82.509 25.9994L82.5089 25.9975L82.5089 25.9943L82.5087 25.9896L82.5085 25.9837L82.5081 25.9764L82.5076 25.9678L82.5068 25.9578L82.5059 25.9465L82.5048 25.934L82.5033 25.9201L82.5016 25.9049L82.4996 25.8884L82.4973 25.8707L82.4946 25.8517L82.4915 25.8314L82.488 25.81L82.484 25.7873L82.4796 25.7634L82.4747 25.7383L82.4694 25.712L82.4635 25.6846L82.457 25.6561L82.45 25.6265L82.4425 25.5957L82.4343 25.5639L82.4255 25.5311L82.416 25.4972L82.4059 25.4623L82.3952 25.4265L82.3837 25.3897L82.3715 25.3519L82.3586 25.3133L82.345 25.2738L82.3306 25.2334L82.3155 25.1922L82.2996 25.1502L82.2829 25.1075L82.2654 25.064L82.2472 25.0198L82.2281 24.9749L82.2082 24.9294L82.1874 24.8832L82.1659 24.8365L82.1435 24.7892L82.1202 24.7414L82.0962 24.693L82.0712 24.6442L82.0455 24.595L82.0189 24.5454L81.9914 24.4954L81.9631 24.4451L81.9339 24.3944L81.9039 24.3435L81.8731 24.2923L81.8414 24.241L81.8089 24.1894L81.7756 24.1377L81.7415 24.0859L81.7066 24.034L81.6708 23.9821L81.6343 23.9301L81.597 23.8782L81.559 23.8263L81.5202 23.7744L81.4806 23.7227L81.4404 23.6711L81.3994 23.6197L81.3577 23.5685L81.3154 23.5174L81.2724 23.4667L81.2288 23.4162L81.1845 23.366L81.1396 23.3162L81.0942 23.2667L81.0482 23.2176L81.0016 23.1689L80.9546 23.1206L80.907 23.0729L80.859 23.0256L80.8105 22.9788L80.7616 22.9325L80.7124 22.8868L80.6627 22.8417L80.6127 22.7971L80.5624 22.7532L80.5118 22.7099L80.461 22.6673L80.4099 22.6254L80.3586 22.5841L80.3071 22.5435L80.2555 22.5037L80.2038 22.4646L80.152 22.4262L80.1002 22.3886L80.0483 22.3518L79.9964 22.3157L79.9446 22.2805L79.8929 22.246L79.8412 22.2124L79.7897 22.1796L79.7384 22.1476L79.6873 22.1164L79.6364 22.0861L79.5857 22.0566L79.5354 22.028L79.4854 22.0002L79.4357 21.9733L79.3865 21.9472L79.3376 21.9219L79.2893 21.8975L79.2414 21.874L79.194 21.8513L79.1472 21.8294L79.1009 21.8083L79.0553 21.7881L79.0103 21.7687L78.966 21.7502L78.9224 21.7324L78.8795 21.7154L78.8374 21.6992L78.796 21.6838L78.7555 21.6691L78.7158 21.6552L78.677 21.6421L78.6391 21.6296L78.602 21.6179L78.566 21.6069L78.5309 21.5965L78.4968 21.5869L78.4637 21.5778L78.4317 21.5694L78.4007 21.5616L78.3709 21.5544L78.3421 21.5478L78.3144 21.5417L78.2879 21.5361L78.2626 21.5311L78.2384 21.5265L78.2154 21.5224L78.1936 21.5187L78.1731 21.5155L78.1538 21.5126L78.1358 21.5101L78.119 21.508L78.1035 21.5062L78.0893 21.5047L78.0764 21.5034L78.0649 21.5024L78.0546 21.5016L78.0456 21.501L78.038 21.5006L78.0318 21.5003L78.0268 21.5001L78.0232 21.5L78.021 21.5L78.0201 21.5L78.0206 21.5L78.0224 21.5L78.0255 21.4999L78.03 21.4997L78.0359 21.4995L78.0431 21.4991L78.0516 21.4985L78.0615 21.4978L78.0726 21.4969L78.0851 21.4957L78.0989 21.4943L78.114 21.4926L78.1304 21.4905L78.148 21.4882L78.1669 21.4854L78.1871 21.4823L78.2084 21.4788L78.2311 21.4748L78.2549 21.4704L78.2799 21.4655L78.306 21.4601L78.3334 21.4542L78.3618 21.4477L78.3914 21.4407L78.4221 21.4331L78.4538 21.4249L78.4866 21.4161L78.5204 21.4066L78.5552 21.3964L78.591 21.3856L78.6278 21.3741L78.6655 21.3619L78.7041 21.349L78.7436 21.3353L78.7839 21.3209L78.8251 21.3057L78.867 21.2898L78.9098 21.2731L78.9532 21.2556L78.9974 21.2372L79.0423 21.2181L79.0878 21.1981L79.134 21.1774L79.1807 21.1558L79.228 21.1333L79.2759 21.11L79.3242 21.0859L79.373 21.0609L79.4223 21.0351L79.472 21.0084L79.522 20.9809L79.5724 20.9525L79.6231 20.9233L79.674 20.8933L79.7253 20.8624L79.7767 20.8307L79.8283 20.7981L79.8801 20.7647L79.9319 20.7305L79.9839 20.6955L80.0359 20.6597L80.088 20.6232L80.14 20.5858L80.192 20.5477L80.244 20.5088L80.2958 20.4692L80.3475 20.4289L80.3991 20.3878L80.4504 20.3461L80.5016 20.3037L80.5525 20.2606L80.6031 20.2169L80.6534 20.1725L80.7034 20.1276L80.753 20.0821L80.8023 20.036L80.8511 19.9894L80.8995 19.9422L80.9474 19.8946L80.9949 19.8465L81.0418 19.7979L81.0883 19.749L81.1341 19.6996L81.1794 19.6499L81.2241 19.5998L81.2682 19.5494L81.3117 19.4987L81.3545 19.4478L81.3966 19.3966L81.4381 19.3452L81.4788 19.2937L81.5188 19.242L81.5581 19.1902L81.5967 19.1383L81.6345 19.0864L81.6715 19.0344L81.7077 18.9825L81.7432 18.9306L81.7778 18.8787L81.8116 18.827L81.8447 18.7754L81.8768 18.724L81.9082 18.6727L81.9387 18.6217L81.9684 18.571L81.9972 18.5206L82.0252 18.4705L82.0523 18.4207L82.0786 18.3714L82.104 18.3224L82.1286 18.274L82.1524 18.226L82.1753 18.1785L82.1973 18.1316L82.2185 18.0852L82.2389 18.0395L82.2585 17.9944L82.2773 17.95L82.2952 17.9063L82.3124 17.8633L82.3287 17.821L82.3443 17.7796L82.3591 17.739L82.3732 17.6992L82.3865 17.6603L82.3991 17.6222L82.4109 17.5851L82.4221 17.549L82.4326 17.5138L82.4424 17.4796L82.4516 17.4464L82.4601 17.4143L82.4681 17.3832L82.4754 17.3532L82.4822 17.3243L82.4884 17.2965L82.494 17.2699L82.4992 17.2445L82.5038 17.2202L82.508 17.1971L82.5118 17.1752L82.5151 17.1546L82.518 17.1352L82.5206 17.1171L82.5228 17.1002L82.5247 17.0846L82.5263 17.0703L82.5276 17.0573L82.5286 17.0456L82.5295 17.0352L82.5301 17.0262L82.5305 17.0185L82.5309 17.0121L82.5311 17.007L82.5312 17.0033L82.5312 17.001L82.5312 17L82.5312 17.0004L82.5313 17.0021L82.5313 17.0051L82.5315 17.0095L82.5317 17.0152L82.532 17.0223L82.5326 17.0307L82.5332 17.0405L82.5341 17.0515L82.5352 17.0639L82.5366 17.0776L82.5383 17.0926L82.5402 17.1088L82.5425 17.1264L82.5452 17.1452L82.5482 17.1652L82.5517 17.1865L82.5555 17.209L82.5599 17.2327L82.5647 17.2576L82.5699 17.2837L82.5758 17.3109L82.5821 17.3392L82.589 17.3687L82.5965 17.3993L82.6046 17.4309L82.6133 17.4636L82.6226 17.4973L82.6326 17.532L82.6433 17.5677L82.6547 17.6044L82.6667 17.642L82.6795 17.6805L82.693 17.7198L82.7072 17.7601L82.7223 17.8011L82.738 17.843L82.7546 17.8856L82.7719 17.929L82.7901 17.9731L82.8091 18.0179L82.8288 18.0633L82.8494 18.1094L82.8709 18.156L82.8931 18.2032L82.9162 18.251L82.9402 18.2992L82.9649 18.3479L82.9906 18.3971L83.0171 18.4467L83.0444 18.4966L83.0726 18.5469L83.1016 18.5975L83.1314 18.6483L83.1621 18.6995L83.1937 18.7508L83.226 18.8023L83.2592 18.854L83.2932 18.9058L83.328 18.9577L83.3636 19.0096L83.4 19.0616L83.4372 19.1135L83.4751 19.1654L83.5138 19.2173L83.5532 19.269L83.5934 19.3206L83.6342 19.3721L83.6758 19.4234L83.718 19.4744L83.7609 19.5252L83.8045 19.5758L83.8486 19.626L83.8934 19.6759L83.9388 19.7254L83.9847 19.7746L84.0311 19.8234L84.0781 19.8717L84.1256 19.9195L84.1735 19.9669L84.2219 20.0138L84.2708 20.0601L84.32 20.1059L84.3696 20.1511L84.4195 20.1958L84.4698 20.2398L84.5203 20.2832L84.5711 20.3259L84.6222 20.368L84.6734 20.4093L84.7249 20.45L84.7765 20.49L84.8282 20.5292L84.8799 20.5677L84.9318 20.6054L84.9836 20.6424L85.0355 20.6785L85.0873 20.7139L85.1391 20.7485L85.1908 20.7823L85.2423 20.8152L85.2936 20.8473L85.3448 20.8786L85.3957 20.9091L85.4464 20.9387L85.4968 20.9675L85.5469 20.9954L85.5966 21.0225L85.6459 21.0487L85.6948 21.0741L85.7433 21.0986L85.7912 21.1223L85.8387 21.1451L85.8856 21.1671L85.932 21.1883L85.9777 21.2087L86.0228 21.2282L86.0672 21.2469L86.1109 21.2648L86.1539 21.2819L86.1962 21.2982L86.2377 21.3138L86.2783 21.3285L86.3182 21.3426L86.3571 21.3558L86.3952 21.3684L86.4323 21.3802L86.4685 21.3914L86.5038 21.4018L86.538 21.4116L86.5713 21.4207L86.6035 21.4293L86.6346 21.4372L86.6647 21.4445L86.6936 21.4512L86.7215 21.4574L86.7482 21.463L86.7737 21.4681L86.7981 21.4728L86.8212 21.477L86.8432 21.4807L86.8639 21.484L86.8834 21.4869L86.9016 21.4894L86.9186 21.4916L86.9343 21.4935L86.9487 21.4951L86.9618 21.4964L86.9736 21.4974L86.9841 21.4982L86.9932 21.4989L87.0011 21.4993L87.0075 21.4996L87.0127 21.4998L87.0165 21.4999L87.0189 21.5L87.02 21.5L87.0201 21.5Z" fill="#6C03A8"/>
<defs>
<filter id="filter0_d" x="4" y="0" width="88" height="88" filterUnits="userSpaceOnUse" color-interpolation-filters="sRGB">
<feFlood flood-opacity="0" result="BackgroundImageFix"/>
<feColorMatrix in="SourceAlpha" type="matrix" values="0 0 0 0 0 0 0 0 0 0 0 0 0 0 0 0 0 0 127 0"/>
<feOffset dy="4"/>
<feGaussianBlur stdDeviation="10"/>
<feColorMatrix type="matrix" values="0 0 0 0 0.113725 0 0 0 0 0.309804 0 0 0 0 0.607843 0 0 0 0.3 0"/>
<feBlend mode="normal" in2="BackgroundImageFix" result="effect1_dropShadow"/>
<feBlend mode="normal" in="SourceGraphic" in2="effect1_dropShadow" result="shape"/>
</filter>
<clipPath id="clip0">
<rect width="24" height="24" fill="white" transform="translate(38 26)"/>
</clipPath>
</defs>
</svg>
