<svg xmlns="http://www.w3.org/2000/svg" xmlns:xlink="http://www.w3.org/1999/xlink" width="36" height="36" viewBox="0 0 36 36">
    <defs>
        <circle id="a" cx="18" cy="18" r="18"/>
    </defs>
    <g fill="none" fill-rule="evenodd">
        <mask id="b" fill="#fff">
            <use xlink:href="#a"/>
        </mask>
        <use fill="#F2F2F2" xlink:href="#a"/>
        <g fill="#A6A6A6" fill-rule="nonzero" mask="url(#b)">
            <path d="M34.078 43.064a.721.721 0 0 0-.721.72v6.776c0 .22-.179.398-.399.398H29.08V36.766a.721.721 0 0 0-1.443 0v14.192h-7.81l2.265-2.488a1.291 1.291 0 0 0 .308-1.059l-2.157-12.73.581-.873c.322.228.57.447 1.033.447.472 0 .914-.263 1.131-.698l2.275-4.555 5.183 2.005c.188.08 2.91 1.305 2.91 4.54v4.874a.721.721 0 0 0 1.444 0v-4.875c0-4.26-3.653-5.81-3.809-5.874a.341.341 0 0 0-.013-.005l-8.626-3.337v-2.021a6.751 6.751 0 0 0 2.558-4.442 3.125 3.125 0 0 0 1.835-.748 3.053 3.053 0 0 0 .32-4.317v-2.67c0-4.925-4.012-8.932-8.943-8.932-4.93 0-8.942 4.007-8.942 8.932v2.74a2.892 2.892 0 0 0-.744 1.929c0 .893.388 1.738 1.064 2.319.517.444 1.15.699 1.834.747a6.68 6.68 0 0 0 2.705 4.549v1.914l-8.617 3.337-.014.005c-.155.064-3.808 1.613-3.808 5.874V50.56c0 1.015.826 1.84 1.841 1.84h6.875a.721.721 0 1 0 0-1.442H8.763V36.766a.721.721 0 0 0-1.443 0v14.192H3.442a.399.399 0 0 1-.399-.397V35.546c0-3.245 2.741-4.467 2.91-4.539l5.179-2.005 2.275 4.555c.218.435.66.698 1.13.698.463 0 .708-.216 1.034-.447l.581.874-2.157 12.73a1.291 1.291 0 0 0 .309 1.058l2.265 2.489h-2.886a.721.721 0 1 0 0 1.441H32.96a1.843 1.843 0 0 0 1.841-1.84v-6.775a.721.721 0 0 0-.722-.721zM23.912 28.479l-2.121 4.247-2.551-1.81 2.62-3.23 2.052.793zm-4.265 4.494l-.55.827h-1.8l-.55-.827 1.45-1.028 1.45 1.028zm-4.166-6.41v-1.35a7.328 7.328 0 0 0 2.729.517 6.78 6.78 0 0 0 2.698-.562v1.4l-2.71 3.343-2.717-3.349zM26.366 16.8c0 .472-.205.919-.562 1.225a1.681 1.681 0 0 1-.833.384v-3.217c.829.134 1.395.821 1.395 1.608zM11.274 18.41a1.629 1.629 0 0 1-1.395-1.61c0-.77.64-1.397 1.395-1.571v3.18zm.039-4.65a3.57 3.57 0 0 0-.69.156v-1.784c0-4.13 3.364-7.49 7.5-7.49 4.134 0 7.498 3.36 7.498 7.49v1.734a3.21 3.21 0 0 0-.65-.126c0-.695.006-.56-2.272-3.007a1.285 1.285 0 0 0-1.639-.2c-2.514 1.64-5.58 2.465-8.41 2.262a1.283 1.283 0 0 0-1.337.965zm1.404 5.217V14.244c3.115.182 6.38-.742 9.018-2.43 1.045 1.12 1.61 1.708 1.793 1.932v5.231c0 2.926-2.389 5.312-5.318 5.312-3.29 0-5.493-2.55-5.493-5.312zm1.887 13.749l-2.121-4.247 2.048-.792 2.621 3.231-2.548 1.808zm.828 14.84l2.088-12.325h1.354l2.088 12.326-2.765 3.038-2.765-3.038z"/>
        </g>
    </g>
</svg>
