<svg xmlns="http://www.w3.org/2000/svg" xmlns:xlink="http://www.w3.org/1999/xlink" width="90" height="90" viewBox="0 0 90 90">
    <defs>
        <circle id="a" cx="45" cy="45" r="45"/>
    </defs>
    <g fill="none" fill-rule="evenodd">
        <mask id="b" fill="#fff">
            <use xlink:href="#a"/>
        </mask>
        <use fill="#F2F2F2" xlink:href="#a"/>
        <g fill="#A6A6A6" fill-rule="nonzero" mask="url(#b)">
            <path d="M75.22 81.442c-2.663-2.51-5.345-3.539-5.802-3.702l-9.127-3.796a1.579 1.579 0 0 0-.225-.074l-6.313-1.588v-5.346l.275-.14c.186.124.401.213.637.25 3.987.635 7.634 1.664 10.548 2.976a1.598 1.598 0 0 0 2.038-.66c.063-.057.124-.12.178-.19 5.151-6.63 7.987-15.226 7.987-24.205 0-10.976-4.193-21.21-11.505-28.077l-.003-.003C58.492 11.801 51.675 9 44.713 9c-16.93 0-30.704 16.135-30.704 35.967 0 9.176 2.947 17.912 8.298 24.599.01.013.023.025.034.038l.032.036c.041.045.085.087.13.127l.024.022c.172.144.368.248.576.309l.014.004a1.6 1.6 0 0 0 .205.044l.013.002c.073.01.147.017.222.017.016 0 .032-.003.048-.004a1.547 1.547 0 0 0 .254-.028c.063-.012.125-.027.187-.047.031-.01.061-.022.092-.035.025-.01.05-.018.075-.029 2.949-1.327 6.644-2.364 10.687-2.998.202-.032.39-.101.557-.199.063.033.126.066.19.097v5.345l-6.695 1.599c-.083.02-.164.046-.243.078l-9.127 3.796c-.457.163-3.14 1.192-5.803 3.702C11.143 83.927 8 88.397 8 95.587v12.817c0 .881.716 1.595 1.598 1.595h19.219c.882 0 1.598-.713 1.598-1.594 0-.881-.716-1.595-1.598-1.595h-5.293V95.004c0-.881-.715-1.595-1.598-1.595-.882 0-1.598.714-1.598 1.595v11.806h-9.132V95.587c0-11.46 9.087-14.715 9.468-14.846.036-.012.071-.025.106-.04l7.599-3.16 1.03 3.67v.002l7.185 25.597h-3.163c-.882 0-1.598.714-1.598 1.595 0 .88.716 1.595 1.598 1.595H79.402c.883 0 1.598-.718 1.598-1.598V95.587c0-7.19-3.143-11.66-5.78-14.145zM24.07 66.617c-4.434-5.991-6.864-13.628-6.864-21.65 0-18.074 12.34-32.778 27.507-32.778 6.235 0 12.116 2.429 17.007 7.023 6.673 6.268 10.5 15.655 10.5 25.754 0 8.005-2.432 15.661-6.862 21.651-2.307-.931-4.95-1.706-7.793-2.286a16.6 16.6 0 0 0 5.29-10.033c3.897-.317 6.971-3.58 6.971-7.55 0-3.916-2.992-7.147-6.815-7.537a1.595 1.595 0 0 0-1.277-1.536c-10.886-2.215-15.675-8.687-15.719-8.747a1.598 1.598 0 0 0-2.447-.189c-6.212 6.363-15.862 8.93-15.958 8.955a1.595 1.595 0 0 0-1.194 1.517c-3.824.389-6.817 3.621-6.817 7.537 0 3.97 3.075 7.233 6.972 7.55a16.6 16.6 0 0 0 5.29 10.034c-2.842.58-5.485 1.354-7.792 2.285zm38.942-15.554v-8.629c2.054.369 3.618 2.16 3.618 4.315 0 2.153-1.564 3.946-3.618 4.314zm-36.599-8.63v8.63c-2.053-.368-3.618-2.16-3.618-4.314s1.565-3.947 3.618-4.315zm3.196 9.61V40.431c2.737-.863 9.582-3.369 14.99-8.257 2.073 2.187 6.926 6.355 15.217 8.343v11.526c0 7.412-6.042 13.442-13.468 13.442h-3.27c-7.426 0-13.469-6.03-13.469-13.442zm1.803 24.514l6.204-1.482a1.595 1.595 0 0 0 1.226-1.55v-5.397c1.354.355 2.773.546 4.237.546h3.269a16.67 16.67 0 0 0 4.209-.538v5.388c0 .731.497 1.368 1.207 1.547l6.228 1.566-.875 3.115c-5.557 3.246-11.43 4.223-17.464 2.903-3.659-.8-6.32-2.257-7.337-2.875l-.904-3.223zm18.11 30.253h-9.619l-6.408-22.832a28.693 28.693 0 0 0 5.332 1.76c1.688.38 3.69.659 5.922.659 3.318 0 7.142-.619 11.19-2.45l-6.416 22.863zm28.282 0H68.67V95.004c0-.881-.715-1.595-1.598-1.595-.883 0-1.598.714-1.598 1.595v11.806H52.841l8.171-29.11 7.217 3c.031.014.069.028.1.039.387.133 9.475 3.387 9.475 14.847v11.224z"/>
        </g>
    </g>
</svg>
