<svg xmlns="http://www.w3.org/2000/svg" xmlns:xlink="http://www.w3.org/1999/xlink" width="36" height="36" viewBox="0 0 36 36">
    <defs>
        <circle id="a" cx="18" cy="18" r="18"/>
    </defs>
    <g fill="none" fill-rule="evenodd">
        <mask id="b" fill="#fff">
            <use xlink:href="#a"/>
        </mask>
        <use fill="#F2F2F2" xlink:href="#a"/>
        <g fill="#A6A6A6" fill-rule="nonzero" mask="url(#b)">
            <path d="M30.088 32.577c-1.065-1.004-2.138-1.416-2.321-1.481l-3.65-1.518a.632.632 0 0 0-.09-.03l-2.526-.635v-2.139l.11-.056c.075.05.16.085.255.1 1.595.255 3.054.666 4.22 1.19a.639.639 0 0 0 .814-.263.627.627 0 0 0 .072-.076c2.06-2.652 3.195-6.09 3.195-9.682 0-4.39-1.678-8.484-4.603-11.231v-.001C23.396 4.72 20.67 3.6 17.884 3.6c-6.772 0-12.281 6.454-12.281 14.387 0 3.67 1.178 7.165 3.319 9.84l.014.015.012.014a.654.654 0 0 0 .052.05l.01.01c.068.057.147.099.23.123l.006.002a.64.64 0 0 0 .082.017l.005.001c.03.004.059.007.089.007l.02-.001a.619.619 0 0 0 .175-.03l.037-.014.03-.012c1.18-.531 2.658-.946 4.275-1.2a.637.637 0 0 0 .223-.079l.076.039v2.138l-2.678.64a.637.637 0 0 0-.097.03l-3.651 1.519c-.183.065-1.256.477-2.321 1.48-1.055.995-2.312 2.783-2.312 5.659v5.127c0 .352.286.638.64.638h7.687a.638.638 0 1 0 0-1.276H9.41V38a.639.639 0 0 0-1.279 0v4.723H4.478v-4.49c0-4.583 3.635-5.885 3.788-5.938a.635.635 0 0 0 .042-.016l3.04-1.264.411 1.468v.001l2.875 10.24h-1.265a.639.639 0 1 0 0 1.275H31.76a.64.64 0 0 0 .639-.64v-5.125c0-2.876-1.257-4.664-2.312-5.658zm-20.46-5.93c-1.774-2.397-2.746-5.451-2.746-8.66 0-7.23 4.936-13.111 11.003-13.111 2.494 0 4.847.971 6.803 2.809 2.67 2.507 4.2 6.262 4.2 10.302 0 3.201-.973 6.264-2.745 8.66a18.024 18.024 0 0 0-3.117-.915 6.64 6.64 0 0 0 2.116-4.013 3.037 3.037 0 0 0 2.788-3.02 3.037 3.037 0 0 0-2.726-3.015.638.638 0 0 0-.51-.614c-4.355-.886-6.27-3.475-6.288-3.499a.64.64 0 0 0-.979-.075c-2.485 2.545-6.345 3.572-6.383 3.581a.638.638 0 0 0-.478.607A3.038 3.038 0 0 0 7.84 18.7a3.037 3.037 0 0 0 2.788 3.02 6.64 6.64 0 0 0 2.117 4.014 18.03 18.03 0 0 0-3.117.914zm15.577-6.222v-3.451a1.758 1.758 0 0 1 1.447 1.726c0 .86-.626 1.578-1.447 1.725zm-14.64-3.451v3.451A1.758 1.758 0 0 1 9.118 18.7c0-.862.626-1.58 1.447-1.726zm1.279 3.843v-4.645c1.094-.345 3.832-1.347 5.996-3.302.829.874 2.77 2.542 6.087 3.337v4.61c0 2.965-2.417 5.377-5.388 5.377h-1.308c-2.97 0-5.387-2.412-5.387-5.377zm.72 9.806l2.482-.593a.638.638 0 0 0 .49-.62V27.25c.542.142 1.11.219 1.696.219h1.307c.581 0 1.146-.075 1.684-.216v2.156c0 .292.199.547.483.618l2.49.627-.35 1.246c-2.222 1.298-4.571 1.689-6.985 1.16a9.89 9.89 0 0 1-2.934-1.15l-.362-1.288zm7.245 12.1h-3.848l-2.563-9.132c.567.252 1.289.515 2.133.705a10.84 10.84 0 0 0 2.369.263c1.327 0 2.856-.248 4.476-.98l-2.567 9.145zm11.313 0h-3.654v-4.722a.638.638 0 0 0-1.278 0v4.723h-5.053l3.268-11.644 2.887 1.2c.012.006.027.011.04.015.155.054 3.79 1.356 3.79 5.94v4.489z"/>
        </g>
    </g>
</svg>
