<svg xmlns="http://www.w3.org/2000/svg" xmlns:xlink="http://www.w3.org/1999/xlink" width="90" height="90" viewBox="0 0 90 90">
    <defs>
        <circle id="a" cx="45" cy="45" r="45"/>
    </defs>
    <g fill="none" fill-rule="evenodd">
        <mask id="b" fill="#fff">
            <use xlink:href="#a"/>
        </mask>
        <use fill="#F2F2F2" xlink:href="#a"/>
        <g fill-rule="nonzero" stroke="#A6A6A6" stroke-width="3.5" mask="url(#b)">
            <path d="M40.138 92.633l-3.18-5.06 7.713-7.158 7.714 7.159-3.18 5.06 1.442 6.116H38.696l1.442-6.117zm9.311-49.016c-.605 0-1.071.449-1.071.962v1.75h-6.322v-1.75c0-.513-.466-.962-1.07-.962H32.52c-.393 0-.742.2-.933.514l-.51.842h-4.539V34.618l2.229.633a56.651 56.651 0 0 0 15.496 2.154h1.907c5.256 0 10.46-.724 15.496-2.154l2.228-.633v10.355h-4.538l-.511-.842a1.084 1.084 0 0 0-.933-.514h-8.464zm10.077.304v4.48c0 2.499-2.114 4.48-4.662 4.48h-2.912c-2.549 0-4.663-1.981-4.663-4.48v-4.48h12.237zm-16.381 0v4.48c0 2.499-2.114 4.48-4.663 4.48H35.57c-2.548 0-4.662-1.981-4.662-4.48v-4.48h12.237zM31.45 45.013v3.184c0 2.201 1.754 3.983 3.893 3.983h2.82c2.14 0 3.893-1.782 3.893-3.983v-1.75h6.322v1.75c0 2.201 1.753 3.983 3.892 3.983h2.822c2.139 0 3.892-1.782 3.892-3.983v-3.184h4.91v7.484c0 10.445-8.37 18.95-18.677 18.95S26.54 62.942 26.54 52.497v-7.484h4.911zm21.974 27.195l6.38.95-3.17 18.42-12.384-10.49 9.174-8.88zm-14.598-1.419l-.708.727h1.75v-.727h-1.042zm12.782 0h-1.042v.727h1.75l-.708-.727zm-6.39 10.089l-8.85-8.624v-3.99l2.365.887a18.423 18.423 0 0 0 6.484 1.188c2.22 0 4.401-.407 6.485-1.188l2.364-.886v3.989l-8.849 8.624zm.966.21l-12.383 10.49-3.171-18.42 6.38-.95 9.174 8.88zm33.62 17.662h-28.96l-1.502-6.106 3.487-5.308 3.699 3.285 2.866-17.46 1.716.268 1.373.215c6.13.958 11.27 5.446 13.116 11.442l4.205 13.664zM63.675 53.196l.026-.332.002-.025c.026-.331.035-.484.035-.646v-8.876l2.255.678c2.604.784 4.454 2.938 4.454 5.49 0 2.582-1.894 4.753-4.543 5.513l-2.4.688.171-2.49zm-1.902-33.137c5.353 2.76 8.674 8.247 8.674 14.331v12.74l-2.815-2.163c-.672-.516-1.399-.862-2.155-1.018l-1.396-.288v-8.425a55.373 55.373 0 0 1-17.349 2.783h-1.938a55.375 55.375 0 0 1-17.348-2.783v8.422l-1.395.29c-.759.157-1.486.503-2.156 1.017l-2.816 2.163V36.269c0-13.79 11.067-25.019 24.684-25.019h1.852c6.02 0 11.441 3.379 14.158 8.809zm-36.15 34.939c-2.65-.76-4.544-2.931-4.544-5.513 0-2.552 1.85-4.706 4.455-5.49l2.254-.678v8.876c0 .162.009.315.036.646a25.159 25.159 0 0 1 .027.357l.171 2.49-2.4-.688zm8.284 35.621l3.698-3.284 3.487 5.308-1.504 6.107H10.63l4.206-13.665c1.847-5.995 6.987-10.483 13.115-11.441l3.09-.484 2.866 17.46z"/>
        </g>
    </g>
</svg>
