<svg xmlns="http://www.w3.org/2000/svg" xmlns:xlink="http://www.w3.org/1999/xlink" width="36" height="36" viewBox="0 0 36 36">
    <defs>
        <circle id="a" cx="18" cy="18" r="18"/>
    </defs>
    <g fill="none" fill-rule="evenodd">
        <mask id="b" fill="#fff">
            <use xlink:href="#a"/>
        </mask>
        <use fill="#F2F2F2" xlink:href="#a"/>
        <g fill-rule="nonzero" stroke="#A6A6A6" stroke-width="1.5" mask="url(#b)">
            <path d="M16.002 37.062l-1.284-2.042 3.15-2.922 3.15 2.923-1.283 2.041.587 2.488h-4.907l.587-2.488zm2.063-19.98a1.79 1.79 0 0 0-.164.75h.372a1.79 1.79 0 0 0-.164-.75h-.044zm-6.384-.543a1.867 1.867 0 0 0-.285.361l.64.39v-.75h-.355zm12.812 0h-.356v.75l.641-.389a1.867 1.867 0 0 0-.285-.36zm-4.713.958c-.215 0-.379.157-.379.335v.75h-2.628v-.75c0-.178-.164-.335-.379-.335H13.01c-.14 0-.264.07-.33.181l-.22.361h-1.893v-4.258l.955.271c2.01.571 4.087.86 6.184.86h.763c2.098 0 4.175-.289 6.185-.86l.955-.271v4.258h-1.893l-.22-.36a.383.383 0 0 0-.33-.182H19.78zm4.08.021v1.843c0 1.027-.868 1.842-1.914 1.842H20.78c-1.047 0-1.915-.815-1.915-1.842v-1.843h4.995zm-6.552 0v1.843c0 1.027-.869 1.842-1.915 1.842h-1.165c-1.046 0-1.915-.815-1.915-1.842v-1.843h4.995zm-4.678.437v1.324c0 .853.68 1.543 1.507 1.543h1.129c.827 0 1.507-.69 1.507-1.543v-.75H19.4v.75c0 .853.68 1.543 1.507 1.543h1.129c.827 0 1.507-.69 1.507-1.543v-1.324h2.064V21c0 4.205-3.37 7.63-7.521 7.63-4.15 0-7.521-3.425-7.521-7.63v-3.044h2.064zm8.723 10.875l2.627.391-1.292 7.505-5.063-4.288 3.728-3.608zm-5.822-.514l-.284.29h.75v-.29h-.466zm5.112 0h-.467v.29h.75l-.283-.29zm-2.556 4.105l-3.59-3.498v-1.69l1.014.38a7.32 7.32 0 0 0 2.576.472 7.32 7.32 0 0 0 2.576-.472l1.013-.38v1.69l-3.59 3.498zm.461.017l-5.062 4.288-1.292-7.505 2.627-.391 3.727 3.608zM31.99 39.55H20.3l-.616-2.501 1.439-2.19 1.454 1.292 1.14-6.944.736.115.55.086c2.47.386 4.541 2.195 5.286 4.612l1.701 5.53zM25.42 21.275l.01-.133.001-.01c.01-.132.014-.192.014-.255V17.26l.967.291c1.061.32 1.817 1.2 1.817 2.244 0 1.057-.774 1.944-1.854 2.253l-1.028.295.073-1.067zm-.673-13.288c2.149 1.114 3.482 3.322 3.482 5.77v5.196l-1.207-.927a2.07 2.07 0 0 0-.841-.397l-.599-.124v-3.342a22.198 22.198 0 0 1-6.89 1.095h-.774c-2.344 0-4.66-.368-6.89-1.095v3.34l-.597.125c-.296.061-.58.197-.843.398l-1.206.927v-4.445c0-5.544 4.448-10.058 9.923-10.058h.741c2.422 0 4.603 1.356 5.7 3.537zm-14.512 14.06c-1.08-.31-1.853-1.196-1.853-2.253 0-1.044.755-1.924 1.817-2.244l.966-.29v3.617c0 .063.004.123.014.255l.001.01.01.133.074 1.067-1.029-.295zm3.362 14.103l1.455-1.292 1.439 2.19-.617 2.502H4.184l1.703-5.53v-.001c.744-2.416 2.815-4.225 5.286-4.61l1.285-.202 1.14 6.943z"/>
        </g>
    </g>
</svg>
